<svg width="95" height="91" viewBox="0 0 95 91" fill="none" xmlns="http://www.w3.org/2000/svg">
<path fill-rule="evenodd" clip-rule="evenodd" d="M66.7427 19.3874C63.0545 15.9002 58.2933 13.6065 53.1416 12.835C47.9899 12.0635 42.7121 12.8539 38.0647 15.0928C33.4173 17.3317 29.6388 20.9043 27.2709 25.2984C24.9029 29.6926 24.067 34.6827 24.8829 39.5537C25.6989 44.4246 28.1248 48.9263 31.813 52.4135C35.5012 55.9007 40.2624 58.1944 45.4141 58.9659C50.5658 59.7374 55.8435 58.947 60.491 56.7081C65.1384 54.4692 68.9169 50.8966 71.2848 46.5025L82.2605 51.7901C81.3173 53.5403 80.2248 55.2035 78.9983 56.7654C75.6096 61.0805 71.1975 64.6218 66.0833 67.0856C59.1181 70.4412 51.2081 71.6258 43.4871 70.4695C35.766 69.3133 28.6303 65.8756 23.1027 60.6492C17.575 55.4228 13.9392 48.6759 12.7163 41.3757C11.4934 34.0754 12.7462 26.5965 16.2952 20.0108C19.8442 13.4251 25.5071 8.07082 32.4723 4.71526C39.4376 1.35969 47.3476 0.175148 55.0686 1.3314C60.7377 2.18036 66.0913 4.25926 70.7244 7.37308C72.4014 8.50013 73.984 9.76277 75.453 11.1517L66.7427 19.3874Z" fill="url(#paint0_linear)"/>
<g filter="url(#filter0_bdii)">
<path d="M67.7865 35.9005C67.7865 45.5654 59.4999 53.4004 49.2778 53.4004C39.0558 53.4004 30.7692 45.5654 30.7692 35.9005C30.7692 26.2355 39.0558 18.4005 49.2778 18.4005C59.4999 18.4005 67.7865 26.2355 67.7865 35.9005Z" fill="white"/>
</g>
<path d="M29.5353 17.2338V53.6314H69.0204V17.2338H29.5353ZM29.5353 17.2338H69.0204V53.6314H29.5353V17.2338ZM40.6985 37.8453L39.3942 42.4874C39.3683 42.6146 39.3103 42.6636 39.1499 42.6636H36.7339C36.5735 42.6636 36.5476 42.6088 36.5735 42.4326L41.2451 26.9801C41.3228 26.7001 41.3796 26.4761 41.4055 25.7038C41.4055 25.5999 41.4573 25.5463 41.54 25.5463H44.9912C45.1011 25.5463 45.1516 25.5766 45.1776 25.7038L50.4155 42.4559C50.4414 42.5831 50.4155 42.6566 50.281 42.6566H47.5689C47.4344 42.6566 47.3505 42.6146 47.3246 42.5108L45.9685 37.8383H40.6985V37.8453ZM45.3121 35.3171C44.8493 33.5974 43.7314 29.8244 43.3267 28.0068H43.3008C42.9479 29.8233 42.0607 32.9044 41.3796 35.3171H45.3121ZM54.1296 36.9096C54.1617 39.0178 55.2154 40.4283 57.7153 40.4283C58.6926 40.4283 59.5279 40.3069 60.3954 39.9418C60.5052 39.8928 60.5879 39.9231 60.5879 40.0514V42.0021C60.5879 42.1538 60.536 42.2331 60.4213 42.3124C59.5538 42.7196 58.4742 42.9016 57.1181 42.9016C52.7735 42.9016 51.1472 39.8753 51.1472 36.4849C51.1472 32.8146 53.1523 29.8128 56.6875 29.8128C60.267 29.8128 61.5133 32.6629 61.5133 34.9718C61.5133 35.7196 61.4553 36.3333 61.3788 36.6179C61.3467 36.7451 61.2949 36.7883 61.1604 36.8128C60.8322 36.8676 59.8562 36.9166 58.4162 36.9166H54.1296V36.9096ZM57.4722 34.7699C58.3138 34.7699 58.6099 34.7699 58.6938 34.7454C58.6938 34.6416 58.7197 34.5506 58.7197 34.4783C58.7197 33.6278 58.2829 32.0714 56.5727 32.0714C54.9982 32.0714 54.3171 33.3839 54.1567 34.7699H57.4722Z" fill="url(#paint1_linear)"/>
<path d="M1.07108 89.7833C1.03852 89.7638 1.00597 89.741 0.973419 89.7149C0.947378 89.6824 0.927846 89.6531 0.914825 89.627C0.908315 89.5945 0.90506 89.5554 0.90506 89.5099C0.90506 89.5099 0.90506 89.5066 0.90506 89.5001C0.90506 89.4871 0.90506 89.4773 0.90506 89.4708C0.91157 89.4578 0.914825 89.4448 0.914825 89.4317C0.921336 89.4122 0.927846 89.3927 0.934357 89.3731L3.42459 83.504C3.47016 83.3998 3.53201 83.3185 3.61014 83.2599C3.64269 83.2338 3.6785 83.2143 3.71756 83.2013C3.75662 83.1882 3.8022 83.1817 3.85428 83.1817H3.95193C4.00402 83.1817 4.04959 83.1882 4.08865 83.2013C4.12772 83.2143 4.16352 83.2338 4.19608 83.2599C4.2742 83.3185 4.33605 83.3998 4.38162 83.504L6.87186 89.3731C6.87837 89.3927 6.88488 89.4155 6.89139 89.4415C6.8979 89.461 6.90115 89.4773 6.90115 89.4903C6.90115 89.4968 6.90115 89.5033 6.90115 89.5099C6.90115 89.588 6.87511 89.6563 6.82303 89.7149C6.77095 89.7735 6.70259 89.8028 6.61795 89.8028C6.55285 89.8028 6.49425 89.7865 6.44217 89.754C6.3966 89.7214 6.36079 89.6759 6.33475 89.6173L5.69998 88.1036L5.66092 87.9962L5.5535 88.006H2.25272H2.14529L2.10623 88.1036L1.47147 89.6173C1.44542 89.6759 1.40636 89.7214 1.35428 89.754C1.30871 89.7865 1.25337 89.8028 1.18826 89.8028C1.14269 89.8028 1.10363 89.7963 1.07108 89.7833ZM3.90311 84.1388C3.84451 84.1388 3.79568 84.1583 3.75662 84.1974C3.72407 84.2299 3.69803 84.269 3.6785 84.3145L2.44803 87.2735L2.35037 87.4981H2.59451H5.2117H5.45584L5.35818 87.2735L4.12772 84.3145C4.08214 84.1974 4.00727 84.1388 3.90311 84.1388ZM9.19608 89.5587C8.84451 89.3634 8.56457 89.0802 8.35623 88.7091C8.25207 88.5203 8.17394 88.3185 8.12186 88.1036C8.07628 87.8888 8.0535 87.6576 8.0535 87.4102C8.0535 87.3386 8.0535 87.2703 8.0535 87.2052C8.06001 87.1336 8.06652 87.0652 8.07303 87.0001C8.08605 86.9285 8.09907 86.8634 8.11209 86.8048C8.12511 86.7397 8.13813 86.6778 8.15115 86.6192C8.17068 86.5541 8.19022 86.4923 8.20975 86.4337C8.23579 86.3751 8.26183 86.3198 8.28787 86.2677C8.31391 86.2091 8.33996 86.1537 8.366 86.1017C8.47016 85.9194 8.59061 85.7599 8.72733 85.6231C8.86404 85.4799 9.01378 85.3595 9.17654 85.2618C9.50858 85.073 9.8699 84.9786 10.2605 84.9786C10.853 84.9786 11.3673 85.2032 11.8035 85.6524L12.0769 85.9454V85.545V83.172C12.0769 83.0873 12.1062 83.0157 12.1648 82.9571C12.2299 82.8985 12.3015 82.8692 12.3797 82.8692C12.4578 82.8692 12.5262 82.8985 12.5847 82.9571C12.6368 83.0222 12.6629 83.0938 12.6629 83.172V89.5099C12.6629 89.5229 12.6629 89.5359 12.6629 89.5489C12.6629 89.5619 12.6596 89.575 12.6531 89.588C12.6531 89.601 12.6499 89.614 12.6433 89.627C12.6433 89.6336 12.6401 89.6433 12.6336 89.6563C12.6271 89.6629 12.6173 89.6726 12.6043 89.6856C12.5978 89.6921 12.5913 89.7019 12.5847 89.7149C12.5522 89.741 12.5196 89.7638 12.4871 89.7833C12.4545 89.7963 12.4187 89.8028 12.3797 89.8028C12.3406 89.8028 12.3015 89.7963 12.2625 89.7833C12.2299 89.7638 12.1974 89.741 12.1648 89.7149C12.1388 89.6824 12.116 89.6498 12.0965 89.6173C12.0834 89.5847 12.0769 89.5489 12.0769 89.5099V89.2755V88.8751L11.8035 89.1681C11.3673 89.6173 10.853 89.8419 10.2605 89.8419C9.88943 89.8419 9.53462 89.7475 9.19608 89.5587ZM11.2859 89.1095C11.5659 88.9662 11.8165 88.7774 12.0379 88.5431L12.0769 88.504V88.4356V86.3849V86.3165L12.0379 86.2774C11.8165 86.0431 11.5659 85.8543 11.2859 85.711C10.9995 85.5743 10.7 85.506 10.3875 85.506C9.84712 85.506 9.41743 85.6752 9.09842 86.0138C8.79243 86.3588 8.63943 86.8243 8.63943 87.4102C8.63943 87.9962 8.79243 88.4617 9.09842 88.8067C9.41743 89.1453 9.84712 89.3145 10.3875 89.3145C10.7 89.3145 10.9995 89.2462 11.2859 89.1095ZM15.3191 89.5489C15.1433 89.4448 14.9871 89.3211 14.8504 89.1778C14.7202 89.0346 14.6062 88.8686 14.5086 88.6798C14.3133 88.3087 14.2156 87.8855 14.2156 87.4102C14.2156 87.2475 14.2254 87.0912 14.2449 86.9415C14.2644 86.7918 14.297 86.6518 14.3426 86.5216C14.3881 86.3849 14.4435 86.2546 14.5086 86.131C14.6974 85.7599 14.9708 85.4734 15.3289 85.2716C15.6805 85.0763 16.0906 84.9786 16.5594 84.9786C17.0281 84.9786 17.4383 85.0763 17.7898 85.2716C17.9656 85.3757 18.1219 85.4994 18.2586 85.6427C18.3953 85.7859 18.5125 85.9519 18.6101 86.1407C18.7078 86.323 18.7794 86.5216 18.825 86.7364C18.8771 86.9448 18.9031 87.1694 18.9031 87.4102C18.9031 87.892 18.8055 88.3152 18.6101 88.6798C18.4148 89.0574 18.1381 89.3471 17.7801 89.5489C17.4285 89.7442 17.0216 89.8419 16.5594 89.8419C16.0841 89.8419 15.6707 89.7442 15.3191 89.5489ZM17.3992 89.1388C17.6857 88.989 17.9103 88.7644 18.073 88.4649C18.2358 88.172 18.3172 87.8171 18.3172 87.4005C18.3172 87.3419 18.3139 87.2833 18.3074 87.2247C18.3074 87.1661 18.3041 87.1075 18.2976 87.0489C18.2911 86.9903 18.2814 86.935 18.2683 86.8829C18.2618 86.8308 18.2521 86.782 18.239 86.7364C18.226 86.6843 18.2097 86.6355 18.1902 86.5899C18.1772 86.5379 18.1577 86.4923 18.1316 86.4532C18.1121 86.4076 18.0893 86.3653 18.0633 86.3263C17.907 86.0528 17.6954 85.8445 17.4285 85.7013C17.3439 85.6492 17.2527 85.6069 17.1551 85.5743C17.0639 85.5418 16.9663 85.519 16.8621 85.506C16.7644 85.4929 16.6635 85.4864 16.5594 85.4864C16.2664 85.4864 15.9864 85.5483 15.7195 85.672C15.4331 85.8217 15.2084 86.0431 15.0457 86.336C14.8829 86.629 14.8015 86.9838 14.8015 87.4005C14.8015 87.6218 14.8211 87.8237 14.8601 88.006C14.9057 88.1882 14.9708 88.3477 15.0555 88.4845C15.2117 88.7644 15.4233 88.976 15.6902 89.1192C15.7749 89.1713 15.8627 89.2136 15.9539 89.2462C16.0515 89.2787 16.1492 89.3015 16.2469 89.3145C16.351 89.3276 16.4552 89.3341 16.5594 89.3341C16.657 89.3341 16.7514 89.3276 16.8426 89.3145C16.9402 89.3015 17.0346 89.282 17.1258 89.256C17.2234 89.2234 17.3146 89.1843 17.3992 89.1388ZM21.032 89.2755V89.5099C21.032 89.588 21.006 89.6563 20.9539 89.7149C20.8888 89.7735 20.8172 89.8028 20.739 89.8028C20.7 89.8028 20.6642 89.7963 20.6316 89.7833C20.5991 89.7638 20.5665 89.741 20.534 89.7149C20.5079 89.6824 20.4851 89.6498 20.4656 89.6173C20.4526 89.5847 20.4461 89.5489 20.4461 89.5099V83.172C20.4461 83.0938 20.4754 83.0222 20.534 82.9571C20.5926 82.8985 20.6609 82.8692 20.739 82.8692C20.7716 82.8692 20.7976 82.8725 20.8172 82.879C20.8432 82.8855 20.866 82.8953 20.8855 82.9083C20.9116 82.9213 20.9344 82.9376 20.9539 82.9571C20.9734 82.9767 20.9897 82.9994 21.0027 83.0255C21.0157 83.045 21.0222 83.0678 21.0222 83.0938C21.0288 83.1134 21.032 83.1394 21.032 83.172V85.545V85.9454L21.3152 85.6524C21.7514 85.2032 22.2657 84.9786 22.8582 84.9786C23.2553 84.9786 23.6134 85.0698 23.9324 85.252C24.284 85.4474 24.5607 85.7338 24.7625 86.1114C24.9708 86.489 25.075 86.922 25.075 87.4102C25.075 87.9181 24.9708 88.351 24.7625 88.7091C24.5541 89.0737 24.2807 89.3536 23.9422 89.5489C23.6101 89.7442 23.2488 89.8419 22.8582 89.8419C22.2657 89.8419 21.7514 89.6173 21.3152 89.1681L21.032 88.8751V89.2755ZM24.0203 88.8067C24.3328 88.4617 24.489 87.9962 24.489 87.4102C24.489 87.1173 24.45 86.8569 24.3719 86.629C24.2937 86.3946 24.1765 86.1895 24.0203 86.0138C23.7013 85.6752 23.2716 85.506 22.7312 85.506C22.6661 85.506 22.6043 85.5092 22.5457 85.5157C22.4871 85.5157 22.4252 85.5222 22.3601 85.5352C22.3015 85.5483 22.243 85.5645 22.1844 85.5841C22.1258 85.5971 22.0672 85.6166 22.0086 85.6427C21.95 85.6622 21.8914 85.685 21.8328 85.711C21.6961 85.7826 21.5626 85.8673 21.4324 85.9649C21.3087 86.0561 21.1915 86.1602 21.0808 86.2774L21.032 86.3165V86.3849V88.4356V88.504L21.0808 88.5431C21.3022 88.7774 21.5528 88.9662 21.8328 89.1095C22.1193 89.2462 22.4187 89.3145 22.7312 89.3145C23.2716 89.3145 23.7013 89.1453 24.0203 88.8067ZM28.6883 89.8419C27.9331 89.8419 27.3471 89.6303 26.9305 89.2071C26.5203 88.7839 26.3152 88.185 26.3152 87.4102C26.3152 86.9871 26.3933 86.5802 26.5496 86.1895C26.7124 85.8119 26.9597 85.5157 27.2918 85.3009C27.6238 85.086 28.0242 84.9786 28.493 84.9786C28.9422 84.9786 29.3328 85.0795 29.6648 85.2813C29.9773 85.4832 30.2215 85.7599 30.3972 86.1114C30.5795 86.463 30.6707 86.8536 30.6707 87.2833C30.6707 87.3614 30.6414 87.4298 30.5828 87.4884C30.5307 87.547 30.4591 87.5763 30.368 87.5763H27.0672H26.8816L26.9109 87.752C26.9695 88.2533 27.1616 88.6407 27.4871 88.9142C27.5652 88.9858 27.6531 89.0476 27.7508 89.0997C27.8484 89.1453 27.9493 89.1843 28.0535 89.2169C28.1577 89.2494 28.2683 89.2755 28.3855 89.295C28.5092 89.308 28.6362 89.3145 28.7664 89.3145C29.0398 89.3145 29.284 89.2918 29.4988 89.2462C29.5379 89.2332 29.5737 89.2234 29.6062 89.2169C29.6453 89.2039 29.6811 89.1908 29.7137 89.1778C29.7527 89.1648 29.7885 89.1518 29.8211 89.1388C29.8601 89.1257 29.8992 89.1127 29.9383 89.0997C29.9773 89.0867 30.0131 89.0737 30.0457 89.0606C30.0847 89.0411 30.1206 89.0216 30.1531 89.002H30.1629V88.9923C30.1824 88.9858 30.215 88.9825 30.2605 88.9825C30.3256 88.9825 30.381 89.0053 30.4265 89.0509C30.4721 89.0899 30.4949 89.142 30.4949 89.2071C30.4949 89.2462 30.4819 89.2852 30.4558 89.3243C30.4298 89.3634 30.3842 89.4024 30.3191 89.4415C30.1889 89.5131 30.062 89.575 29.9383 89.627C29.8146 89.6791 29.6941 89.7214 29.5769 89.754C29.3426 89.8126 29.0463 89.8419 28.6883 89.8419ZM30.075 86.8536C30.0489 86.5606 29.961 86.3132 29.8113 86.1114C29.6551 85.8836 29.4597 85.7143 29.2254 85.6036C28.991 85.4864 28.7469 85.4278 28.493 85.4278C28.2651 85.4278 28.0275 85.4799 27.7801 85.5841H27.7703C27.5099 85.7078 27.3048 85.8933 27.1551 86.1407C27.0118 86.3816 26.9305 86.6615 26.9109 86.9806L26.8914 87.1466H27.0672H29.8015C29.8862 87.1466 29.9545 87.1173 30.0066 87.0587C30.0587 87.0001 30.0815 86.9317 30.075 86.8536ZM34.9578 89.7833C34.9252 89.7638 34.8927 89.741 34.8601 89.7149C34.8341 89.6824 34.8146 89.6531 34.8015 89.627C34.795 89.5945 34.7918 89.5554 34.7918 89.5099C34.7918 89.5099 34.7918 89.5066 34.7918 89.5001C34.7918 89.4871 34.7918 89.4773 34.7918 89.4708C34.7983 89.4578 34.8015 89.4448 34.8015 89.4317C34.8081 89.4122 34.8146 89.3927 34.8211 89.3731L37.3113 83.504C37.3569 83.3998 37.4187 83.3185 37.4969 83.2599C37.5294 83.2338 37.5652 83.2143 37.6043 83.2013C37.6433 83.1882 37.6889 83.1817 37.741 83.1817H37.8387C37.8907 83.1817 37.9363 83.1882 37.9754 83.2013C38.0144 83.2143 38.0502 83.2338 38.0828 83.2599C38.1609 83.3185 38.2228 83.3998 38.2683 83.504L40.7586 89.3731C40.7651 89.3927 40.7716 89.4155 40.7781 89.4415C40.7846 89.461 40.7879 89.4773 40.7879 89.4903C40.7879 89.4968 40.7879 89.5033 40.7879 89.5099C40.7879 89.588 40.7618 89.6563 40.7097 89.7149C40.6577 89.7735 40.5893 89.8028 40.5047 89.8028C40.4396 89.8028 40.381 89.7865 40.3289 89.754C40.2833 89.7214 40.2475 89.6759 40.2215 89.6173L39.5867 88.1036L39.5476 87.9962L39.4402 88.006H36.1394H36.032L35.993 88.1036L35.3582 89.6173C35.3321 89.6759 35.2931 89.7214 35.241 89.754C35.1954 89.7865 35.1401 89.8028 35.075 89.8028C35.0294 89.8028 34.9903 89.7963 34.9578 89.7833ZM37.7898 84.1388C37.7312 84.1388 37.6824 84.1583 37.6433 84.1974C37.6108 84.2299 37.5847 84.269 37.5652 84.3145L36.3347 87.2735L36.2371 87.4981H36.4812H39.0984H39.3426L39.2449 87.2735L38.0144 84.3145C37.9689 84.1974 37.894 84.1388 37.7898 84.1388ZM42.8094 89.8028C42.7312 89.8028 42.6629 89.7735 42.6043 89.7149C42.5457 89.6563 42.5164 89.588 42.5164 89.5099V85.6915V85.5255H42.3601H41.7937C41.7351 85.5255 41.6798 85.5027 41.6277 85.4571C41.5821 85.4115 41.5594 85.3595 41.5594 85.3009C41.5594 85.2813 41.5594 85.2651 41.5594 85.252C41.5659 85.239 41.5724 85.226 41.5789 85.213C41.5854 85.2 41.5919 85.1869 41.5984 85.1739C41.6114 85.1609 41.6212 85.1479 41.6277 85.1349C41.6538 85.1153 41.6798 85.1023 41.7058 85.0958C41.7319 85.0828 41.7612 85.0763 41.7937 85.0763H42.3601H42.5164V84.9102V84.3536C42.5164 84.2625 42.5196 84.1746 42.5262 84.0899C42.5392 84.0053 42.5522 83.9272 42.5652 83.8556C42.5847 83.7774 42.6043 83.7091 42.6238 83.6505C42.6499 83.5854 42.6791 83.5235 42.7117 83.4649C42.8289 83.2501 42.9851 83.0906 43.1805 82.9864C43.3823 82.8823 43.6004 82.8302 43.8347 82.8302C44.1017 82.8302 44.3588 82.8888 44.6062 83.006C44.7104 83.0645 44.7625 83.1329 44.7625 83.211C44.7625 83.2631 44.7397 83.3152 44.6941 83.3673C44.6485 83.4129 44.5997 83.4356 44.5476 83.4356C44.5216 83.4356 44.4923 83.4324 44.4597 83.4259C44.4272 83.4194 44.3946 83.4129 44.3621 83.4063H44.3523H44.3426L44.0789 83.377H44.0691H44.0594C43.7273 83.377 43.4832 83.4584 43.3269 83.6212C43.1772 83.7839 43.1023 84.0379 43.1023 84.3829V84.9102V85.0763H43.2683H44.4793C44.5183 85.0763 44.5476 85.0828 44.5672 85.0958C44.5932 85.1023 44.6193 85.1153 44.6453 85.1349C44.6583 85.1544 44.6681 85.1707 44.6746 85.1837C44.6876 85.1967 44.6941 85.213 44.6941 85.2325C44.7006 85.252 44.7039 85.2748 44.7039 85.3009C44.7039 85.3595 44.6844 85.4148 44.6453 85.4669C44.5997 85.506 44.5444 85.5255 44.4793 85.5255H43.2683H43.1023V85.6915V89.5099C43.1023 89.588 43.0763 89.6563 43.0242 89.7149C42.9591 89.7735 42.8875 89.8028 42.8094 89.8028ZM47.9168 89.295C47.9689 89.282 48.0079 89.2755 48.034 89.2755C48.047 89.2755 48.06 89.2787 48.073 89.2852C48.086 89.2852 48.0958 89.2885 48.1023 89.295C48.1153 89.3015 48.1284 89.308 48.1414 89.3145C48.1544 89.3211 48.1642 89.3308 48.1707 89.3438C48.1902 89.3569 48.2032 89.3699 48.2097 89.3829C48.2163 89.3959 48.2228 89.4122 48.2293 89.4317C48.2358 89.4448 48.239 89.461 48.239 89.4806C48.239 89.5066 48.2325 89.5326 48.2195 89.5587C48.213 89.5847 48.1967 89.6075 48.1707 89.627C48.1512 89.6466 48.1251 89.6661 48.0926 89.6856C47.8582 89.7898 47.6108 89.8419 47.3504 89.8419C47.0509 89.8419 46.8068 89.8028 46.618 89.7247C46.4357 89.6401 46.2989 89.5164 46.2078 89.3536C46.1166 89.1843 46.0711 88.9695 46.0711 88.7091V85.7403V85.5841H45.9148H45.4265C45.3484 85.5841 45.2898 85.5645 45.2508 85.5255C45.2117 85.4864 45.1922 85.4278 45.1922 85.3497C45.1922 85.3302 45.1922 85.3139 45.1922 85.3009C45.1987 85.2813 45.2019 85.2683 45.2019 85.2618C45.2084 85.2488 45.215 85.2358 45.2215 85.2227C45.228 85.2097 45.2312 85.2 45.2312 85.1935C45.2377 85.1869 45.2443 85.1804 45.2508 85.1739C45.2703 85.1544 45.2931 85.1414 45.3191 85.1349C45.3452 85.1218 45.381 85.1153 45.4265 85.1153H45.9148H46.0711V84.9591V84.2657C46.0711 84.1615 46.0971 84.0867 46.1492 84.0411C46.2013 83.989 46.2762 83.963 46.3738 83.963C46.4715 83.963 46.5431 83.989 46.5887 84.0411C46.6342 84.0932 46.657 84.1681 46.657 84.2657V84.9591V85.1153H46.823H47.9168C47.9558 85.1153 47.9851 85.1218 48.0047 85.1349C48.0307 85.1479 48.0535 85.1674 48.073 85.1935C48.0991 85.213 48.1153 85.2358 48.1219 85.2618C48.1349 85.2813 48.1414 85.3106 48.1414 85.3497C48.1414 85.4083 48.1219 85.4636 48.0828 85.5157C48.0372 85.5613 47.9819 85.5841 47.9168 85.5841H46.823H46.657V85.7403V88.631C46.657 88.683 46.6603 88.7319 46.6668 88.7774C46.6733 88.823 46.6798 88.8686 46.6863 88.9142C46.6993 88.9532 46.7124 88.9923 46.7254 89.0313C46.7449 89.0639 46.7677 89.0964 46.7937 89.129C46.8198 89.1615 46.8491 89.1908 46.8816 89.2169C47.0183 89.3211 47.2071 89.3731 47.448 89.3731C47.5913 89.3731 47.7475 89.3471 47.9168 89.295ZM51.5203 89.8419C50.7651 89.8419 50.1791 89.6303 49.7625 89.2071C49.3523 88.7839 49.1472 88.185 49.1472 87.4102C49.1472 86.9871 49.2254 86.5802 49.3816 86.1895C49.5444 85.8119 49.7918 85.5157 50.1238 85.3009C50.4558 85.086 50.8562 84.9786 51.325 84.9786C51.7742 84.9786 52.1648 85.0795 52.4969 85.2813C52.8094 85.4832 53.0535 85.7599 53.2293 86.1114C53.4116 86.463 53.5027 86.8536 53.5027 87.2833C53.5027 87.3614 53.4734 87.4298 53.4148 87.4884C53.3627 87.547 53.2911 87.5763 53.2 87.5763H49.8992H49.7137L49.743 87.752C49.8015 88.2533 49.9936 88.6407 50.3191 88.9142C50.3972 88.9858 50.4851 89.0476 50.5828 89.0997C50.6805 89.1453 50.7814 89.1843 50.8855 89.2169C50.9897 89.2494 51.1004 89.2755 51.2176 89.295C51.3413 89.308 51.4682 89.3145 51.5984 89.3145C51.8719 89.3145 52.116 89.2918 52.3308 89.2462C52.3699 89.2332 52.4057 89.2234 52.4383 89.2169C52.4773 89.2039 52.5131 89.1908 52.5457 89.1778C52.5847 89.1648 52.6206 89.1518 52.6531 89.1388C52.6922 89.1257 52.7312 89.1127 52.7703 89.0997C52.8094 89.0867 52.8452 89.0737 52.8777 89.0606C52.9168 89.0411 52.9526 89.0216 52.9851 89.002H52.9949V88.9923C53.0144 88.9858 53.047 88.9825 53.0926 88.9825C53.1577 88.9825 53.213 89.0053 53.2586 89.0509C53.3041 89.0899 53.3269 89.142 53.3269 89.2071C53.3269 89.2462 53.3139 89.2852 53.2879 89.3243C53.2618 89.3634 53.2163 89.4024 53.1512 89.4415C53.0209 89.5131 52.894 89.575 52.7703 89.627C52.6466 89.6791 52.5262 89.7214 52.409 89.754C52.1746 89.8126 51.8784 89.8419 51.5203 89.8419ZM52.907 86.8536C52.881 86.5606 52.7931 86.3132 52.6433 86.1114C52.4871 85.8836 52.2918 85.7143 52.0574 85.6036C51.823 85.4864 51.5789 85.4278 51.325 85.4278C51.0971 85.4278 50.8595 85.4799 50.6121 85.5841H50.6023C50.3419 85.7078 50.1368 85.8933 49.9871 86.1407C49.8439 86.3816 49.7625 86.6615 49.743 86.9806L49.7234 87.1466H49.8992H52.6336C52.7182 87.1466 52.7866 87.1173 52.8387 87.0587C52.8907 87.0001 52.9135 86.9317 52.907 86.8536ZM55.1531 89.7833C55.1206 89.7638 55.088 89.741 55.0555 89.7149C55.0294 89.6824 55.0066 89.6498 54.9871 89.6173C54.9741 89.5847 54.9676 89.5489 54.9676 89.5099V85.3204C54.9676 85.2813 54.9741 85.2455 54.9871 85.213C55.0066 85.1739 55.0294 85.1414 55.0555 85.1153C55.088 85.0828 55.1206 85.06 55.1531 85.047C55.1857 85.0274 55.2215 85.0177 55.2605 85.0177C55.3387 85.0177 55.407 85.0502 55.4656 85.1153C55.5242 85.1739 55.5535 85.2423 55.5535 85.3204V85.711V86.1895L55.8465 85.8087C56.2631 85.2553 56.7286 84.9786 57.243 84.9786H57.2918C57.3178 84.9786 57.3406 84.9819 57.3601 84.9884C57.3862 84.9884 57.409 84.9949 57.4285 85.0079C57.448 85.0209 57.4676 85.0372 57.4871 85.0567C57.5001 85.0698 57.5099 85.086 57.5164 85.1056C57.5294 85.1186 57.5392 85.1349 57.5457 85.1544C57.5587 85.1674 57.5652 85.1837 57.5652 85.2032C57.5652 85.2227 57.5652 85.2423 57.5652 85.2618C57.5652 85.3009 57.5587 85.3367 57.5457 85.3692C57.5392 85.3953 57.5196 85.4213 57.4871 85.4474C57.4676 85.4669 57.448 85.4832 57.4285 85.4962C57.409 85.5092 57.3862 85.519 57.3601 85.5255C57.3341 85.5255 57.3048 85.5255 57.2722 85.5255H57.2234C57.0541 85.5255 56.8914 85.5483 56.7351 85.5938C56.5854 85.6329 56.4389 85.6915 56.2957 85.7696C56.0157 85.9324 55.7781 86.1602 55.5828 86.4532L55.5535 86.4923V86.5411V89.5099C55.5535 89.588 55.5275 89.6563 55.4754 89.7149C55.4103 89.7735 55.3387 89.8028 55.2605 89.8028C55.2215 89.8028 55.1857 89.7963 55.1531 89.7833ZM61.9012 89.6661C61.8751 89.6336 61.8523 89.601 61.8328 89.5685C61.8198 89.5359 61.8133 89.5001 61.8133 89.461V83.5333C61.8133 83.4552 61.8426 83.3836 61.9012 83.3185C61.9597 83.2664 62.0281 83.2403 62.1062 83.2403H66.0222C66.0613 83.2403 66.0939 83.2468 66.1199 83.2599C66.1525 83.2664 66.1818 83.2859 66.2078 83.3185C66.2403 83.3445 66.2599 83.3738 66.2664 83.4063C66.2794 83.4324 66.2859 83.4649 66.2859 83.504C66.2859 83.5756 66.2631 83.6375 66.2176 83.6895C66.159 83.7416 66.0939 83.7677 66.0222 83.7677H62.6824C62.6043 83.7677 62.5359 83.7937 62.4773 83.8458C62.4252 83.8979 62.3992 83.963 62.3992 84.0411V86.0626V86.2286H62.5652H65.6707C65.7423 86.2286 65.8041 86.2546 65.8562 86.3067C65.9083 86.3588 65.9344 86.4207 65.9344 86.4923C65.9344 86.5118 65.9344 86.5313 65.9344 86.5509C65.9344 86.5639 65.9311 86.5769 65.9246 86.5899C65.9181 86.603 65.9083 86.6192 65.8953 86.6388C65.8888 86.6518 65.879 86.6648 65.866 86.6778C65.8334 86.7039 65.8009 86.7234 65.7683 86.7364C65.7423 86.7494 65.7097 86.756 65.6707 86.756H62.5652H62.3992V86.9122V88.9435C62.3992 89.0216 62.4252 89.0867 62.4773 89.1388C62.5359 89.1908 62.6043 89.2169 62.6824 89.2169H66.0222C66.1004 89.2234 66.1622 89.2527 66.2078 89.3048C66.2599 89.3569 66.2859 89.4187 66.2859 89.4903C66.2859 89.5619 66.2631 89.6238 66.2176 89.6759C66.159 89.7214 66.0939 89.7442 66.0222 89.7442H62.1062C62.0802 89.7442 62.0541 89.7442 62.0281 89.7442C62.0086 89.7377 61.9858 89.728 61.9597 89.7149C61.9402 89.7019 61.9207 89.6856 61.9012 89.6661ZM68.4246 89.8028C68.3465 89.8028 68.2781 89.7735 68.2195 89.7149C68.1609 89.6563 68.1316 89.588 68.1316 89.5099V85.6915V85.5255H67.9754H67.409C67.3504 85.5255 67.295 85.5027 67.243 85.4571C67.1974 85.4115 67.1746 85.3595 67.1746 85.3009C67.1746 85.2813 67.1746 85.2651 67.1746 85.252C67.1811 85.239 67.1876 85.226 67.1941 85.213C67.2006 85.2 67.2071 85.1869 67.2137 85.1739C67.2267 85.1609 67.2364 85.1479 67.243 85.1349C67.269 85.1153 67.295 85.1023 67.3211 85.0958C67.3471 85.0828 67.3764 85.0763 67.409 85.0763H67.9754H68.1316V84.9102V84.3536C68.1316 84.2625 68.1349 84.1746 68.1414 84.0899C68.1544 84.0053 68.1674 83.9272 68.1805 83.8556C68.2 83.7774 68.2195 83.7091 68.239 83.6505C68.2651 83.5854 68.2944 83.5235 68.3269 83.4649C68.4441 83.2501 68.6004 83.0906 68.7957 82.9864C68.9975 82.8823 69.2156 82.8302 69.45 82.8302C69.7169 82.8302 69.9741 82.8888 70.2215 83.006C70.3256 83.0645 70.3777 83.1329 70.3777 83.211C70.3777 83.2631 70.3549 83.3152 70.3094 83.3673C70.2638 83.4129 70.215 83.4356 70.1629 83.4356C70.1368 83.4356 70.1075 83.4324 70.075 83.4259C70.0424 83.4194 70.0099 83.4129 69.9773 83.4063H69.9676H69.9578L69.6941 83.377H69.6844H69.6746C69.3426 83.377 69.0984 83.4584 68.9422 83.6212C68.7924 83.7839 68.7176 84.0379 68.7176 84.3829V84.9102V85.0763H68.8836H71.823H71.9793V84.9102V84.3536C71.9793 84.2299 71.9858 84.116 71.9988 84.0118C72.0183 83.9011 72.0411 83.8002 72.0672 83.7091C72.0997 83.6179 72.1355 83.5365 72.1746 83.4649C72.2918 83.2501 72.448 83.0906 72.6433 82.9864C72.8452 82.8823 73.0633 82.8302 73.2976 82.8302C73.4278 82.8302 73.5581 82.8464 73.6883 82.879C73.825 82.905 73.9519 82.9474 74.0691 83.006C74.1277 83.0385 74.1668 83.0711 74.1863 83.1036C74.2124 83.1362 74.2254 83.172 74.2254 83.211C74.2254 83.2631 74.2026 83.3152 74.157 83.3673C74.1114 83.4129 74.0626 83.4356 74.0105 83.4356C73.9975 83.4356 73.9812 83.4356 73.9617 83.4356C73.9487 83.4291 73.9357 83.4259 73.9226 83.4259C73.9096 83.4259 73.8933 83.4259 73.8738 83.4259C73.8608 83.4194 73.8445 83.4129 73.825 83.4063H73.8152H73.8055L73.5418 83.377H73.532H73.5222C73.1902 83.377 72.9461 83.4584 72.7898 83.6212C72.6401 83.7839 72.5652 84.0379 72.5652 84.3829V84.9102V85.0763H72.7312H73.9422C74.0073 85.0763 74.0594 85.099 74.0984 85.1446C74.144 85.1837 74.1668 85.2358 74.1668 85.3009C74.1668 85.3595 74.1472 85.4148 74.1082 85.4669C74.0626 85.506 74.0073 85.5255 73.9422 85.5255H72.7312H72.5652V85.6915V89.5099C72.5652 89.588 72.5392 89.6563 72.4871 89.7149C72.422 89.7735 72.3504 89.8028 72.2722 89.8028C72.1941 89.8028 72.1258 89.7735 72.0672 89.7149C72.0086 89.6563 71.9793 89.588 71.9793 89.5099V85.6915V85.5255H71.823H68.8836H68.7176V85.6915V89.5099C68.7176 89.588 68.6915 89.6563 68.6394 89.7149C68.5743 89.7735 68.5027 89.8028 68.4246 89.8028ZM77.116 89.8419C76.3608 89.8419 75.7749 89.6303 75.3582 89.2071C74.948 88.7839 74.743 88.185 74.743 87.4102C74.743 86.9871 74.8211 86.5802 74.9773 86.1895C75.1401 85.8119 75.3875 85.5157 75.7195 85.3009C76.0515 85.086 76.4519 84.9786 76.9207 84.9786C77.3699 84.9786 77.7605 85.0795 78.0926 85.2813C78.4051 85.4832 78.6492 85.7599 78.825 86.1114C79.0073 86.463 79.0984 86.8536 79.0984 87.2833C79.0984 87.3614 79.0691 87.4298 79.0105 87.4884C78.9584 87.547 78.8868 87.5763 78.7957 87.5763H75.4949H75.3094L75.3387 87.752C75.3972 88.2533 75.5893 88.6407 75.9148 88.9142C75.993 88.9858 76.0808 89.0476 76.1785 89.0997C76.2762 89.1453 76.3771 89.1843 76.4812 89.2169C76.5854 89.2494 76.6961 89.2755 76.8133 89.295C76.937 89.308 77.0639 89.3145 77.1941 89.3145C77.4676 89.3145 77.7117 89.2918 77.9265 89.2462C77.9656 89.2332 78.0014 89.2234 78.034 89.2169C78.073 89.2039 78.1088 89.1908 78.1414 89.1778C78.1805 89.1648 78.2163 89.1518 78.2488 89.1388C78.2879 89.1257 78.3269 89.1127 78.366 89.0997C78.4051 89.0867 78.4409 89.0737 78.4734 89.0606C78.5125 89.0411 78.5483 89.0216 78.5808 89.002H78.5906V88.9923C78.6101 88.9858 78.6427 88.9825 78.6883 88.9825C78.7534 88.9825 78.8087 89.0053 78.8543 89.0509C78.8999 89.0899 78.9226 89.142 78.9226 89.2071C78.9226 89.2462 78.9096 89.2852 78.8836 89.3243C78.8575 89.3634 78.812 89.4024 78.7469 89.4415C78.6166 89.5131 78.4897 89.575 78.366 89.627C78.2423 89.6791 78.1219 89.7214 78.0047 89.754C77.7703 89.8126 77.4741 89.8419 77.116 89.8419ZM78.5027 86.8536C78.4767 86.5606 78.3888 86.3132 78.239 86.1114C78.0828 85.8836 77.8875 85.7143 77.6531 85.6036C77.4187 85.4864 77.1746 85.4278 76.9207 85.4278C76.6928 85.4278 76.4552 85.4799 76.2078 85.5841H76.198C75.9376 85.7078 75.7325 85.8933 75.5828 86.1407C75.4396 86.3816 75.3582 86.6615 75.3387 86.9806L75.3191 87.1466H75.4949H78.2293C78.3139 87.1466 78.3823 87.1173 78.4344 87.0587C78.4864 87.0001 78.5092 86.9317 78.5027 86.8536ZM81.5008 89.5489C81.1166 89.3536 80.8139 89.0704 80.5926 88.6993C80.3777 88.3217 80.2703 87.892 80.2703 87.4102C80.2703 87.3126 80.2735 87.2149 80.2801 87.1173C80.2866 87.0196 80.2996 86.9285 80.3191 86.8438C80.3387 86.7527 80.3614 86.6648 80.3875 86.5802C80.4135 86.4955 80.4428 86.4142 80.4754 86.336C80.5144 86.2579 80.5568 86.183 80.6023 86.1114C80.8237 85.7468 81.1166 85.4669 81.4812 85.2716C81.8523 85.0763 82.2657 84.9786 82.7215 84.9786C82.7735 84.9786 82.8224 84.9786 82.868 84.9786C82.92 84.9786 82.9689 84.9819 83.0144 84.9884C83.0665 84.9884 83.1153 84.9916 83.1609 84.9981C83.2065 85.0046 83.2488 85.0144 83.2879 85.0274C83.3334 85.0339 83.3758 85.0437 83.4148 85.0567C83.4539 85.0632 83.493 85.073 83.532 85.086C83.7664 85.1642 84.0008 85.2748 84.2351 85.4181C84.3133 85.4767 84.3523 85.5483 84.3523 85.6329C84.3523 85.6915 84.3295 85.7468 84.284 85.7989C84.2384 85.851 84.1896 85.877 84.1375 85.877C84.0984 85.877 84.0496 85.8608 83.991 85.8282C83.9194 85.7892 83.8478 85.7533 83.7762 85.7208C83.7045 85.6882 83.6362 85.6622 83.5711 85.6427C83.5125 85.6166 83.4571 85.5938 83.4051 85.5743C83.3204 85.5483 83.226 85.532 83.1219 85.5255C83.0242 85.5125 82.9168 85.506 82.7996 85.506C82.2071 85.506 81.7351 85.6785 81.3836 86.0235C81.032 86.3686 80.8562 86.8308 80.8562 87.4102C80.8562 87.6967 80.8985 87.9571 80.9832 88.1915C81.0743 88.4259 81.2078 88.6277 81.3836 88.797C81.7351 89.142 82.2071 89.3145 82.7996 89.3145C83.034 89.3145 83.2358 89.2918 83.4051 89.2462C83.5613 89.1941 83.7566 89.1095 83.991 88.9923C84.0496 88.9597 84.0984 88.9435 84.1375 88.9435C84.1896 88.9435 84.2384 88.9695 84.284 89.0216C84.3295 89.0737 84.3523 89.129 84.3523 89.1876C84.3523 89.2722 84.3133 89.3438 84.2351 89.4024C84.0008 89.5457 83.7664 89.6563 83.532 89.7345C83.2976 89.8061 83.0275 89.8419 82.7215 89.8419C82.2853 89.8419 81.8784 89.7442 81.5008 89.5489ZM87.907 89.295C87.9591 89.282 87.9982 89.2755 88.0242 89.2755C88.0372 89.2755 88.0502 89.2787 88.0633 89.2852C88.0763 89.2852 88.086 89.2885 88.0926 89.295C88.1056 89.3015 88.1186 89.308 88.1316 89.3145C88.1446 89.3211 88.1544 89.3308 88.1609 89.3438C88.1805 89.3569 88.1935 89.3699 88.2 89.3829C88.2065 89.3959 88.213 89.4122 88.2195 89.4317C88.226 89.4448 88.2293 89.461 88.2293 89.4806C88.2293 89.5066 88.2228 89.5326 88.2097 89.5587C88.2032 89.5847 88.187 89.6075 88.1609 89.627C88.1414 89.6466 88.1153 89.6661 88.0828 89.6856C87.8484 89.7898 87.601 89.8419 87.3406 89.8419C87.0411 89.8419 86.797 89.8028 86.6082 89.7247C86.4259 89.6401 86.2892 89.5164 86.198 89.3536C86.1069 89.1843 86.0613 88.9695 86.0613 88.7091V85.7403V85.5841H85.9051H85.4168C85.3387 85.5841 85.2801 85.5645 85.241 85.5255C85.2019 85.4864 85.1824 85.4278 85.1824 85.3497C85.1824 85.3302 85.1824 85.3139 85.1824 85.3009C85.1889 85.2813 85.1922 85.2683 85.1922 85.2618C85.1987 85.2488 85.2052 85.2358 85.2117 85.2227C85.2182 85.2097 85.2215 85.2 85.2215 85.1935C85.228 85.1869 85.2345 85.1804 85.241 85.1739C85.2605 85.1544 85.2833 85.1414 85.3094 85.1349C85.3354 85.1218 85.3712 85.1153 85.4168 85.1153H85.9051H86.0613V84.9591V84.2657C86.0613 84.1615 86.0874 84.0867 86.1394 84.0411C86.1915 83.989 86.2664 83.963 86.364 83.963C86.4617 83.963 86.5333 83.989 86.5789 84.0411C86.6245 84.0932 86.6472 84.1681 86.6472 84.2657V84.9591V85.1153H86.8133H87.907C87.9461 85.1153 87.9754 85.1218 87.9949 85.1349C88.0209 85.1479 88.0437 85.1674 88.0633 85.1935C88.0893 85.213 88.1056 85.2358 88.1121 85.2618C88.1251 85.2813 88.1316 85.3106 88.1316 85.3497C88.1316 85.4083 88.1121 85.4636 88.073 85.5157C88.0275 85.5613 87.9721 85.5841 87.907 85.5841H86.8133H86.6472V85.7403V88.631C86.6472 88.683 86.6505 88.7319 86.657 88.7774C86.6635 88.823 86.67 88.8686 86.6765 88.9142C86.6896 88.9532 86.7026 88.9923 86.7156 89.0313C86.7351 89.0639 86.7579 89.0964 86.784 89.129C86.81 89.1615 86.8393 89.1908 86.8719 89.2169C87.0086 89.3211 87.1974 89.3731 87.4383 89.3731C87.5815 89.3731 87.7377 89.3471 87.907 89.295ZM89.2644 89.4317C89.1993 89.3862 89.1668 89.3211 89.1668 89.2364C89.1668 89.1713 89.1928 89.116 89.2449 89.0704C89.284 89.0248 89.336 89.002 89.4012 89.002C89.4402 89.002 89.476 89.0086 89.5086 89.0216C89.6258 89.0737 89.7397 89.1192 89.8504 89.1583C89.961 89.1974 90.0717 89.2299 90.1824 89.256C90.4038 89.308 90.6446 89.3341 90.9051 89.3341C91.2892 89.3341 91.5887 89.2657 91.8035 89.129C92.0249 88.9858 92.1355 88.7709 92.1355 88.4845C92.1355 88.3803 92.1062 88.2892 92.0476 88.211C91.9956 88.1264 91.9174 88.058 91.8133 88.006C91.644 87.9213 91.3608 87.8302 90.9637 87.7325C90.7749 87.6869 90.6023 87.6446 90.4461 87.6056C90.2963 87.56 90.1596 87.5112 90.0359 87.4591C89.9057 87.407 89.7885 87.3484 89.6844 87.2833C89.5867 87.2117 89.5021 87.1303 89.4305 87.0392C89.2807 86.8569 89.2058 86.6323 89.2058 86.3653C89.2058 85.9552 89.3588 85.6231 89.6648 85.3692C89.9708 85.1088 90.4038 84.9786 90.9637 84.9786C91.465 84.9786 91.9174 85.0535 92.3211 85.2032L92.3308 85.213C92.3569 85.2195 92.3764 85.226 92.3894 85.2325C92.4025 85.239 92.4155 85.2488 92.4285 85.2618C92.4415 85.2748 92.4545 85.2879 92.4676 85.3009C92.4936 85.3399 92.5066 85.3855 92.5066 85.4376C92.5066 85.4701 92.5001 85.4994 92.4871 85.5255C92.4806 85.5515 92.4643 85.5776 92.4383 85.6036C92.3927 85.6492 92.3406 85.672 92.282 85.672L92.1844 85.6622C91.7742 85.545 91.3901 85.4864 91.032 85.4864C90.6609 85.4864 90.3614 85.5548 90.1336 85.6915C89.8797 85.8477 89.7527 86.0561 89.7527 86.3165C89.7527 86.5704 89.8699 86.7592 90.1043 86.8829H90.114C90.3159 86.974 90.6088 87.0652 90.993 87.1563C91.1622 87.2019 91.325 87.2475 91.4812 87.2931C91.6375 87.3386 91.7807 87.3842 91.9109 87.4298C92.1518 87.5274 92.3439 87.6707 92.4871 87.8595C92.6303 88.0418 92.7019 88.2729 92.7019 88.5528C92.7019 88.9239 92.5522 89.2299 92.2527 89.4708C91.9402 89.7182 91.5105 89.8419 90.9637 89.8419C90.3517 89.8419 89.7853 89.7052 89.2644 89.4317Z" fill="#4D4945"/>
<defs>
<filter id="filter0_bdii" x="-19.2308" y="-31.5995" width="137.017" height="135" filterUnits="userSpaceOnUse" color-interpolation-filters="sRGB">
<feFlood flood-opacity="0" result="BackgroundImageFix"/>
<feGaussianBlur in="BackgroundImage" stdDeviation="25"/>
<feComposite in2="SourceAlpha" operator="in" result="effect1_backgroundBlur"/>
<feColorMatrix in="SourceAlpha" type="matrix" values="0 0 0 0 0 0 0 0 0 0 0 0 0 0 0 0 0 0 127 0"/>
<feOffset/>
<feGaussianBlur stdDeviation="5"/>
<feColorMatrix type="matrix" values="0 0 0 0 0 0 0 0 0 0 0 0 0 0 0 0 0 0 0.25 0"/>
<feBlend mode="normal" in2="effect1_backgroundBlur" result="effect2_dropShadow"/>
<feBlend mode="normal" in="SourceGraphic" in2="effect2_dropShadow" result="shape"/>
<feColorMatrix in="SourceAlpha" type="matrix" values="0 0 0 0 0 0 0 0 0 0 0 0 0 0 0 0 0 0 127 0" result="hardAlpha"/>
<feOffset dx="4" dy="4"/>
<feGaussianBlur stdDeviation="5"/>
<feComposite in2="hardAlpha" operator="arithmetic" k2="-1" k3="1"/>
<feColorMatrix type="matrix" values="0 0 0 0 0 0 0 0 0 0 0 0 0 0 0 0 0 0 0.15 0"/>
<feBlend mode="normal" in2="shape" result="effect3_innerShadow"/>
<feColorMatrix in="SourceAlpha" type="matrix" values="0 0 0 0 0 0 0 0 0 0 0 0 0 0 0 0 0 0 127 0" result="hardAlpha"/>
<feOffset dx="-4" dy="-4"/>
<feGaussianBlur stdDeviation="5"/>
<feComposite in2="hardAlpha" operator="arithmetic" k2="-1" k3="1"/>
<feColorMatrix type="matrix" values="0 0 0 0 1 0 0 0 0 1 0 0 0 0 1 0 0 0 0.4 0"/>
<feBlend mode="normal" in2="effect3_innerShadow" result="effect4_innerShadow"/>
</filter>
<linearGradient id="paint0_linear" x1="20.8979" y1="10.2338" x2="72.4559" y2="70.2778" gradientUnits="userSpaceOnUse">
<stop stop-color="#6699FF"/>
<stop offset="1" stop-color="#FF3366"/>
</linearGradient>
<linearGradient id="paint1_linear" x1="35.7048" y1="24.2338" x2="58.7904" y2="47.4039" gradientUnits="userSpaceOnUse">
<stop stop-color="#9999FF"/>
<stop offset="1" stop-color="#00005B"/>
</linearGradient>
</defs>
</svg>
