<svg width="75" height="91" viewBox="0 0 75 91" fill="none" xmlns="http://www.w3.org/2000/svg">
<path fill-rule="evenodd" clip-rule="evenodd" d="M53.7736 19.3932C49.9309 15.5506 44.8685 13.1683 39.4582 12.6569C34.048 12.1455 28.6288 13.5369 24.1342 16.5915C19.6396 19.646 16.3509 24.1725 14.8348 29.391C13.3186 34.6096 13.67 40.1935 15.8282 45.1809C17.9864 50.1683 21.8165 54.2469 26.6585 56.714C31.5005 59.1811 37.0514 59.8824 42.3548 58.6969C47.6583 57.5114 52.3823 54.5135 55.713 50.2195C59.0417 45.9282 60.7705 40.6111 60.6023 35.1829C60.6022 35.1796 60.6021 35.1762 60.602 35.1728L72.2433 34.8069C72.305 36.7716 72.2009 38.7267 71.9373 40.6528C71.1085 46.7073 68.7031 52.4757 64.916 57.358C59.924 63.7936 52.844 68.2867 44.8955 70.0634C36.9471 71.8401 28.6278 70.7891 21.3709 67.0915C14.1139 63.3939 8.37374 57.2813 5.13912 49.8065C1.90449 42.3317 1.37797 33.9629 3.65025 26.1416C5.92253 18.3204 10.8513 11.5365 17.5876 6.95849C24.3239 2.38052 32.4458 0.295158 40.5543 1.06164C46.7059 1.64313 52.5575 3.83839 57.5384 7.37888C59.1229 8.50518 60.6193 9.76763 62.0093 11.1576L53.7736 19.3932Z" fill="url(#paint0_linear)"/>
<g filter="url(#filter0_bdii)">
<path d="M54.7605 35.9063C54.7605 45.5713 46.9255 53.4063 37.2605 53.4063C27.5956 53.4063 19.7605 45.5713 19.7605 35.9063C19.7605 26.2413 27.5956 18.4063 37.2605 18.4063C46.9255 18.4063 54.7605 26.2413 54.7605 35.9063Z" fill="white"/>
</g>
<path d="M18.5939 17.7075V54.104H55.9272V17.7075H18.5939ZM18.5939 17.7075H55.9272V54.104H18.5939V17.7075ZM28.9539 38.7075L27.751 43.1606C27.7265 43.282 27.6775 43.3741 27.5259 43.3741H25.2964C25.1435 43.3741 25.119 43.3263 25.1435 43.149L29.4509 28.1538C29.5617 27.7338 29.6095 27.3091 29.6037 26.8763C29.6037 26.7795 29.6515 26.7316 29.725 26.7316H32.9089C33.0069 26.7316 33.0617 26.755 33.085 26.8763L37.9162 43.1735C37.9407 43.3006 37.9162 43.3741 37.7949 43.3741H35.2842C35.2314 43.3739 35.1805 43.3549 35.1405 43.3204C35.1005 43.286 35.0741 43.2384 35.066 43.1863L33.8072 38.7075H28.9539ZM33.183 36.2155C32.7572 34.539 31.755 30.8815 31.3852 29.107H31.3537C31.0317 30.8815 30.229 33.8658 29.6037 36.2155H33.183ZM48.7685 40.9265C48.7685 41.0956 48.793 41.6253 48.8479 42.4758C48.8479 42.5726 48.835 42.6263 48.7394 42.652C47.2551 43.2828 45.6661 43.631 44.054 43.6786C41.7755 43.6786 39.5939 42.8048 39.5939 39.2978V31.2816C39.5939 31.1603 39.6417 31.081 39.77 31.081H42.22C42.3472 31.081 42.3962 31.1603 42.3962 31.2816V38.9688C42.3962 40.4446 43.0402 41.2473 44.5954 41.2473C45.118 41.2531 45.6407 41.1551 46.126 40.9731V31.2805C46.126 31.1591 46.1739 31.0798 46.3022 31.0798H48.5935C48.7464 31.0798 48.7697 31.1591 48.7697 31.2805L48.7685 40.9265Z" fill="url(#paint1_linear)"/>
<path d="M1.07108 89.7891C1.03852 89.7696 1.00597 89.7468 0.973419 89.7207C0.947378 89.6882 0.927846 89.6589 0.914825 89.6329C0.908315 89.6003 0.90506 89.5612 0.90506 89.5157C0.90506 89.5157 0.90506 89.5124 0.90506 89.5059C0.90506 89.4929 0.90506 89.4831 0.90506 89.4766C0.91157 89.4636 0.914825 89.4506 0.914825 89.4375C0.921336 89.418 0.927846 89.3985 0.934357 89.379L3.42459 83.5098C3.47016 83.4056 3.53201 83.3243 3.61014 83.2657C3.64269 83.2396 3.6785 83.2201 3.71756 83.2071C3.75662 83.1941 3.8022 83.1875 3.85428 83.1875H3.95193C4.00402 83.1875 4.04959 83.1941 4.08865 83.2071C4.12772 83.2201 4.16352 83.2396 4.19608 83.2657C4.2742 83.3243 4.33605 83.4056 4.38162 83.5098L6.87186 89.379C6.87837 89.3985 6.88488 89.4213 6.89139 89.4473C6.8979 89.4668 6.90115 89.4831 6.90115 89.4961C6.90115 89.5026 6.90115 89.5092 6.90115 89.5157C6.90115 89.5938 6.87511 89.6622 6.82303 89.7207C6.77095 89.7793 6.70259 89.8086 6.61795 89.8086C6.55285 89.8086 6.49425 89.7924 6.44217 89.7598C6.3966 89.7273 6.36079 89.6817 6.33475 89.6231L5.69998 88.1094L5.66092 88.002L5.5535 88.0118H2.25272H2.14529L2.10623 88.1094L1.47147 89.6231C1.44542 89.6817 1.40636 89.7273 1.35428 89.7598C1.30871 89.7924 1.25337 89.8086 1.18826 89.8086C1.14269 89.8086 1.10363 89.8021 1.07108 89.7891ZM3.90311 84.1446C3.84451 84.1446 3.79568 84.1641 3.75662 84.2032C3.72407 84.2357 3.69803 84.2748 3.6785 84.3204L2.44803 87.2793L2.35037 87.504H2.59451H5.2117H5.45584L5.35818 87.2793L4.12772 84.3204C4.08214 84.2032 4.00727 84.1446 3.90311 84.1446ZM9.19608 89.5645C8.84451 89.3692 8.56457 89.086 8.35623 88.7149C8.25207 88.5261 8.17394 88.3243 8.12186 88.1094C8.07628 87.8946 8.0535 87.6635 8.0535 87.4161C8.0535 87.3444 8.0535 87.2761 8.0535 87.211C8.06001 87.1394 8.06652 87.071 8.07303 87.0059C8.08605 86.9343 8.09907 86.8692 8.11209 86.8106C8.12511 86.7455 8.13813 86.6836 8.15115 86.625C8.17068 86.5599 8.19022 86.4981 8.20975 86.4395C8.23579 86.3809 8.26183 86.3256 8.28787 86.2735C8.31391 86.2149 8.33996 86.1596 8.366 86.1075C8.47016 85.9252 8.59061 85.7657 8.72733 85.629C8.86404 85.4857 9.01378 85.3653 9.17654 85.2676C9.50858 85.0788 9.8699 84.9844 10.2605 84.9844C10.853 84.9844 11.3673 85.209 11.8035 85.6582L12.0769 85.9512V85.5508V83.1778C12.0769 83.0931 12.1062 83.0215 12.1648 82.9629C12.2299 82.9043 12.3015 82.875 12.3797 82.875C12.4578 82.875 12.5262 82.9043 12.5847 82.9629C12.6368 83.028 12.6629 83.0997 12.6629 83.1778V89.5157C12.6629 89.5287 12.6629 89.5417 12.6629 89.5547C12.6629 89.5678 12.6596 89.5808 12.6531 89.5938C12.6531 89.6068 12.6499 89.6198 12.6433 89.6329C12.6433 89.6394 12.6401 89.6491 12.6336 89.6622C12.6271 89.6687 12.6173 89.6784 12.6043 89.6915C12.5978 89.698 12.5913 89.7077 12.5847 89.7207C12.5522 89.7468 12.5196 89.7696 12.4871 89.7891C12.4545 89.8021 12.4187 89.8086 12.3797 89.8086C12.3406 89.8086 12.3015 89.8021 12.2625 89.7891C12.2299 89.7696 12.1974 89.7468 12.1648 89.7207C12.1388 89.6882 12.116 89.6556 12.0965 89.6231C12.0834 89.5905 12.0769 89.5547 12.0769 89.5157V89.2813V88.8809L11.8035 89.1739C11.3673 89.6231 10.853 89.8477 10.2605 89.8477C9.88943 89.8477 9.53462 89.7533 9.19608 89.5645ZM11.2859 89.1153C11.5659 88.9721 11.8165 88.7832 12.0379 88.5489L12.0769 88.5098V88.4415V86.3907V86.3223L12.0379 86.2832C11.8165 86.0489 11.5659 85.8601 11.2859 85.7168C10.9995 85.5801 10.7 85.5118 10.3875 85.5118C9.84712 85.5118 9.41743 85.681 9.09842 86.0196C8.79243 86.3646 8.63943 86.8301 8.63943 87.4161C8.63943 88.002 8.79243 88.4675 9.09842 88.8125C9.41743 89.1511 9.84712 89.3204 10.3875 89.3204C10.7 89.3204 10.9995 89.252 11.2859 89.1153ZM15.3191 89.5547C15.1433 89.4506 14.9871 89.3269 14.8504 89.1836C14.7202 89.0404 14.6062 88.8744 14.5086 88.6856C14.3133 88.3145 14.2156 87.8913 14.2156 87.4161C14.2156 87.2533 14.2254 87.0971 14.2449 86.9473C14.2644 86.7976 14.297 86.6576 14.3426 86.5274C14.3881 86.3907 14.4435 86.2605 14.5086 86.1368C14.6974 85.7657 14.9708 85.4792 15.3289 85.2774C15.6805 85.0821 16.0906 84.9844 16.5594 84.9844C17.0281 84.9844 17.4383 85.0821 17.7898 85.2774C17.9656 85.3816 18.1219 85.5053 18.2586 85.6485C18.3953 85.7917 18.5125 85.9577 18.6101 86.1465C18.7078 86.3288 18.7794 86.5274 18.825 86.7422C18.8771 86.9506 18.9031 87.1752 18.9031 87.4161C18.9031 87.8978 18.8055 88.321 18.6101 88.6856C18.4148 89.0632 18.1381 89.3529 17.7801 89.5547C17.4285 89.75 17.0216 89.8477 16.5594 89.8477C16.0841 89.8477 15.6707 89.75 15.3191 89.5547ZM17.3992 89.1446C17.6857 88.9948 17.9103 88.7702 18.073 88.4707C18.2358 88.1778 18.3172 87.823 18.3172 87.4063C18.3172 87.3477 18.3139 87.2891 18.3074 87.2305C18.3074 87.1719 18.3041 87.1133 18.2976 87.0547C18.2911 86.9961 18.2814 86.9408 18.2683 86.8887C18.2618 86.8366 18.2521 86.7878 18.239 86.7422C18.226 86.6901 18.2097 86.6413 18.1902 86.5957C18.1772 86.5437 18.1577 86.4981 18.1316 86.459C18.1121 86.4135 18.0893 86.3711 18.0633 86.3321C17.907 86.0586 17.6954 85.8503 17.4285 85.7071C17.3439 85.655 17.2527 85.6127 17.1551 85.5801C17.0639 85.5476 16.9663 85.5248 16.8621 85.5118C16.7644 85.4987 16.6635 85.4922 16.5594 85.4922C16.2664 85.4922 15.9864 85.5541 15.7195 85.6778C15.4331 85.8275 15.2084 86.0489 15.0457 86.3418C14.8829 86.6348 14.8015 86.9896 14.8015 87.4063C14.8015 87.6276 14.8211 87.8295 14.8601 88.0118C14.9057 88.1941 14.9708 88.3536 15.0555 88.4903C15.2117 88.7702 15.4233 88.9818 15.6902 89.125C15.7749 89.1771 15.8627 89.2194 15.9539 89.252C16.0515 89.2846 16.1492 89.3073 16.2469 89.3204C16.351 89.3334 16.4552 89.3399 16.5594 89.3399C16.657 89.3399 16.7514 89.3334 16.8426 89.3204C16.9402 89.3073 17.0346 89.2878 17.1258 89.2618C17.2234 89.2292 17.3146 89.1901 17.3992 89.1446ZM21.032 89.2813V89.5157C21.032 89.5938 21.006 89.6622 20.9539 89.7207C20.8888 89.7793 20.8172 89.8086 20.739 89.8086C20.7 89.8086 20.6642 89.8021 20.6316 89.7891C20.5991 89.7696 20.5665 89.7468 20.534 89.7207C20.5079 89.6882 20.4851 89.6556 20.4656 89.6231C20.4526 89.5905 20.4461 89.5547 20.4461 89.5157V83.1778C20.4461 83.0997 20.4754 83.028 20.534 82.9629C20.5926 82.9043 20.6609 82.875 20.739 82.875C20.7716 82.875 20.7976 82.8783 20.8172 82.8848C20.8432 82.8913 20.866 82.9011 20.8855 82.9141C20.9116 82.9271 20.9344 82.9434 20.9539 82.9629C20.9734 82.9825 20.9897 83.0053 21.0027 83.0313C21.0157 83.0508 21.0222 83.0736 21.0222 83.0997C21.0288 83.1192 21.032 83.1452 21.032 83.1778V85.5508V85.9512L21.3152 85.6582C21.7514 85.209 22.2657 84.9844 22.8582 84.9844C23.2553 84.9844 23.6134 85.0756 23.9324 85.2579C24.284 85.4532 24.5607 85.7396 24.7625 86.1172C24.9708 86.4948 25.075 86.9278 25.075 87.4161C25.075 87.9239 24.9708 88.3568 24.7625 88.7149C24.5541 89.0795 24.2807 89.3594 23.9422 89.5547C23.6101 89.75 23.2488 89.8477 22.8582 89.8477C22.2657 89.8477 21.7514 89.6231 21.3152 89.1739L21.032 88.8809V89.2813ZM24.0203 88.8125C24.3328 88.4675 24.489 88.002 24.489 87.4161C24.489 87.1231 24.45 86.8627 24.3719 86.6348C24.2937 86.4004 24.1765 86.1954 24.0203 86.0196C23.7013 85.681 23.2716 85.5118 22.7312 85.5118C22.6661 85.5118 22.6043 85.515 22.5457 85.5215C22.4871 85.5215 22.4252 85.528 22.3601 85.5411C22.3015 85.5541 22.243 85.5704 22.1844 85.5899C22.1258 85.6029 22.0672 85.6224 22.0086 85.6485C21.95 85.668 21.8914 85.6908 21.8328 85.7168C21.6961 85.7885 21.5626 85.8731 21.4324 85.9707C21.3087 86.0619 21.1915 86.1661 21.0808 86.2832L21.032 86.3223V86.3907V88.4415V88.5098L21.0808 88.5489C21.3022 88.7832 21.5528 88.9721 21.8328 89.1153C22.1193 89.252 22.4187 89.3204 22.7312 89.3204C23.2716 89.3204 23.7013 89.1511 24.0203 88.8125ZM28.6883 89.8477C27.9331 89.8477 27.3471 89.6361 26.9305 89.2129C26.5203 88.7898 26.3152 88.1908 26.3152 87.4161C26.3152 86.9929 26.3933 86.586 26.5496 86.1954C26.7124 85.8178 26.9597 85.5215 27.2918 85.3067C27.6238 85.0918 28.0242 84.9844 28.493 84.9844C28.9422 84.9844 29.3328 85.0853 29.6648 85.2872C29.9773 85.489 30.2215 85.7657 30.3972 86.1172C30.5795 86.4688 30.6707 86.8594 30.6707 87.2891C30.6707 87.3672 30.6414 87.4356 30.5828 87.4942C30.5307 87.5528 30.4591 87.5821 30.368 87.5821H27.0672H26.8816L26.9109 87.7579C26.9695 88.2592 27.1616 88.6465 27.4871 88.92C27.5652 88.9916 27.6531 89.0534 27.7508 89.1055C27.8484 89.1511 27.9493 89.1901 28.0535 89.2227C28.1577 89.2553 28.2683 89.2813 28.3855 89.3008C28.5092 89.3138 28.6362 89.3204 28.7664 89.3204C29.0398 89.3204 29.284 89.2976 29.4988 89.252C29.5379 89.239 29.5737 89.2292 29.6062 89.2227C29.6453 89.2097 29.6811 89.1967 29.7137 89.1836C29.7527 89.1706 29.7885 89.1576 29.8211 89.1446C29.8601 89.1316 29.8992 89.1185 29.9383 89.1055C29.9773 89.0925 30.0131 89.0795 30.0457 89.0665C30.0847 89.0469 30.1206 89.0274 30.1531 89.0079H30.1629V88.9981C30.1824 88.9916 30.215 88.9883 30.2605 88.9883C30.3256 88.9883 30.381 89.0111 30.4265 89.0567C30.4721 89.0957 30.4949 89.1478 30.4949 89.2129C30.4949 89.252 30.4819 89.2911 30.4558 89.3301C30.4298 89.3692 30.3842 89.4082 30.3191 89.4473C30.1889 89.5189 30.062 89.5808 29.9383 89.6329C29.8146 89.6849 29.6941 89.7273 29.5769 89.7598C29.3426 89.8184 29.0463 89.8477 28.6883 89.8477ZM30.075 86.8594C30.0489 86.5665 29.961 86.3191 29.8113 86.1172C29.6551 85.8894 29.4597 85.7201 29.2254 85.6094C28.991 85.4922 28.7469 85.4336 28.493 85.4336C28.2651 85.4336 28.0275 85.4857 27.7801 85.5899H27.7703C27.5099 85.7136 27.3048 85.8991 27.1551 86.1465C27.0118 86.3874 26.9305 86.6674 26.9109 86.9864L26.8914 87.1524H27.0672H29.8015C29.8862 87.1524 29.9545 87.1231 30.0066 87.0645C30.0587 87.0059 30.0815 86.9375 30.075 86.8594ZM34.9578 89.7891C34.9252 89.7696 34.8927 89.7468 34.8601 89.7207C34.8341 89.6882 34.8146 89.6589 34.8015 89.6329C34.795 89.6003 34.7918 89.5612 34.7918 89.5157C34.7918 89.5157 34.7918 89.5124 34.7918 89.5059C34.7918 89.4929 34.7918 89.4831 34.7918 89.4766C34.7983 89.4636 34.8015 89.4506 34.8015 89.4375C34.8081 89.418 34.8146 89.3985 34.8211 89.379L37.3113 83.5098C37.3569 83.4056 37.4187 83.3243 37.4969 83.2657C37.5294 83.2396 37.5652 83.2201 37.6043 83.2071C37.6433 83.1941 37.6889 83.1875 37.741 83.1875H37.8387C37.8907 83.1875 37.9363 83.1941 37.9754 83.2071C38.0144 83.2201 38.0502 83.2396 38.0828 83.2657C38.1609 83.3243 38.2228 83.4056 38.2683 83.5098L40.7586 89.379C40.7651 89.3985 40.7716 89.4213 40.7781 89.4473C40.7846 89.4668 40.7879 89.4831 40.7879 89.4961C40.7879 89.5026 40.7879 89.5092 40.7879 89.5157C40.7879 89.5938 40.7618 89.6622 40.7097 89.7207C40.6577 89.7793 40.5893 89.8086 40.5047 89.8086C40.4396 89.8086 40.381 89.7924 40.3289 89.7598C40.2833 89.7273 40.2475 89.6817 40.2215 89.6231L39.5867 88.1094L39.5476 88.002L39.4402 88.0118H36.1394H36.032L35.993 88.1094L35.3582 89.6231C35.3321 89.6817 35.2931 89.7273 35.241 89.7598C35.1954 89.7924 35.1401 89.8086 35.075 89.8086C35.0294 89.8086 34.9903 89.8021 34.9578 89.7891ZM37.7898 84.1446C37.7312 84.1446 37.6824 84.1641 37.6433 84.2032C37.6108 84.2357 37.5847 84.2748 37.5652 84.3204L36.3347 87.2793L36.2371 87.504H36.4812H39.0984H39.3426L39.2449 87.2793L38.0144 84.3204C37.9689 84.2032 37.894 84.1446 37.7898 84.1446ZM42.9168 89.6231C42.6824 89.4734 42.5001 89.265 42.3699 88.9981C42.2397 88.7247 42.1746 88.4219 42.1746 88.0899V85.3165C42.1746 85.2383 42.2006 85.17 42.2527 85.1114C42.3178 85.0528 42.3894 85.0235 42.4676 85.0235C42.5457 85.0235 42.614 85.0528 42.6726 85.1114C42.7312 85.17 42.7605 85.2383 42.7605 85.3165V87.9922C42.7605 88.4219 42.8647 88.754 43.073 88.9883C43.2814 89.2227 43.5841 89.3399 43.9812 89.3399C44.3263 89.3399 44.6355 89.252 44.909 89.0762C45.0457 88.9916 45.1791 88.8907 45.3094 88.7735C45.4396 88.6498 45.5698 88.5066 45.7 88.3438L45.7293 88.3047V88.2461V85.3165C45.7293 85.2383 45.7586 85.17 45.8172 85.1114C45.8823 85.0528 45.9539 85.0235 46.032 85.0235C46.0515 85.0235 46.0711 85.0267 46.0906 85.0332C46.1101 85.0332 46.1264 85.0398 46.1394 85.0528C46.159 85.0593 46.1752 85.0691 46.1883 85.0821C46.2078 85.0886 46.2241 85.0984 46.2371 85.1114C46.2892 85.17 46.3152 85.2383 46.3152 85.3165V89.5059C46.3152 89.584 46.2892 89.6556 46.2371 89.7207C46.1785 89.7793 46.1101 89.8086 46.032 89.8086C45.993 89.8086 45.9571 89.8021 45.9246 89.7891C45.892 89.7696 45.8595 89.7435 45.8269 89.711C45.8009 89.6915 45.7814 89.6719 45.7683 89.6524C45.7553 89.6263 45.7456 89.6036 45.739 89.584C45.7325 89.558 45.7293 89.5319 45.7293 89.5059V89.1348V88.7247L45.4558 89.0274C45.2019 89.3008 44.9383 89.5059 44.6648 89.6426C44.4044 89.7793 44.1049 89.8477 43.7664 89.8477C43.4474 89.8477 43.1642 89.7728 42.9168 89.6231ZM49.0105 89.5645C48.659 89.3692 48.379 89.086 48.1707 88.7149C48.0665 88.5261 47.9884 88.3243 47.9363 88.1094C47.8907 87.8946 47.868 87.6635 47.868 87.4161C47.868 87.3444 47.868 87.2761 47.868 87.211C47.8745 87.1394 47.881 87.071 47.8875 87.0059C47.9005 86.9343 47.9135 86.8692 47.9265 86.8106C47.9396 86.7455 47.9526 86.6836 47.9656 86.625C47.9851 86.5599 48.0047 86.4981 48.0242 86.4395C48.0502 86.3809 48.0763 86.3256 48.1023 86.2735C48.1284 86.2149 48.1544 86.1596 48.1805 86.1075C48.2846 85.9252 48.4051 85.7657 48.5418 85.629C48.6785 85.4857 48.8282 85.3653 48.991 85.2676C49.323 85.0788 49.6844 84.9844 50.075 84.9844C50.6674 84.9844 51.1818 85.209 51.618 85.6582L51.8914 85.9512V85.5508V83.1778C51.8914 83.0931 51.9207 83.0215 51.9793 82.9629C52.0444 82.9043 52.116 82.875 52.1941 82.875C52.2722 82.875 52.3406 82.9043 52.3992 82.9629C52.4513 83.028 52.4773 83.0997 52.4773 83.1778V89.5157C52.4773 89.5287 52.4773 89.5417 52.4773 89.5547C52.4773 89.5678 52.4741 89.5808 52.4676 89.5938C52.4676 89.6068 52.4643 89.6198 52.4578 89.6329C52.4578 89.6394 52.4545 89.6491 52.448 89.6622C52.4415 89.6687 52.4318 89.6784 52.4187 89.6915C52.4122 89.698 52.4057 89.7077 52.3992 89.7207C52.3666 89.7468 52.3341 89.7696 52.3015 89.7891C52.269 89.8021 52.2332 89.8086 52.1941 89.8086C52.1551 89.8086 52.116 89.8021 52.0769 89.7891C52.0444 89.7696 52.0118 89.7468 51.9793 89.7207C51.9532 89.6882 51.9305 89.6556 51.9109 89.6231C51.8979 89.5905 51.8914 89.5547 51.8914 89.5157V89.2813V88.8809L51.618 89.1739C51.1818 89.6231 50.6674 89.8477 50.075 89.8477C49.7039 89.8477 49.3491 89.7533 49.0105 89.5645ZM51.1004 89.1153C51.3803 88.9721 51.631 88.7832 51.8523 88.5489L51.8914 88.5098V88.4415V86.3907V86.3223L51.8523 86.2832C51.631 86.0489 51.3803 85.8601 51.1004 85.7168C50.8139 85.5801 50.5144 85.5118 50.2019 85.5118C49.6616 85.5118 49.2319 85.681 48.9129 86.0196C48.6069 86.3646 48.4539 86.8301 48.4539 87.4161C48.4539 88.002 48.6069 88.4675 48.9129 88.8125C49.2319 89.1511 49.6616 89.3204 50.2019 89.3204C50.5144 89.3204 50.8139 89.252 51.1004 89.1153ZM54.3523 83.6563C54.3198 83.6172 54.2937 83.5782 54.2742 83.5391C54.2547 83.5 54.2449 83.4577 54.2449 83.4122V83.3731C54.2449 83.2819 54.2807 83.2038 54.3523 83.1387C54.4239 83.0671 54.5053 83.0313 54.5965 83.0313H54.6551C54.6746 83.0313 54.6909 83.0313 54.7039 83.0313C54.7234 83.0313 54.7397 83.0346 54.7527 83.0411C54.7722 83.0476 54.7885 83.0541 54.8015 83.0606C54.8211 83.0671 54.8374 83.0769 54.8504 83.0899C54.8699 83.1029 54.8862 83.1159 54.8992 83.129C54.9187 83.1485 54.935 83.168 54.948 83.1875C54.961 83.2071 54.9708 83.2266 54.9773 83.2461C54.9838 83.2657 54.9903 83.2852 54.9969 83.3047C55.0034 83.3243 55.0066 83.3471 55.0066 83.3731V83.4122C55.0066 83.4252 55.0034 83.4415 54.9969 83.461C54.9969 83.474 54.9936 83.487 54.9871 83.5C54.9871 83.5131 54.9838 83.5261 54.9773 83.5391C54.9708 83.5521 54.9643 83.5651 54.9578 83.5782C54.9513 83.5912 54.9415 83.6042 54.9285 83.6172C54.922 83.6303 54.9122 83.6433 54.8992 83.6563C54.8797 83.6758 54.8601 83.6921 54.8406 83.7051C54.8211 83.7181 54.8015 83.7279 54.782 83.7344C54.7625 83.7409 54.743 83.7474 54.7234 83.754C54.7039 83.754 54.6811 83.754 54.6551 83.754H54.5965C54.5704 83.754 54.5476 83.754 54.5281 83.754C54.5086 83.7474 54.489 83.7409 54.4695 83.7344C54.45 83.7279 54.4305 83.7181 54.4109 83.7051C54.3914 83.6921 54.3719 83.6758 54.3523 83.6563ZM54.5086 89.7891C54.476 89.7696 54.4435 89.7468 54.4109 89.7207C54.3849 89.6882 54.3621 89.6556 54.3426 89.6231C54.3295 89.5905 54.323 89.5547 54.323 89.5157V85.3262C54.323 85.2872 54.3295 85.2513 54.3426 85.2188C54.3621 85.1797 54.3849 85.1472 54.4109 85.1211C54.4435 85.0886 54.476 85.0658 54.5086 85.0528C54.5411 85.0332 54.5769 85.0235 54.616 85.0235C54.7006 85.0235 54.769 85.0528 54.8211 85.1114C54.8797 85.17 54.909 85.2416 54.909 85.3262V89.5157C54.909 89.5938 54.8829 89.6622 54.8308 89.7207C54.7657 89.7793 54.6941 89.8086 54.616 89.8086C54.5769 89.8086 54.5411 89.8021 54.5086 89.7891ZM58.8933 89.3008C58.9454 89.2878 58.9845 89.2813 59.0105 89.2813C59.0235 89.2813 59.0366 89.2846 59.0496 89.2911C59.0626 89.2911 59.0724 89.2943 59.0789 89.3008C59.0919 89.3073 59.1049 89.3138 59.118 89.3204C59.131 89.3269 59.1407 89.3366 59.1472 89.3497C59.1668 89.3627 59.1798 89.3757 59.1863 89.3887C59.1928 89.4017 59.1993 89.418 59.2058 89.4375C59.2124 89.4506 59.2156 89.4668 59.2156 89.4864C59.2156 89.5124 59.2091 89.5385 59.1961 89.5645C59.1896 89.5905 59.1733 89.6133 59.1472 89.6329C59.1277 89.6524 59.1017 89.6719 59.0691 89.6915C58.8347 89.7956 58.5874 89.8477 58.3269 89.8477C58.0275 89.8477 57.7833 89.8086 57.5945 89.7305C57.4122 89.6459 57.2755 89.5222 57.1844 89.3594C57.0932 89.1901 57.0476 88.9753 57.0476 88.7149V85.7461V85.5899H56.8914H56.4031C56.325 85.5899 56.2664 85.5704 56.2273 85.5313C56.1883 85.4922 56.1687 85.4336 56.1687 85.3555C56.1687 85.336 56.1687 85.3197 56.1687 85.3067C56.1752 85.2872 56.1785 85.2741 56.1785 85.2676C56.185 85.2546 56.1915 85.2416 56.198 85.2286C56.2045 85.2155 56.2078 85.2058 56.2078 85.1993C56.2143 85.1928 56.2208 85.1862 56.2273 85.1797C56.2469 85.1602 56.2696 85.1472 56.2957 85.1407C56.3217 85.1276 56.3575 85.1211 56.4031 85.1211H56.8914H57.0476V84.9649V84.2715C57.0476 84.1674 57.0737 84.0925 57.1258 84.0469C57.1778 83.9948 57.2527 83.9688 57.3504 83.9688C57.448 83.9688 57.5196 83.9948 57.5652 84.0469C57.6108 84.099 57.6336 84.1739 57.6336 84.2715V84.9649V85.1211H57.7996H58.8933C58.9324 85.1211 58.9617 85.1276 58.9812 85.1407C59.0073 85.1537 59.0301 85.1732 59.0496 85.1993C59.0756 85.2188 59.0919 85.2416 59.0984 85.2676C59.1114 85.2872 59.118 85.3165 59.118 85.3555C59.118 85.4141 59.0984 85.4694 59.0594 85.5215C59.0138 85.5671 58.9584 85.5899 58.8933 85.5899H57.7996H57.6336V85.7461V88.6368C57.6336 88.6888 57.6368 88.7377 57.6433 88.7832C57.6499 88.8288 57.6564 88.8744 57.6629 88.92C57.6759 88.959 57.6889 88.9981 57.7019 89.0372C57.7215 89.0697 57.7443 89.1023 57.7703 89.1348C57.7963 89.1674 57.8256 89.1967 57.8582 89.2227C57.9949 89.3269 58.1837 89.379 58.4246 89.379C58.5678 89.379 58.7241 89.3529 58.8933 89.3008ZM60.5144 83.6563C60.4819 83.6172 60.4558 83.5782 60.4363 83.5391C60.4168 83.5 60.407 83.4577 60.407 83.4122V83.3731C60.407 83.2819 60.4428 83.2038 60.5144 83.1387C60.586 83.0671 60.6674 83.0313 60.7586 83.0313H60.8172C60.8367 83.0313 60.853 83.0313 60.866 83.0313C60.8855 83.0313 60.9018 83.0346 60.9148 83.0411C60.9344 83.0476 60.9506 83.0541 60.9637 83.0606C60.9832 83.0671 60.9995 83.0769 61.0125 83.0899C61.032 83.1029 61.0483 83.1159 61.0613 83.129C61.0808 83.1485 61.0971 83.168 61.1101 83.1875C61.1232 83.2071 61.1329 83.2266 61.1394 83.2461C61.1459 83.2657 61.1525 83.2852 61.159 83.3047C61.1655 83.3243 61.1687 83.3471 61.1687 83.3731V83.4122C61.1687 83.4252 61.1655 83.4415 61.159 83.461C61.159 83.474 61.1557 83.487 61.1492 83.5C61.1492 83.5131 61.1459 83.5261 61.1394 83.5391C61.1329 83.5521 61.1264 83.5651 61.1199 83.5782C61.1134 83.5912 61.1036 83.6042 61.0906 83.6172C61.0841 83.6303 61.0743 83.6433 61.0613 83.6563C61.0418 83.6758 61.0222 83.6921 61.0027 83.7051C60.9832 83.7181 60.9637 83.7279 60.9441 83.7344C60.9246 83.7409 60.9051 83.7474 60.8855 83.754C60.866 83.754 60.8432 83.754 60.8172 83.754H60.7586C60.7325 83.754 60.7097 83.754 60.6902 83.754C60.6707 83.7474 60.6512 83.7409 60.6316 83.7344C60.6121 83.7279 60.5926 83.7181 60.573 83.7051C60.5535 83.6921 60.534 83.6758 60.5144 83.6563ZM60.6707 89.7891C60.6381 89.7696 60.6056 89.7468 60.573 89.7207C60.547 89.6882 60.5242 89.6556 60.5047 89.6231C60.4916 89.5905 60.4851 89.5547 60.4851 89.5157V85.3262C60.4851 85.2872 60.4916 85.2513 60.5047 85.2188C60.5242 85.1797 60.547 85.1472 60.573 85.1211C60.6056 85.0886 60.6381 85.0658 60.6707 85.0528C60.7032 85.0332 60.739 85.0235 60.7781 85.0235C60.8627 85.0235 60.9311 85.0528 60.9832 85.1114C61.0418 85.17 61.0711 85.2416 61.0711 85.3262V89.5157C61.0711 89.5938 61.045 89.6622 60.993 89.7207C60.9278 89.7793 60.8562 89.8086 60.7781 89.8086C60.739 89.8086 60.7032 89.8021 60.6707 89.7891ZM63.7273 89.5547C63.5515 89.4506 63.3953 89.3269 63.2586 89.1836C63.1284 89.0404 63.0144 88.8744 62.9168 88.6856C62.7215 88.3145 62.6238 87.8913 62.6238 87.4161C62.6238 87.2533 62.6336 87.0971 62.6531 86.9473C62.6726 86.7976 62.7052 86.6576 62.7508 86.5274C62.7963 86.3907 62.8517 86.2605 62.9168 86.1368C63.1056 85.7657 63.379 85.4792 63.7371 85.2774C64.0887 85.0821 64.4988 84.9844 64.9676 84.9844C65.4363 84.9844 65.8465 85.0821 66.198 85.2774C66.3738 85.3816 66.5301 85.5053 66.6668 85.6485C66.8035 85.7917 66.9207 85.9577 67.0183 86.1465C67.116 86.3288 67.1876 86.5274 67.2332 86.7422C67.2853 86.9506 67.3113 87.1752 67.3113 87.4161C67.3113 87.8978 67.2137 88.321 67.0183 88.6856C66.823 89.0632 66.5463 89.3529 66.1883 89.5547C65.8367 89.75 65.4298 89.8477 64.9676 89.8477C64.4923 89.8477 64.0789 89.75 63.7273 89.5547ZM65.8074 89.1446C66.0939 88.9948 66.3185 88.7702 66.4812 88.4707C66.644 88.1778 66.7254 87.823 66.7254 87.4063C66.7254 87.3477 66.7221 87.2891 66.7156 87.2305C66.7156 87.1719 66.7124 87.1133 66.7058 87.0547C66.6993 86.9961 66.6896 86.9408 66.6765 86.8887C66.67 86.8366 66.6603 86.7878 66.6472 86.7422C66.6342 86.6901 66.618 86.6413 66.5984 86.5957C66.5854 86.5437 66.5659 86.4981 66.5398 86.459C66.5203 86.4135 66.4975 86.3711 66.4715 86.3321C66.3152 86.0586 66.1036 85.8503 65.8367 85.7071C65.7521 85.655 65.6609 85.6127 65.5633 85.5801C65.4721 85.5476 65.3745 85.5248 65.2703 85.5118C65.1726 85.4987 65.0717 85.4922 64.9676 85.4922C64.6746 85.4922 64.3946 85.5541 64.1277 85.6778C63.8413 85.8275 63.6166 86.0489 63.4539 86.3418C63.2911 86.6348 63.2097 86.9896 63.2097 87.4063C63.2097 87.6276 63.2293 87.8295 63.2683 88.0118C63.3139 88.1941 63.379 88.3536 63.4637 88.4903C63.6199 88.7702 63.8315 88.9818 64.0984 89.125C64.1831 89.1771 64.2709 89.2194 64.3621 89.252C64.4597 89.2846 64.5574 89.3073 64.6551 89.3204C64.7592 89.3334 64.8634 89.3399 64.9676 89.3399C65.0652 89.3399 65.1596 89.3334 65.2508 89.3204C65.3484 89.3073 65.4428 89.2878 65.534 89.2618C65.6316 89.2292 65.7228 89.1901 65.8074 89.1446ZM69.0398 89.7891C69.0073 89.7696 68.9747 89.7468 68.9422 89.7207C68.9161 89.6882 68.8933 89.6556 68.8738 89.6231C68.8608 89.5905 68.8543 89.5547 68.8543 89.5157V85.3262C68.8543 85.2872 68.8608 85.2513 68.8738 85.2188C68.8933 85.1797 68.9161 85.1472 68.9422 85.1211C68.9747 85.0886 69.0073 85.0658 69.0398 85.0528C69.0724 85.0332 69.1082 85.0235 69.1472 85.0235C69.2254 85.0235 69.2937 85.056 69.3523 85.1211C69.4109 85.1797 69.4402 85.2481 69.4402 85.3262V85.6973V86.1075L69.7234 85.8047C69.9773 85.5313 70.241 85.3262 70.5144 85.1895C70.6446 85.1179 70.7846 85.0658 70.9344 85.0332C71.0841 85.0007 71.2436 84.9844 71.4129 84.9844C71.7384 84.9844 72.0249 85.0593 72.2722 85.209C72.5066 85.3588 72.6889 85.5671 72.8191 85.834C72.8842 85.9707 72.9331 86.114 72.9656 86.2637C72.9982 86.4135 73.0144 86.573 73.0144 86.7422V89.5157C73.0144 89.5938 72.9851 89.6622 72.9265 89.7207C72.8614 89.7793 72.7898 89.8086 72.7117 89.8086C72.6922 89.8086 72.6759 89.8086 72.6629 89.8086C72.6499 89.8021 72.6368 89.7989 72.6238 89.7989C72.6108 89.7924 72.5978 89.7859 72.5847 89.7793C72.5717 89.7663 72.5587 89.7566 72.5457 89.75C72.5327 89.7435 72.5196 89.7338 72.5066 89.7207C72.4871 89.7012 72.4708 89.6817 72.4578 89.6622C72.4448 89.6361 72.435 89.6133 72.4285 89.5938C72.4285 89.5678 72.4285 89.5417 72.4285 89.5157V86.8399C72.4285 86.4102 72.3211 86.0782 72.1062 85.8438C71.8979 85.6094 71.5952 85.4922 71.198 85.4922C71.0288 85.4922 70.866 85.515 70.7097 85.5606C70.5535 85.6062 70.407 85.6713 70.2703 85.7559C70.0034 85.9187 69.7397 86.1628 69.4793 86.4883L69.4402 86.5274V86.586V89.5157C69.4402 89.5938 69.4142 89.6622 69.3621 89.7207C69.297 89.7793 69.2254 89.8086 69.1472 89.8086C69.1082 89.8086 69.0724 89.8021 69.0398 89.7891Z" fill="#4D4945"/>
<defs>
<filter id="filter0_bdii" x="-30.2395" y="-31.5937" width="135" height="135" filterUnits="userSpaceOnUse" color-interpolation-filters="sRGB">
<feFlood flood-opacity="0" result="BackgroundImageFix"/>
<feGaussianBlur in="BackgroundImage" stdDeviation="25"/>
<feComposite in2="SourceAlpha" operator="in" result="effect1_backgroundBlur"/>
<feColorMatrix in="SourceAlpha" type="matrix" values="0 0 0 0 0 0 0 0 0 0 0 0 0 0 0 0 0 0 127 0"/>
<feOffset/>
<feGaussianBlur stdDeviation="5"/>
<feColorMatrix type="matrix" values="0 0 0 0 0 0 0 0 0 0 0 0 0 0 0 0 0 0 0.25 0"/>
<feBlend mode="normal" in2="effect1_backgroundBlur" result="effect2_dropShadow"/>
<feBlend mode="normal" in="SourceGraphic" in2="effect2_dropShadow" result="shape"/>
<feColorMatrix in="SourceAlpha" type="matrix" values="0 0 0 0 0 0 0 0 0 0 0 0 0 0 0 0 0 0 127 0" result="hardAlpha"/>
<feOffset dx="4" dy="4"/>
<feGaussianBlur stdDeviation="5"/>
<feComposite in2="hardAlpha" operator="arithmetic" k2="-1" k3="1"/>
<feColorMatrix type="matrix" values="0 0 0 0 0 0 0 0 0 0 0 0 0 0 0 0 0 0 0.15 0"/>
<feBlend mode="normal" in2="shape" result="effect3_innerShadow"/>
<feColorMatrix in="SourceAlpha" type="matrix" values="0 0 0 0 0 0 0 0 0 0 0 0 0 0 0 0 0 0 127 0" result="hardAlpha"/>
<feOffset dx="-4" dy="-4"/>
<feGaussianBlur stdDeviation="5"/>
<feComposite in2="hardAlpha" operator="arithmetic" k2="-1" k3="1"/>
<feColorMatrix type="matrix" values="0 0 0 0 1 0 0 0 0 1 0 0 0 0 1 0 0 0 0.4 0"/>
<feBlend mode="normal" in2="effect3_innerShadow" result="effect4_innerShadow"/>
</filter>
<linearGradient id="paint0_linear" x1="10.4272" y1="10.2396" x2="62.3439" y2="67.4063" gradientUnits="userSpaceOnUse">
<stop stop-color="#6699FF"/>
<stop offset="1" stop-color="#FF3366"/>
</linearGradient>
<linearGradient id="paint1_linear" x1="48.9272" y1="45.2396" x2="29.6772" y2="25.4063" gradientUnits="userSpaceOnUse">
<stop offset="0.000520731" stop-color="#002620"/>
<stop offset="1" stop-color="#00E4BB"/>
</linearGradient>
</defs>
</svg>
