<svg width="1440" height="1024" viewBox="0 0 1440 1024" fill="none" xmlns="http://www.w3.org/2000/svg">
<path d="M1440 0L1440 1024L-0.000353036 1024L-0.000308275 -6.29444e-05L1440 0Z" fill="url(#paint0_linear)"/>
<path fill-rule="evenodd" clip-rule="evenodd" d="M430.228 -14C456.133 -14 466.329 1.39677 444.796 7.99999C373.054 30 229.572 74 200.875 118C172.179 162 258.268 206 373.054 250C487.84 294 631.323 338 688.716 382C746.109 426 717.412 470 660.019 514C602.626 558 516.537 602 430.447 646C344.358 690 258.268 734 243.92 778C229.572 822 286.965 866 373.054 910C459.144 954 573.93 998 631.323 1020C650.79 1027.46 639.281 1042 613.907 1042L47.9838 1042C21.483 1042 -5.56807e-05 1032.15 -5.51496e-05 1020C-5.4188e-05 998 -5.22647e-05 954 -5.03414e-05 910C-4.84181e-05 866 -4.64948e-05 822 -4.45715e-05 778C-4.26482e-05 734 -4.07249e-05 690 -3.88016e-05 646C-3.68783e-05 602 -3.4955e-05 558 -3.30317e-05 514C-3.11084e-05 470 -2.91851e-05 426 -2.72618e-05 382C-2.53385e-05 338 -2.34152e-05 294 -2.14919e-05 250C-1.95685e-05 206 -1.76452e-05 162 -1.57219e-05 118C-1.37986e-05 74 -1.18753e-05 30 -1.09137e-05 7.99997C-1.03826e-05 -4.1503 21.4831 -14 47.9839 -14L430.228 -14Z" fill="url(#paint1_linear)"/>
<path fill-rule="evenodd" clip-rule="evenodd" d="M785.524 -2.8608e-05C757.282 -2.98425e-05 749.291 22.2276 775.223 28.655C890.837 58.1783 1122.06 115.488 1150.97 173.667C1179.87 231.845 1006.45 289.155 991.998 347.333C977.547 405.512 1122.06 462.822 1078.71 521C1035.35 579.178 804.127 636.488 775.223 694.667C746.32 752.845 919.74 810.155 934.192 868.333C948.643 926.512 804.127 983.822 731.868 1013.34C709.777 1022.11 720.569 1042 747.412 1042L1390.12 1042C1417.67 1042 1440 1029.17 1440 1013.35C1440 983.822 1440 926.512 1440 868.333C1440 810.155 1440 752.845 1440 694.667C1440 636.488 1440 579.178 1440 521C1440 462.822 1440 405.512 1440 347.333C1440 289.155 1440 231.845 1440 173.667C1440 115.488 1440 58.1783 1440 28.655C1440 12.8293 1417.67 -9.76152e-07 1390.12 -2.1803e-06L785.524 -2.8608e-05Z" fill="url(#paint2_linear)"/>
<defs>
<linearGradient id="paint0_linear" x1="1440" y1="12.0471" x2="-5.92781" y2="1015.46" gradientUnits="userSpaceOnUse">
<stop stop-color="#FFCC33"/>
<stop offset="1" stop-color="#E233FF"/>
</linearGradient>
<linearGradient id="paint1_linear" x1="23.2259" y1="-14" x2="-279.625" y2="563.236" gradientUnits="userSpaceOnUse">
<stop stop-color="#FFCC33"/>
<stop offset="1" stop-color="#D053BE"/>
</linearGradient>
<linearGradient id="paint2_linear" x1="1424.76" y1="14.8857" x2="84.5934" y2="-188.817" gradientUnits="userSpaceOnUse">
<stop stop-color="#FFCC33"/>
<stop offset="1" stop-color="#E233FF"/>
</linearGradient>
</defs>
</svg>
