<svg width="200" height="45" viewBox="0 0 200 45" fill="none" xmlns="http://www.w3.org/2000/svg">
<g filter="url(#filter0_bii)">
<path d="M-0.000610352 22.5C-0.000610352 10.0736 10.073 -3.05176e-05 22.4994 -3.05176e-05H177.499C189.926 -3.05176e-05 199.999 10.0736 199.999 22.5C199.999 34.9264 189.926 45 177.499 45H22.4994C10.073 45 -0.000610352 34.9264 -0.000610352 22.5Z" fill="white" fill-opacity="0.3"/>
</g>
<g clip-path="url(#clip0)">
<path fill-rule="evenodd" clip-rule="evenodd" d="M22 34C28.6274 34 34 28.6274 34 22C34 15.3726 28.6274 10 22 10C15.3726 10 10 15.3726 10 22C10 28.6274 15.3726 34 22 34ZM21.2121 21.0255C20.9658 21.34 20.6155 21.5565 20.224 21.636C20.4667 21.6421 20.7057 21.6966 20.9271 21.7964C21.1484 21.8961 21.3477 22.039 21.5131 22.2167C21.6785 22.3944 21.8068 22.6033 21.8904 22.8312C21.974 23.0592 22.0113 23.3015 22 23.544C22 24.936 20.8 25.74 19.24 25.8H16V18H19.24C20.644 18 21.568 18.72 21.568 19.92C21.5846 20.3191 21.4584 20.7111 21.2121 21.0255ZM18.892 19.104H17.512V21.192H18.532C19.576 21.192 20.032 20.76 20.032 20.124C20.032 19.488 19.612 19.104 18.892 19.104ZM17.512 24.588H18.664C19.888 24.588 20.392 24.204 20.392 23.46C20.392 22.716 19.888 22.26 18.988 22.26H17.512V24.588ZM24.2268 20.0029C24.57 19.8784 24.9361 19.8297 25.3 19.86C25.6637 19.8366 26.0283 19.8915 26.3689 20.0213C26.7096 20.151 27.0184 20.3524 27.2744 20.6118C27.5304 20.8712 27.7277 21.1827 27.8529 21.525C27.9781 21.8674 28.0283 22.2326 28 22.596V23.16H24.04V23.328C24.0194 23.5103 24.038 23.695 24.0948 23.8695C24.1516 24.044 24.2451 24.2043 24.369 24.3397C24.493 24.475 24.6445 24.5822 24.8134 24.654C24.9822 24.7258 25.1645 24.7606 25.348 24.756C25.6056 24.796 25.8689 24.7415 26.0895 24.6026C26.31 24.4636 26.4729 24.2496 26.548 24H28C27.8729 24.5828 27.5334 25.0974 27.0475 25.4435C26.5617 25.7896 25.9643 25.9424 25.372 25.872C24.9978 25.9064 24.6205 25.8586 24.2667 25.7319C23.9128 25.6053 23.5909 25.4029 23.3235 25.1389C23.056 24.8749 22.8495 24.5556 22.7183 24.2034C22.5871 23.8512 22.5345 23.4747 22.564 23.1V22.56C22.5385 22.1958 22.5921 21.8303 22.7211 21.4887C22.8501 21.1472 23.0514 20.8375 23.3113 20.581C23.5712 20.3246 23.8835 20.1274 24.2268 20.0029ZM24.1344 21.7675C24.0808 21.9258 24.061 22.0936 24.076 22.26H26.476C26.491 22.0936 26.4712 21.9258 26.4176 21.7675C26.3641 21.6093 26.2781 21.4639 26.1651 21.3408C26.0521 21.2176 25.9147 21.1194 25.7616 21.0525C25.6085 20.9855 25.4431 20.9513 25.276 20.952C25.1089 20.9513 24.9435 20.9855 24.7904 21.0525C24.6373 21.1194 24.4998 21.2176 24.3869 21.3408C24.2739 21.4639 24.1879 21.6093 24.1344 21.7675ZM27.1 18.54H23.5V19.14H27.1V18.54Z" fill="#4D4945"/>
<path d="M46.8301 27.1064C46.0098 27.1064 45.3301 26.8662 44.791 26.3857C44.2637 25.9053 44 25.2373 44 24.3818C44 23.3389 44.4688 22.5361 45.4062 21.9736C46.3438 21.3994 47.8438 20.9951 49.9062 20.7607C50 20.749 50.041 20.6963 50.0293 20.6025C50.0176 18.9502 49.332 18.124 47.9727 18.124C47.1758 18.124 46.3555 18.376 45.5117 18.8799C45.3711 18.9619 45.2246 18.9854 45.0723 18.9502C44.9199 18.915 44.8027 18.833 44.7207 18.7041C44.6387 18.5518 44.6152 18.3994 44.6504 18.2471C44.6973 18.083 44.791 17.96 44.9316 17.8779C46.0449 17.2334 47.1348 16.9111 48.2012 16.9111C49.3379 16.9111 50.1699 17.2627 50.6973 17.9658C51.2246 18.6572 51.4883 19.6182 51.4883 20.8486V26.2803C51.4883 26.4443 51.4297 26.585 51.3125 26.7021C51.1953 26.8193 51.0547 26.8779 50.8906 26.8779C50.7266 26.8779 50.5801 26.8193 50.4512 26.7021C50.3223 26.585 50.2461 26.4443 50.2227 26.2803L50.1699 25.7178C50.1699 25.6943 50.1582 25.6826 50.1348 25.6826C50.123 25.6826 50.1055 25.6885 50.082 25.7002C48.9688 26.6377 47.8848 27.1064 46.8301 27.1064ZM47.2344 25.9287C47.6914 25.9287 48.1309 25.8291 48.5527 25.6299C48.9863 25.4189 49.4492 25.0967 49.9414 24.6631C50 24.6045 50.0293 24.5283 50.0293 24.4346V21.8682C50.0293 21.7861 50 21.7451 49.9414 21.7451C49.9297 21.7451 49.918 21.7451 49.9062 21.7451C48.2891 21.9443 47.1348 22.249 46.4434 22.6592C45.7637 23.0576 45.4238 23.6025 45.4238 24.2939C45.4238 24.8447 45.5879 25.2549 45.916 25.5244C46.2559 25.7939 46.6953 25.9287 47.2344 25.9287Z" fill="#4D4945"/>
<path d="M57.5 27.1064C55.5312 27.1064 54.5469 25.8467 54.5469 23.3271V17.8955C54.5469 17.6846 54.6172 17.5088 54.7578 17.3682C54.8984 17.2275 55.0684 17.1572 55.2676 17.1572C55.4785 17.1572 55.6543 17.2275 55.7949 17.3682C55.9355 17.5088 56.0059 17.6846 56.0059 17.8955V23.1514C56.0059 24.0889 56.1523 24.7744 56.4453 25.208C56.75 25.6299 57.248 25.8408 57.9395 25.8408C58.4199 25.8408 58.8594 25.7178 59.2578 25.4717C59.668 25.2139 60.1074 24.7979 60.5762 24.2236C60.6348 24.1533 60.6641 24.0771 60.6641 23.9951V17.8955C60.6641 17.6846 60.7344 17.5088 60.875 17.3682C61.0273 17.2275 61.2031 17.1572 61.4023 17.1572C61.6016 17.1572 61.7715 17.2275 61.9121 17.3682C62.0527 17.5088 62.123 17.6846 62.123 17.8955V26.2803C62.123 26.4443 62.0645 26.585 61.9473 26.7021C61.8301 26.8193 61.6895 26.8779 61.5254 26.8779C61.3496 26.8779 61.1973 26.8193 61.0684 26.7021C60.9512 26.585 60.8867 26.4443 60.875 26.2803L60.8047 25.3486C60.793 25.3369 60.7754 25.3311 60.752 25.3311C60.7402 25.3311 60.7285 25.3369 60.7168 25.3486C60.2246 25.9229 59.7207 26.3623 59.2051 26.667C58.7012 26.96 58.1328 27.1064 57.5 27.1064Z" fill="#4D4945"/>
<path d="M66.7637 26.667C66.623 26.8076 66.4531 26.8779 66.2539 26.8779C66.0547 26.8779 65.8789 26.8076 65.7266 26.667C65.5859 26.5264 65.5156 26.3564 65.5156 26.1572V17.7549C65.5156 17.5908 65.5742 17.4502 65.6914 17.333C65.8086 17.2158 65.9492 17.1572 66.1133 17.1572C66.2773 17.1572 66.4238 17.2158 66.5527 17.333C66.6816 17.4385 66.752 17.5791 66.7637 17.7549L66.8516 18.5459C66.8516 18.5693 66.8574 18.5811 66.8691 18.5811C66.8926 18.5811 66.9102 18.5752 66.9219 18.5635C67.4609 18.0361 67.9883 17.6318 68.5039 17.3506C69.0195 17.0576 69.5762 16.9111 70.1738 16.9111C72.1543 16.9111 73.1445 18.1768 73.1445 20.708V26.1396C73.1445 26.3389 73.0742 26.5146 72.9336 26.667C72.793 26.8076 72.6172 26.8779 72.4062 26.8779C72.207 26.8779 72.0312 26.8076 71.8789 26.667C71.7383 26.5146 71.668 26.3389 71.668 26.1396V20.8838C71.668 19.9463 71.5156 19.2607 71.2109 18.8271C70.9062 18.3936 70.4199 18.1768 69.752 18.1768C69.2715 18.1768 68.832 18.2998 68.4336 18.5459C68.0352 18.7803 67.5781 19.1553 67.0625 19.6709C67.0039 19.7295 66.9746 19.8057 66.9746 19.8994V26.1572C66.9746 26.3564 66.9043 26.5264 66.7637 26.667Z" fill="#4D4945"/>
<path d="M77.6445 26.667C77.5039 26.8076 77.334 26.8779 77.1348 26.8779C76.9355 26.8779 76.7598 26.8076 76.6074 26.667C76.4668 26.5264 76.3965 26.3564 76.3965 26.1572V17.8955C76.3965 17.6846 76.4668 17.5088 76.6074 17.3682C76.7598 17.2275 76.9355 17.1572 77.1348 17.1572C77.334 17.1572 77.5039 17.2275 77.6445 17.3682C77.7852 17.5088 77.8555 17.6846 77.8555 17.8955V26.1572C77.8555 26.3564 77.7852 26.5264 77.6445 26.667ZM77.1348 15.0654C76.8301 15.0654 76.5781 14.9717 76.3789 14.7842C76.1797 14.5967 76.0801 14.3623 76.0801 14.0811C76.0801 13.7764 76.1797 13.5361 76.3789 13.3604C76.5781 13.1729 76.8301 13.0791 77.1348 13.0791C77.4395 13.0791 77.6914 13.1729 77.8906 13.3604C78.1016 13.5361 78.207 13.7764 78.207 14.0811C78.207 14.3623 78.1016 14.5967 77.8906 14.7842C77.6797 14.9717 77.4277 15.0654 77.1348 15.0654Z" fill="#4D4945"/>
<path d="M84.4824 31.4482C83.2637 31.4482 82.2852 31.2139 81.5469 30.7451C80.8203 30.2881 80.457 29.6494 80.457 28.8291C80.457 28.4189 80.5801 28.0205 80.8262 27.6338C81.084 27.2471 81.4355 26.9072 81.8809 26.6143C81.8926 26.6025 81.8984 26.585 81.8984 26.5615C81.8984 26.5381 81.8867 26.5205 81.8633 26.5088C81.3008 26.1455 81.0195 25.6123 81.0195 24.9092C81.0195 24.2646 81.3711 23.6729 82.0742 23.1338C82.0859 23.1221 82.0918 23.1045 82.0918 23.0811C82.0918 23.0576 82.0859 23.04 82.0742 23.0283C81.7227 22.7471 81.4297 22.3779 81.1953 21.9209C80.9609 21.4639 80.8438 20.9658 80.8438 20.4268C80.8438 19.4072 81.1895 18.5752 81.8809 17.9307C82.584 17.2861 83.4395 16.9639 84.4473 16.9639C84.8457 16.9639 85.25 17.0342 85.6602 17.1748C85.7539 17.1982 85.8418 17.21 85.9238 17.21H88.5957C88.748 17.21 88.877 17.2686 88.9824 17.3857C89.0996 17.4912 89.1582 17.626 89.1582 17.79C89.1582 17.9424 89.0996 18.0771 88.9824 18.1943C88.877 18.2998 88.748 18.3525 88.5957 18.3525H87.2422C87.2188 18.3525 87.2012 18.3643 87.1895 18.3877C87.1777 18.4111 87.1777 18.4287 87.1895 18.4404C87.6934 18.9795 87.9453 19.6533 87.9453 20.4619C87.9453 21.4697 87.6113 22.29 86.9434 22.9229C86.2754 23.5439 85.4434 23.8545 84.4473 23.8545C83.9668 23.8545 83.5039 23.7549 83.0586 23.5557C82.9766 23.5205 82.9062 23.5322 82.8477 23.5908C82.4844 23.9189 82.3027 24.2939 82.3027 24.7158C82.3027 25.4541 82.877 25.8232 84.0254 25.8232H85.9766C87.1016 25.8232 87.9395 26.0107 88.4902 26.3857C89.041 26.749 89.3164 27.3291 89.3164 28.126C89.3164 29.04 88.8652 29.8193 87.9629 30.4639C87.0723 31.1201 85.9121 31.4482 84.4824 31.4482ZM82.9004 22.1846C83.3223 22.6299 83.832 22.8525 84.4297 22.8525C85.0391 22.8525 85.5547 22.6299 85.9766 22.1846C86.3984 21.7275 86.6094 21.1416 86.6094 20.4268C86.6094 19.7119 86.3984 19.1377 85.9766 18.7041C85.5664 18.2705 85.0566 18.0537 84.4473 18.0537C83.8145 18.0537 83.293 18.2705 82.8828 18.7041C82.4727 19.126 82.2676 19.7002 82.2676 20.4268C82.2676 21.1416 82.4785 21.7275 82.9004 22.1846ZM84.6758 30.4287C85.6133 30.4287 86.3809 30.2178 86.9785 29.7959C87.5762 29.374 87.875 28.8877 87.875 28.3369C87.875 27.8799 87.7051 27.5518 87.3652 27.3525C87.0371 27.1533 86.5273 27.0537 85.8359 27.0537H84.0605C83.7324 27.0537 83.3633 27.0127 82.9531 26.9307C82.9297 26.9189 82.9062 26.9131 82.8828 26.9131C82.8242 26.9131 82.7656 26.9307 82.707 26.9658C82.0742 27.458 81.7578 28.0146 81.7578 28.6357C81.7578 29.1865 82.0156 29.6201 82.5312 29.9365C83.0469 30.2646 83.7617 30.4287 84.6758 30.4287Z" fill="#4D4945"/>
<path d="M92.498 26.667C92.3574 26.8076 92.1875 26.8779 91.9883 26.8779C91.7891 26.8779 91.6133 26.8076 91.4609 26.667C91.3203 26.5264 91.25 26.3564 91.25 26.1572V13.2725C91.25 13.0732 91.3203 12.9033 91.4609 12.7627C91.6133 12.6221 91.7891 12.5518 91.9883 12.5518C92.1875 12.5518 92.3574 12.6221 92.498 12.7627C92.6387 12.9033 92.709 13.0732 92.709 13.2725V16.5244L92.6562 18.4229C92.6562 18.4463 92.668 18.4639 92.6914 18.4756C92.7148 18.4873 92.7383 18.4873 92.7617 18.4756C93.2891 17.9717 93.7988 17.585 94.291 17.3154C94.7832 17.0459 95.3223 16.9111 95.9082 16.9111C97.8887 16.9111 98.8789 18.1768 98.8789 20.708V26.1396C98.8789 26.3389 98.8086 26.5146 98.668 26.667C98.5273 26.8076 98.3516 26.8779 98.1406 26.8779C97.9414 26.8779 97.7656 26.8076 97.6133 26.667C97.4727 26.5146 97.4023 26.3389 97.4023 26.1396V20.8838C97.4023 19.9463 97.25 19.2607 96.9453 18.8271C96.6406 18.3936 96.1543 18.1768 95.4863 18.1768C95.0059 18.1768 94.5664 18.2998 94.168 18.5459C93.7695 18.7803 93.3125 19.1553 92.7969 19.6709C92.7383 19.7295 92.709 19.8057 92.709 19.8994V26.1572C92.709 26.3564 92.6387 26.5264 92.498 26.667Z" fill="#4D4945"/>
<path d="M105.031 27.1064C104.07 27.1064 103.385 26.8369 102.975 26.2979C102.564 25.7471 102.359 24.9619 102.359 23.9424V18.4932C102.359 18.4111 102.312 18.3701 102.219 18.3701H101.428C101.275 18.3701 101.146 18.3174 101.041 18.2119C100.936 18.0947 100.883 17.96 100.883 17.8076C100.883 17.6553 100.936 17.5205 101.041 17.4033C101.146 17.2861 101.275 17.2217 101.428 17.21L102.271 17.1572C102.365 17.1572 102.412 17.1162 102.412 17.0342L102.535 15.0303C102.547 14.8545 102.611 14.708 102.729 14.5908C102.857 14.4619 103.01 14.3975 103.186 14.3975C103.361 14.3975 103.508 14.4619 103.625 14.5908C103.754 14.708 103.818 14.8545 103.818 15.0303V17.0342C103.818 17.1162 103.859 17.1572 103.941 17.1572H105.893C106.057 17.1572 106.197 17.2158 106.314 17.333C106.432 17.4502 106.49 17.5967 106.49 17.7725C106.49 17.9365 106.432 18.0771 106.314 18.1943C106.197 18.3115 106.057 18.3701 105.893 18.3701H103.941C103.859 18.3701 103.818 18.4111 103.818 18.4932V23.9951C103.818 24.6279 103.93 25.1084 104.152 25.4365C104.387 25.7529 104.785 25.9111 105.348 25.9111C105.512 25.9111 105.705 25.8818 105.928 25.8232C106.08 25.7881 106.221 25.8057 106.35 25.876C106.49 25.9463 106.578 26.0576 106.613 26.21C106.637 26.2568 106.648 26.3096 106.648 26.3682C106.648 26.4619 106.619 26.5557 106.561 26.6494C106.49 26.79 106.379 26.8779 106.227 26.9131C105.758 27.042 105.359 27.1064 105.031 27.1064Z" fill="#4D4945"/>
</g>
<defs>
<filter id="filter0_bii" x="-50.0006" y="-50" width="300" height="145" filterUnits="userSpaceOnUse" color-interpolation-filters="sRGB">
<feFlood flood-opacity="0" result="BackgroundImageFix"/>
<feGaussianBlur in="BackgroundImage" stdDeviation="25"/>
<feComposite in2="SourceAlpha" operator="in" result="effect1_backgroundBlur"/>
<feBlend mode="normal" in="SourceGraphic" in2="effect1_backgroundBlur" result="shape"/>
<feColorMatrix in="SourceAlpha" type="matrix" values="0 0 0 0 0 0 0 0 0 0 0 0 0 0 0 0 0 0 127 0" result="hardAlpha"/>
<feOffset dx="4" dy="4"/>
<feGaussianBlur stdDeviation="2.5"/>
<feComposite in2="hardAlpha" operator="arithmetic" k2="-1" k3="1"/>
<feColorMatrix type="matrix" values="0 0 0 0 0 0 0 0 0 0 0 0 0 0 0 0 0 0 0.1 0"/>
<feBlend mode="normal" in2="shape" result="effect2_innerShadow"/>
<feColorMatrix in="SourceAlpha" type="matrix" values="0 0 0 0 0 0 0 0 0 0 0 0 0 0 0 0 0 0 127 0" result="hardAlpha"/>
<feOffset dx="-4" dy="-4"/>
<feGaussianBlur stdDeviation="2.5"/>
<feComposite in2="hardAlpha" operator="arithmetic" k2="-1" k3="1"/>
<feColorMatrix type="matrix" values="0 0 0 0 1 0 0 0 0 1 0 0 0 0 1 0 0 0 0.4 0"/>
<feBlend mode="normal" in2="effect2_innerShadow" result="effect3_innerShadow"/>
</filter>
<clipPath id="clip0">
<rect width="96.6484" height="24" fill="white" transform="translate(10 10)"/>
</clipPath>
</defs>
</svg>
