<svg width="200" height="45" viewBox="0 0 200 45" fill="none" xmlns="http://www.w3.org/2000/svg">
<g filter="url(#filter0_bii)">
<path d="M-0.000610352 22.5C-0.000610352 10.0736 10.073 -3.05176e-05 22.4994 -3.05176e-05H177.499C189.926 -3.05176e-05 199.999 10.0736 199.999 22.5C199.999 34.9264 189.926 45 177.499 45H22.4994C10.073 45 -0.000610352 34.9264 -0.000610352 22.5Z" fill="white" fill-opacity="0.3"/>
</g>
<path fill-rule="evenodd" clip-rule="evenodd" d="M25 34C31.6274 34 37 28.6274 37 22C37 15.3726 31.6274 10 25 10C18.3726 10 13 15.3726 13 22C13 28.6274 18.3726 34 25 34ZM22.8472 21.3818C22.4813 21.3818 22.1247 21.7141 22.1247 22.2125C22.1247 22.7082 22.4906 23.0432 22.8472 23.0432C23.2121 23.0432 23.5696 22.7119 23.5696 22.2125V22.2051C23.578 21.7206 23.2196 21.3818 22.8472 21.3818ZM26.4986 22.2125C26.4986 21.9493 26.5788 21.7645 26.6797 21.6534C26.7374 21.592 26.8078 21.544 26.886 21.5125C26.9641 21.4811 27.0482 21.4671 27.1323 21.4714C27.4973 21.4714 27.8548 21.8027 27.8548 22.3021C27.8548 22.8005 27.4973 23.1328 27.1323 23.1328C26.983 23.1328 26.8374 23.06 26.7123 22.8948C26.5706 22.6961 26.4958 22.4575 26.4986 22.2134V22.2125ZM22.4028 26.6282C22.0902 26.5349 21.8046 26.4332 21.5461 26.3324L21.5443 26.3315C21.0291 26.1299 20.5495 25.9013 20.0736 25.5681L20.6465 24.7488C21.0357 25.0213 21.4379 25.2163 21.9082 25.4001C22.4499 25.614 23.0099 25.778 23.5814 25.8901C24.545 26.075 25.5346 26.0788 26.4995 25.9013L26.5079 25.9003C27.0672 25.8023 27.6133 25.6401 28.1354 25.4169L28.1447 25.4132L28.1494 25.4113L28.1559 25.4085C28.5395 25.2658 28.9734 25.0558 29.4325 24.7525L29.9831 25.5877C29.5234 25.8937 29.0307 26.147 28.5143 26.3427C28.2306 26.4602 27.9506 26.5629 27.6744 26.6469C28.2007 27.2133 28.9977 27.9991 28.9977 27.9991C31.6461 27.9151 31.9969 25.7454 31.9969 25.7454C31.9969 21.8867 30.2715 17.259 30.2715 17.259C28.546 15.9646 26.9036 16.0001 26.9036 16.0001L26.6358 16.9911C27.4682 17.1983 28.3202 17.5585 29.2375 18.0615L28.7569 18.9387C27.3179 18.1492 26.1449 17.7844 25.0008 17.7844C23.8558 17.7853 22.6809 18.152 21.2382 18.9387L20.7594 18.0615C21.6338 17.5837 22.4495 17.2347 23.2445 17.0229L23.0924 16.0001C23.0924 16.0001 21.4509 15.9656 19.7264 17.2599C19.7264 17.2599 18 21.8885 18 25.7463C18 25.7463 18.3509 27.916 20.9993 28C20.9993 28 21.8522 27.1993 22.4028 26.6282ZM21.1243 22.2123C21.1243 21.2502 21.8457 20.3824 22.847 20.3824C23.839 20.3824 24.5827 21.2409 24.5687 22.217C24.5669 23.1782 23.8464 24.0433 22.847 24.0433C21.8615 24.0433 21.1243 23.1791 21.1243 22.2123ZM25.9377 20.9824C26.2373 20.6521 26.6591 20.4719 27.1322 20.4719C28.1335 20.4719 28.8539 21.3389 28.8539 22.3019C28.8539 23.265 28.1335 24.1329 27.1322 24.1329C26.6096 24.1329 26.1888 23.8604 25.9153 23.4983C25.6447 23.1409 25.4991 22.6789 25.4991 22.2123C25.4991 21.7458 25.6438 21.309 25.9377 20.9824Z" fill="#4D4945"/>
<path d="M55.6641 21.9194C55.6738 21.8901 55.6689 21.8657 55.6494 21.8462C55.6396 21.8267 55.625 21.8169 55.6055 21.8169H49.9805C49.9609 21.8169 49.9414 21.8267 49.9219 21.8462C49.9121 21.8657 49.9121 21.8901 49.9219 21.9194C50.5762 23.2671 51.499 24.4048 52.6904 25.3325C52.749 25.3813 52.8076 25.3862 52.8662 25.3472C54.1064 24.4292 55.0391 23.2866 55.6641 21.9194ZM47.666 18.0522C47.5977 18.0522 47.5635 18.0864 47.5635 18.1548V20.7622C47.5635 20.8403 47.5977 20.8794 47.666 20.8794H51.5625C51.6309 20.8794 51.665 20.8403 51.665 20.7622V18.1548C51.665 18.0864 51.6309 18.0522 51.5625 18.0522H47.666ZM56.2207 20.8794C56.3379 20.8501 56.4453 20.8647 56.543 20.9233L56.7188 21.0259C56.8164 21.0845 56.8848 21.1675 56.9238 21.2749C56.9629 21.3726 56.9629 21.4702 56.9238 21.5679C56.2402 23.3159 55.1709 24.7661 53.7158 25.9185C53.6963 25.938 53.6865 25.9624 53.6865 25.9917C53.6865 26.021 53.6963 26.0405 53.7158 26.0503C54.9268 26.7827 56.3721 27.3296 58.0518 27.6909C58.1787 27.7104 58.2617 27.7788 58.3008 27.896C58.3203 27.9448 58.3301 27.9888 58.3301 28.0278C58.3301 28.0962 58.3057 28.1646 58.2568 28.2329C58.1689 28.3696 58.0469 28.4722 57.8906 28.5405C57.793 28.5894 57.6953 28.6138 57.5977 28.6138C57.5391 28.6138 57.4854 28.6089 57.4365 28.5991C55.6494 28.1694 54.1211 27.52 52.8516 26.6509C52.793 26.6118 52.7344 26.6118 52.6758 26.6509C51.4062 27.4517 49.8877 28.0815 48.1201 28.5405C47.9736 28.5796 47.8271 28.5649 47.6807 28.4966C47.5439 28.4282 47.4316 28.3257 47.3438 28.189C47.2656 28.0815 47.2461 27.9692 47.2852 27.8521C47.334 27.7349 47.4219 27.6616 47.5488 27.6323C49.209 27.2417 50.6299 26.6997 51.8115 26.0063C51.8799 25.9673 51.8848 25.9233 51.8262 25.8745C50.5664 24.8198 49.585 23.5015 48.8818 21.9194C48.8525 21.8511 48.7988 21.8169 48.7207 21.8169H47.666C47.5879 21.8169 47.5488 21.8511 47.5488 21.9194C47.4316 24.5952 46.875 26.6899 45.8789 28.2036C45.8008 28.311 45.6934 28.3647 45.5566 28.3647C45.4297 28.3745 45.3174 28.3403 45.2197 28.2622C45.1025 28.1646 45.0342 28.0522 45.0146 27.9253C45.0049 27.8862 45 27.8472 45 27.8081C45 27.7202 45.0244 27.6323 45.0732 27.5444C46.0791 25.9722 46.582 23.7114 46.582 20.7622V17.9351C46.582 17.7007 46.665 17.5005 46.8311 17.3345C47.0068 17.1587 47.2119 17.0708 47.4463 17.0708H51.5625C51.6309 17.0708 51.665 17.0317 51.665 16.9536V15.4888C51.665 15.3521 51.7139 15.2349 51.8115 15.1372C51.9092 15.0396 52.0264 14.9907 52.1631 14.9907C52.3096 14.9907 52.4316 15.0396 52.5293 15.1372C52.627 15.2349 52.6758 15.3521 52.6758 15.4888V16.9536C52.6758 17.0317 52.7148 17.0708 52.793 17.0708H57.1289C57.1484 17.0708 57.1631 17.0708 57.1729 17.0708C57.29 17.0415 57.4023 17.0464 57.5098 17.0854L57.7148 17.144C57.8125 17.1733 57.8809 17.2368 57.9199 17.3345C57.9688 17.4321 57.9736 17.5249 57.9346 17.6128C57.5342 18.6089 57.1973 19.3804 56.9238 19.9272C56.8555 20.0444 56.7578 20.1323 56.6309 20.1909C56.5039 20.2397 56.3721 20.2446 56.2354 20.2056C56.1182 20.1665 56.0352 20.0884 55.9863 19.9712C55.9375 19.854 55.9424 19.7417 56.001 19.6343C56.2256 19.1851 56.4404 18.6919 56.6455 18.1548C56.6553 18.1353 56.6504 18.1157 56.6309 18.0962C56.6211 18.0669 56.6064 18.0522 56.5869 18.0522H52.793C52.7148 18.0522 52.6758 18.0864 52.6758 18.1548V20.7622C52.6758 20.8403 52.7148 20.8794 52.793 20.8794H56.1768C56.1963 20.8794 56.2109 20.8794 56.2207 20.8794Z" fill="#4D4945"/>
<path d="M73.3008 21.0259C73.3984 21.1235 73.4473 21.2407 73.4473 21.3774C73.4473 21.5142 73.3984 21.6313 73.3008 21.729C73.2031 21.8169 73.0859 21.8608 72.9492 21.8608H67.1191C67.041 21.8608 67.002 21.8999 67.002 21.978V23.4282C67.002 23.438 67.002 23.4429 67.002 23.4429C67.0117 23.4429 67.0215 23.4429 67.0312 23.4429C67.1094 23.3062 67.2168 23.2378 67.3535 23.2378C67.3926 23.2378 67.4316 23.2476 67.4707 23.2671C69.1406 23.7163 70.6006 24.1997 71.8506 24.7173C71.9775 24.7759 72.0605 24.8735 72.0996 25.0103C72.1484 25.1372 72.1387 25.2593 72.0703 25.3765C72.002 25.5034 71.8994 25.5913 71.7627 25.6401C71.626 25.6792 71.4893 25.6694 71.3525 25.6108C70.1221 25.064 68.7109 24.5562 67.1191 24.0874C67.0898 24.0776 67.0605 24.0825 67.0312 24.1021C67.0117 24.1216 67.002 24.1411 67.002 24.1606V28.4819C67.002 28.6284 66.9531 28.7505 66.8555 28.8481C66.7578 28.9556 66.6357 29.0093 66.4893 29.0093C66.3428 29.0093 66.2207 28.9556 66.123 28.8481C66.0254 28.7505 65.9766 28.6284 65.9766 28.4819V21.978C65.9766 21.8999 65.9375 21.8608 65.8594 21.8608H60.6006C60.4639 21.8608 60.3467 21.8169 60.249 21.729C60.1514 21.6313 60.1025 21.5142 60.1025 21.3774C60.1025 21.2407 60.1514 21.1235 60.249 21.0259C60.3467 20.9282 60.4639 20.8794 60.6006 20.8794H65.8594C65.9375 20.8794 65.9766 20.8403 65.9766 20.7622V15.855C65.9766 15.7183 66.0254 15.6011 66.123 15.5034C66.2207 15.396 66.3428 15.3423 66.4893 15.3423C66.6357 15.3423 66.7578 15.396 66.8555 15.5034C66.9531 15.6011 67.002 15.7183 67.002 15.855V17.4517C67.002 17.52 67.041 17.5542 67.1191 17.5542H71.3525C71.4893 17.5542 71.6016 17.603 71.6895 17.7007C71.7871 17.7983 71.8359 17.9155 71.8359 18.0522C71.8359 18.1792 71.7871 18.2915 71.6895 18.3892C71.6016 18.4771 71.4893 18.521 71.3525 18.521H67.1191C67.041 18.521 67.002 18.5601 67.002 18.6382V20.7622C67.002 20.8403 67.041 20.8794 67.1191 20.8794H72.9492C73.0859 20.8794 73.2031 20.9282 73.3008 21.0259Z" fill="#4D4945"/>
<path d="M87.1436 19.1069C87.1924 18.9702 87.2754 18.8726 87.3926 18.814C87.5195 18.7456 87.6514 18.731 87.7881 18.77C87.9248 18.8091 88.0225 18.8921 88.0811 19.019C88.1396 19.1362 88.1445 19.2583 88.0957 19.3853C87.5684 20.6841 87.1143 21.7095 86.7334 22.4614C86.6748 22.5688 86.5869 22.647 86.4697 22.6958C86.3525 22.7349 86.2305 22.7349 86.1035 22.6958C85.9961 22.6567 85.9229 22.5884 85.8838 22.4907C85.8447 22.3833 85.8496 22.2759 85.8984 22.1685C86.3574 21.2407 86.7725 20.2202 87.1436 19.1069ZM81.7822 22.4761C81.7236 22.5933 81.626 22.6714 81.4893 22.7104C81.3623 22.7495 81.2402 22.7397 81.123 22.6812C81.0156 22.6323 80.9424 22.5542 80.9033 22.4468C80.874 22.3296 80.8887 22.2173 80.9473 22.1099C81.3574 21.3774 81.6553 20.3716 81.8408 19.0923C81.8506 18.9751 81.8994 18.8823 81.9873 18.814C82.085 18.7358 82.1924 18.7065 82.3096 18.7261C82.4365 18.7456 82.5342 18.8042 82.6025 18.9019C82.6807 18.9995 82.7148 19.1069 82.7051 19.2241C82.5488 20.5815 82.2412 21.6655 81.7822 22.4761ZM80.2002 22.8423C80.2881 22.9595 80.332 23.0962 80.332 23.2524C80.332 23.3989 80.2832 23.5308 80.1855 23.6479C80.1172 23.7358 80.0244 23.7749 79.9072 23.7651C79.7998 23.7554 79.7168 23.7017 79.6582 23.604C79.4434 23.2329 79.1309 22.73 78.7207 22.0952C78.7109 22.0757 78.6963 22.0708 78.6768 22.0806C78.667 22.0806 78.6621 22.0903 78.6621 22.1099V28.5259C78.6621 28.6528 78.6133 28.7651 78.5156 28.8628C78.4277 28.9604 78.3154 29.0093 78.1787 29.0093C78.042 29.0093 77.9248 28.9604 77.8271 28.8628C77.7295 28.7651 77.6807 28.6528 77.6807 28.5259V22.3003C77.6807 22.2905 77.6758 22.2856 77.666 22.2856C77.6562 22.2856 77.6514 22.2905 77.6514 22.3003C77.0068 23.8042 76.3281 25.0298 75.6152 25.9771C75.5371 26.0747 75.4346 26.1187 75.3076 26.1089C75.1904 26.0894 75.0977 26.0259 75.0293 25.9185C74.9609 25.7817 74.9268 25.6499 74.9268 25.5229C74.9268 25.3569 74.9854 25.2007 75.1025 25.0542C75.5518 24.4976 75.9912 23.8237 76.4209 23.0327C76.8604 22.2319 77.2168 21.4409 77.4902 20.6597C77.5 20.6401 77.4951 20.6206 77.4756 20.6011C77.4561 20.5718 77.4365 20.5571 77.417 20.5571H75.5273C75.4004 20.5571 75.2881 20.5132 75.1904 20.4253C75.1025 20.3374 75.0586 20.23 75.0586 20.103C75.0586 19.9663 75.1025 19.854 75.1904 19.7661C75.2881 19.6782 75.4004 19.6343 75.5273 19.6343H77.5781C77.6465 19.6343 77.6807 19.5952 77.6807 19.5171V17.1733C77.6807 17.105 77.6465 17.0757 77.5781 17.0854C77.002 17.2026 76.4258 17.3052 75.8496 17.3931C75.7324 17.4126 75.6201 17.3931 75.5127 17.3345C75.415 17.2661 75.3418 17.1782 75.293 17.0708C75.2539 16.9731 75.2588 16.8804 75.3076 16.7925C75.3564 16.6948 75.4297 16.6362 75.5273 16.6167C77.1973 16.3335 78.5107 16.021 79.4678 15.6792C79.5752 15.6401 79.6777 15.6206 79.7754 15.6206C79.9805 15.6206 80.1611 15.7036 80.3174 15.8696C80.3955 15.9575 80.4199 16.0649 80.3906 16.1919C80.3613 16.3091 80.2881 16.3872 80.1709 16.4263C79.7217 16.5728 79.2529 16.7095 78.7646 16.8364C78.6963 16.8462 78.6621 16.8901 78.6621 16.9683V19.5171C78.6621 19.5952 78.7012 19.6343 78.7793 19.6343H80.4932C80.6201 19.6343 80.7275 19.6782 80.8154 19.7661C80.9131 19.854 80.9619 19.9663 80.9619 20.103C80.9619 20.23 80.9131 20.3374 80.8154 20.4253C80.7275 20.5132 80.6201 20.5571 80.4932 20.5571H78.7793C78.7012 20.5571 78.6621 20.5962 78.6621 20.6743V20.7769C78.6621 20.855 78.6865 20.9185 78.7354 20.9673C79.0674 21.3481 79.5557 21.9731 80.2002 22.8423ZM84.0674 15.8257C84.0674 15.6987 84.1113 15.5913 84.1992 15.5034C84.2871 15.4058 84.3945 15.3569 84.5215 15.3569C84.6582 15.3569 84.7705 15.4058 84.8584 15.5034C84.9463 15.5913 84.9902 15.6987 84.9902 15.8257C84.9902 17.9058 84.9414 19.5415 84.8438 20.7329C84.834 20.811 84.834 20.8843 84.8438 20.9526C85.0977 22.6421 85.498 24.0728 86.0449 25.2446C86.6016 26.4165 87.3584 27.3149 88.3154 27.9399C88.4424 28.0181 88.5059 28.1353 88.5059 28.2915C88.5059 28.3892 88.4717 28.4819 88.4033 28.5698C88.3154 28.687 88.2031 28.7603 88.0664 28.7896C87.9297 28.8188 87.8027 28.7944 87.6855 28.7163C86.2012 27.6812 85.1367 25.938 84.4922 23.4868C84.4922 23.4771 84.4824 23.4722 84.4629 23.4722C84.4531 23.4722 84.4482 23.4771 84.4482 23.4868C84.1748 24.6489 83.7695 25.6694 83.2324 26.5483C82.7051 27.4175 81.9922 28.1548 81.0938 28.7603C80.9961 28.8188 80.8984 28.8481 80.8008 28.8481C80.7715 28.8481 80.7422 28.8433 80.7129 28.8335C80.5762 28.814 80.459 28.7505 80.3613 28.6431C80.2832 28.5649 80.2441 28.4771 80.2441 28.3794C80.2441 28.2427 80.3027 28.1353 80.4199 28.0571C80.918 27.7251 81.3623 27.3345 81.7529 26.8853C82.1436 26.436 82.4658 25.9917 82.7197 25.5522C82.9736 25.1128 83.1885 24.5562 83.3643 23.8823C83.54 23.2085 83.6719 22.6274 83.7598 22.1392C83.8477 21.6509 83.916 20.9771 83.9648 20.1177C84.0137 19.2583 84.0381 18.5747 84.0381 18.0669C84.0479 17.5591 84.0576 16.812 84.0674 15.8257Z" fill="#4D4945"/>
<path d="M102.876 17.0562C103.003 17.0562 103.11 17.1001 103.198 17.188C103.296 17.2759 103.345 17.3882 103.345 17.5249C103.345 17.6519 103.296 17.7593 103.198 17.8472C103.11 17.9351 103.003 17.979 102.876 17.979H90.7031C90.5762 17.979 90.4688 17.9351 90.3809 17.8472C90.293 17.7593 90.249 17.6519 90.249 17.5249C90.249 17.3882 90.293 17.2759 90.3809 17.188C90.4688 17.1001 90.5762 17.0562 90.7031 17.0562H96.1377C96.2061 17.0562 96.2402 17.0171 96.2402 16.939V15.8403C96.2402 15.7036 96.2891 15.5864 96.3867 15.4888C96.4844 15.3911 96.6016 15.3423 96.7383 15.3423C96.8848 15.3423 97.0068 15.3911 97.1045 15.4888C97.2021 15.5864 97.251 15.7036 97.251 15.8403V16.939C97.251 17.0171 97.2852 17.0562 97.3535 17.0562H102.876ZM93.457 18.4771C93.5156 18.3403 93.6133 18.2427 93.75 18.1841C93.8281 18.145 93.9062 18.1255 93.9844 18.1255C94.0332 18.1255 94.0869 18.1353 94.1455 18.1548C94.2725 18.1938 94.3604 18.2769 94.4092 18.4038C94.4678 18.521 94.4727 18.6382 94.4238 18.7554C94.0918 19.4585 93.7109 20.1567 93.2812 20.8501C93.2422 20.9185 93.2227 20.9868 93.2227 21.0552V28.4819C93.2227 28.6284 93.1738 28.7505 93.0762 28.8481C92.9785 28.9458 92.8613 28.9946 92.7246 28.9946C92.5879 28.9946 92.4707 28.9458 92.373 28.8481C92.2754 28.7505 92.2266 28.6284 92.2266 28.4819V22.4907C92.2266 22.4712 92.2168 22.4614 92.1973 22.4614C92.1777 22.4517 92.1631 22.4517 92.1533 22.4614C91.7432 22.9888 91.3086 23.4722 90.8496 23.9116C90.752 24.019 90.6299 24.0679 90.4834 24.0581C90.3369 24.0483 90.21 23.9897 90.1025 23.8823C90.0049 23.7944 89.9561 23.6821 89.9561 23.5454C89.9561 23.3989 90.0098 23.2769 90.1172 23.1792C90.7812 22.5835 91.4014 21.8755 91.9775 21.0552C92.5635 20.2349 93.0566 19.3755 93.457 18.4771ZM99.8291 22.6079C99.9072 22.6958 99.9365 22.8032 99.917 22.9302C99.9072 23.0474 99.8535 23.145 99.7559 23.2231C99.668 23.3013 99.5654 23.3306 99.4482 23.311C99.3311 23.2915 99.2334 23.2378 99.1553 23.1499C98.8525 22.769 98.457 22.3638 97.9688 21.9341C97.8906 21.8657 97.8516 21.7827 97.8516 21.6851C97.8613 21.5776 97.9053 21.4946 97.9834 21.436C98.0713 21.3579 98.1738 21.3237 98.291 21.3335C98.4082 21.3335 98.5156 21.3677 98.6133 21.436C99.082 21.8267 99.4873 22.2173 99.8291 22.6079ZM101.704 20.7183C101.714 20.689 101.709 20.6646 101.689 20.645C101.67 20.6157 101.646 20.6011 101.616 20.6011H97.6758C97.5977 20.6011 97.5391 20.6353 97.5 20.7036C97.2363 21.1235 96.9727 21.5093 96.709 21.8608C96.6699 21.9292 96.665 21.9927 96.6943 22.0513C97.2314 23.1841 97.9492 24.2144 98.8477 25.1421C98.8965 25.2007 98.9502 25.2056 99.0088 25.1567C100.249 23.9067 101.147 22.4272 101.704 20.7183ZM102.144 19.7661C102.241 19.7368 102.334 19.7417 102.422 19.7808L102.612 19.8687C102.7 19.9175 102.764 19.9907 102.803 20.0884C102.852 20.1763 102.861 20.269 102.832 20.3667C102.188 22.5347 101.143 24.3462 99.6973 25.8013C99.6484 25.8599 99.6484 25.9136 99.6973 25.9624C100.762 26.8608 101.943 27.5396 103.242 27.9985C103.369 28.0376 103.447 28.1206 103.477 28.2476C103.486 28.2866 103.491 28.3257 103.491 28.3647C103.491 28.4429 103.467 28.5161 103.418 28.5845C103.32 28.7212 103.193 28.814 103.037 28.8628C102.969 28.8823 102.9 28.8921 102.832 28.8921C102.744 28.8921 102.661 28.8774 102.583 28.8481C101.265 28.3208 100.068 27.5688 98.9941 26.5923C98.9355 26.5435 98.8818 26.5435 98.833 26.5923C97.7197 27.52 96.4258 28.2671 94.9512 28.8335C94.8828 28.8628 94.8096 28.8774 94.7314 28.8774C94.6631 28.8774 94.5947 28.8677 94.5264 28.8481C94.3799 28.7993 94.2578 28.7114 94.1602 28.5845C94.1113 28.5161 94.0869 28.438 94.0869 28.3501C94.0869 28.3208 94.0918 28.2866 94.1016 28.2476C94.1309 28.1304 94.2041 28.0522 94.3213 28.0132C95.7861 27.4956 97.0654 26.7925 98.1592 25.9038C98.208 25.8647 98.208 25.8159 98.1592 25.7573C97.3486 24.8882 96.665 23.897 96.1084 22.7837C96.0791 22.7251 96.04 22.7202 95.9912 22.769C95.6299 23.1987 95.2734 23.5698 94.9219 23.8823C94.8145 23.98 94.6924 24.0239 94.5557 24.0142C94.4287 24.0044 94.3164 23.9507 94.2188 23.853C94.1309 23.7651 94.0869 23.6577 94.0869 23.5308C94.0869 23.394 94.1357 23.2866 94.2334 23.2085C94.9268 22.5933 95.5615 21.8706 96.1377 21.0405C96.7236 20.2007 97.2021 19.3462 97.5732 18.4771C97.6221 18.3501 97.7148 18.2524 97.8516 18.1841C97.9297 18.145 98.0078 18.1255 98.0859 18.1255C98.1348 18.1255 98.1885 18.1353 98.2471 18.1548C98.374 18.1938 98.4668 18.2769 98.5254 18.4038C98.584 18.521 98.584 18.6382 98.5254 18.7554C98.4082 19.0288 98.2617 19.3315 98.0859 19.6636C98.0762 19.6929 98.0762 19.7173 98.0859 19.7368C98.1055 19.7563 98.1299 19.7661 98.1592 19.7661H102.1C102.119 19.7661 102.134 19.7661 102.144 19.7661Z" fill="#4D4945"/>
<path d="M106.201 27.8813C106.084 27.8813 105.986 27.8423 105.908 27.7642C105.84 27.6763 105.815 27.5786 105.835 27.4712L106.187 24.5415C106.196 24.4634 106.167 24.4243 106.099 24.4243H105.308C105.19 24.4243 105.088 24.3853 105 24.3071C104.912 24.2192 104.868 24.1167 104.868 23.9995C104.868 23.8726 104.912 23.7651 105 23.6772C105.088 23.5894 105.19 23.5454 105.308 23.5454H106.201C106.27 23.5454 106.309 23.5112 106.318 23.4429L106.611 21.0991C106.621 21.0308 106.587 20.9966 106.509 20.9966H105.63C105.513 20.9966 105.41 20.9575 105.322 20.8794C105.234 20.7915 105.19 20.689 105.19 20.5718C105.19 20.4448 105.234 20.3423 105.322 20.2642C105.41 20.1763 105.513 20.1323 105.63 20.1323H106.611C106.689 20.1323 106.733 20.0933 106.743 20.0151L107.065 17.4224C107.085 17.3052 107.134 17.2124 107.212 17.144C107.3 17.0659 107.402 17.0269 107.52 17.0269C107.627 17.0269 107.715 17.0659 107.783 17.144C107.861 17.2222 107.896 17.3149 107.886 17.4224L107.563 20.0151C107.554 20.0933 107.588 20.1323 107.666 20.1323H109.717C109.795 20.1323 109.839 20.0933 109.849 20.0151L110.186 17.4224C110.205 17.3052 110.254 17.2124 110.332 17.144C110.42 17.0659 110.522 17.0269 110.64 17.0269C110.747 17.0269 110.835 17.0659 110.903 17.144C110.981 17.2222 111.011 17.3149 110.991 17.4224L110.654 20.0151C110.645 20.0933 110.679 20.1323 110.757 20.1323H111.562C111.68 20.1323 111.777 20.1763 111.855 20.2642C111.943 20.3423 111.987 20.4448 111.987 20.5718C111.987 20.689 111.943 20.7915 111.855 20.8794C111.777 20.9575 111.68 20.9966 111.562 20.9966H110.669C110.591 20.9966 110.547 21.0308 110.537 21.0991L110.244 23.4429C110.244 23.5112 110.278 23.5454 110.347 23.5454H111.226C111.343 23.5454 111.445 23.5894 111.533 23.6772C111.621 23.7651 111.665 23.8726 111.665 23.9995C111.665 24.1167 111.621 24.2192 111.533 24.3071C111.445 24.3853 111.343 24.4243 111.226 24.4243H110.244C110.166 24.4243 110.127 24.4634 110.127 24.5415L109.775 27.4712C109.766 27.5884 109.717 27.686 109.629 27.7642C109.541 27.8423 109.438 27.8813 109.321 27.8813C109.204 27.8813 109.106 27.8423 109.028 27.7642C108.96 27.6763 108.936 27.5786 108.955 27.4712L109.292 24.5415C109.302 24.4634 109.272 24.4243 109.204 24.4243H107.139C107.061 24.4243 107.021 24.4634 107.021 24.5415L106.655 27.4712C106.646 27.5884 106.597 27.686 106.509 27.7642C106.421 27.8423 106.318 27.8813 106.201 27.8813ZM107.153 23.4429C107.144 23.5112 107.173 23.5454 107.241 23.5454H109.307C109.375 23.5454 109.414 23.5112 109.424 23.4429L109.717 21.0991C109.727 21.0308 109.692 20.9966 109.614 20.9966H107.563C107.485 20.9966 107.441 21.0308 107.432 21.0991L107.153 23.4429Z" fill="#4D4945"/>
<path d="M116.66 28.0718C115.654 28.0718 114.819 27.7983 114.155 27.2515C113.501 26.6948 113.174 25.9966 113.174 25.1567C113.174 24.4731 113.364 23.8774 113.745 23.3696C114.136 22.8521 114.619 22.4321 115.195 22.1099C115.205 22.1001 115.21 22.0854 115.21 22.0659C115.21 22.0464 115.205 22.0269 115.195 22.0073C114.219 21.3433 113.73 20.5132 113.73 19.5171C113.73 18.6968 114.009 18.0278 114.565 17.5103C115.132 16.9927 115.84 16.7339 116.689 16.7339C117.598 16.7339 118.32 17.0024 118.857 17.5396C119.395 18.0767 119.663 18.7749 119.663 19.6343C119.663 20.1519 119.517 20.645 119.224 21.1138C118.94 21.5825 118.604 21.9683 118.213 22.271C118.193 22.2905 118.184 22.3149 118.184 22.3442C118.184 22.3638 118.193 22.3784 118.213 22.3882C119.434 23.1108 120.044 24.0679 120.044 25.2593C120.044 26.0601 119.727 26.729 119.092 27.2661C118.467 27.8032 117.656 28.0718 116.66 28.0718ZM117.305 21.9341C117.373 21.9634 117.437 21.9536 117.495 21.9048C118.237 21.2407 118.608 20.5034 118.608 19.6929C118.608 19.1167 118.433 18.6382 118.081 18.2573C117.729 17.8667 117.256 17.6714 116.66 17.6714C116.133 17.6714 115.698 17.8423 115.356 18.1841C115.024 18.5259 114.858 18.9702 114.858 19.5171C114.858 19.8296 114.922 20.1128 115.049 20.3667C115.176 20.6206 115.366 20.8452 115.62 21.0405C115.874 21.2358 116.123 21.397 116.367 21.5239C116.621 21.6509 116.934 21.7876 117.305 21.9341ZM116.675 27.1636C117.329 27.1636 117.856 26.9829 118.257 26.6216C118.667 26.2505 118.872 25.7866 118.872 25.23C118.872 24.937 118.813 24.6685 118.696 24.4243C118.589 24.1802 118.462 23.98 118.315 23.8237C118.169 23.6577 117.949 23.4868 117.656 23.311C117.363 23.1353 117.104 22.9985 116.88 22.9009C116.665 22.8032 116.362 22.6763 115.972 22.52C115.942 22.5103 115.918 22.5054 115.898 22.5054C115.859 22.5054 115.82 22.5151 115.781 22.5347C115.322 22.8472 114.956 23.2183 114.683 23.6479C114.419 24.0776 114.287 24.5464 114.287 25.0542C114.287 25.6597 114.512 26.1626 114.961 26.563C115.42 26.9634 115.991 27.1636 116.675 27.1636Z" fill="#4D4945"/>
<path d="M121.772 27.8813C121.675 27.8813 121.587 27.8472 121.509 27.7788C121.44 27.7007 121.406 27.6128 121.406 27.5151C121.406 27.271 121.499 27.0659 121.685 26.8999C123.335 25.4351 124.546 24.146 125.317 23.0327C126.089 21.9097 126.475 20.8843 126.475 19.9565C126.475 19.2827 126.294 18.7407 125.933 18.3306C125.581 17.9106 125.068 17.7007 124.395 17.7007C123.711 17.7007 123.042 18.0132 122.388 18.6382C122.29 18.7358 122.173 18.7896 122.036 18.7993C121.909 18.7993 121.797 18.7505 121.699 18.6528C121.592 18.5552 121.538 18.438 121.538 18.3013C121.538 18.1646 121.587 18.0474 121.685 17.9497C122.544 17.1196 123.491 16.7046 124.526 16.7046C125.493 16.7046 126.26 16.9976 126.826 17.5835C127.393 18.1597 127.676 18.936 127.676 19.9126C127.676 20.9575 127.305 22.0415 126.562 23.1646C125.83 24.2778 124.756 25.5034 123.34 26.8413C123.32 26.8608 123.315 26.8804 123.325 26.8999C123.335 26.9097 123.35 26.9146 123.369 26.9146C123.926 26.856 124.487 26.8267 125.054 26.8267H127.676C127.822 26.8267 127.944 26.8804 128.042 26.9878C128.149 27.0854 128.203 27.2075 128.203 27.354C128.203 27.5005 128.149 27.6274 128.042 27.7349C127.944 27.8325 127.822 27.8813 127.676 27.8813H121.772Z" fill="#4D4945"/>
<path d="M130.811 27.8813C130.674 27.8813 130.552 27.8325 130.444 27.7349C130.347 27.6372 130.298 27.52 130.298 27.3833C130.298 27.2368 130.347 27.1147 130.444 27.0171C130.552 26.9097 130.674 26.856 130.811 26.856H132.656C132.725 26.856 132.759 26.8218 132.759 26.7534V18.5503C132.759 18.4819 132.725 18.4478 132.656 18.4478H131.221C131.113 18.4478 131.021 18.4087 130.942 18.3306C130.864 18.2524 130.825 18.1597 130.825 18.0522C130.825 17.9351 130.859 17.8325 130.928 17.7446C131.006 17.6567 131.104 17.5981 131.221 17.5688C131.768 17.4614 132.241 17.3101 132.642 17.1147C132.944 16.9683 133.232 16.895 133.506 16.895C133.633 16.895 133.74 16.9438 133.828 17.0415C133.926 17.1294 133.975 17.2368 133.975 17.3638V26.7534C133.975 26.8218 134.014 26.856 134.092 26.856H135.703C135.84 26.856 135.957 26.9097 136.055 27.0171C136.162 27.1147 136.216 27.2368 136.216 27.3833C136.216 27.52 136.162 27.6372 136.055 27.7349C135.957 27.8325 135.84 27.8813 135.703 27.8813H130.811Z" fill="#4D4945"/>
<path d="M139.043 27.8813C138.906 27.8813 138.784 27.8325 138.677 27.7349C138.579 27.6372 138.53 27.52 138.53 27.3833C138.53 27.2368 138.579 27.1147 138.677 27.0171C138.784 26.9097 138.906 26.856 139.043 26.856H140.889C140.957 26.856 140.991 26.8218 140.991 26.7534V18.5503C140.991 18.4819 140.957 18.4478 140.889 18.4478H139.453C139.346 18.4478 139.253 18.4087 139.175 18.3306C139.097 18.2524 139.058 18.1597 139.058 18.0522C139.058 17.9351 139.092 17.8325 139.16 17.7446C139.238 17.6567 139.336 17.5981 139.453 17.5688C140 17.4614 140.474 17.3101 140.874 17.1147C141.177 16.9683 141.465 16.895 141.738 16.895C141.865 16.895 141.973 16.9438 142.061 17.0415C142.158 17.1294 142.207 17.2368 142.207 17.3638V26.7534C142.207 26.8218 142.246 26.856 142.324 26.856H143.936C144.072 26.856 144.189 26.9097 144.287 27.0171C144.395 27.1147 144.448 27.2368 144.448 27.3833C144.448 27.52 144.395 27.6372 144.287 27.7349C144.189 27.8325 144.072 27.8813 143.936 27.8813H139.043Z" fill="#4D4945"/>
<defs>
<filter id="filter0_bii" x="-50.0006" y="-50" width="300" height="145" filterUnits="userSpaceOnUse" color-interpolation-filters="sRGB">
<feFlood flood-opacity="0" result="BackgroundImageFix"/>
<feGaussianBlur in="BackgroundImage" stdDeviation="25"/>
<feComposite in2="SourceAlpha" operator="in" result="effect1_backgroundBlur"/>
<feBlend mode="normal" in="SourceGraphic" in2="effect1_backgroundBlur" result="shape"/>
<feColorMatrix in="SourceAlpha" type="matrix" values="0 0 0 0 0 0 0 0 0 0 0 0 0 0 0 0 0 0 127 0" result="hardAlpha"/>
<feOffset dx="4" dy="4"/>
<feGaussianBlur stdDeviation="2.5"/>
<feComposite in2="hardAlpha" operator="arithmetic" k2="-1" k3="1"/>
<feColorMatrix type="matrix" values="0 0 0 0 0 0 0 0 0 0 0 0 0 0 0 0 0 0 0.1 0"/>
<feBlend mode="normal" in2="shape" result="effect2_innerShadow"/>
<feColorMatrix in="SourceAlpha" type="matrix" values="0 0 0 0 0 0 0 0 0 0 0 0 0 0 0 0 0 0 127 0" result="hardAlpha"/>
<feOffset dx="-4" dy="-4"/>
<feGaussianBlur stdDeviation="2.5"/>
<feComposite in2="hardAlpha" operator="arithmetic" k2="-1" k3="1"/>
<feColorMatrix type="matrix" values="0 0 0 0 1 0 0 0 0 1 0 0 0 0 1 0 0 0 0.4 0"/>
<feBlend mode="normal" in2="effect2_innerShadow" result="effect3_innerShadow"/>
</filter>
</defs>
</svg>
