<svg width="25" height="23" viewBox="0 0 25 23" fill="none" xmlns="http://www.w3.org/2000/svg">
<g clip-path="url(#clip0)">
<path d="M9.51368 1.60773L8.81635 1.69166C8.81635 1.69166 5.68778 2.03362 3.40296 3.86844H3.37618L3.3476 3.89523C2.8351 4.36666 2.61189 4.94612 2.25921 5.79344C1.84348 6.81287 1.48957 7.85643 1.19939 8.91844C0.53689 11.314 -0.000610352 14.2158 -0.000610352 16.8702V17.0934L0.110997 17.3167C0.937782 18.7675 2.40564 19.6917 3.76635 20.33C5.12618 20.9684 6.30207 21.3068 7.11457 21.3345L7.64493 21.3622L7.9235 20.8881L8.90028 19.1577C9.936 19.3917 11.1289 19.5488 12.4994 19.5488C13.8699 19.5488 15.0628 19.3917 16.0985 19.1577L17.0753 20.8881L17.3547 21.3622L17.8842 21.3345C18.6967 21.3068 19.8726 20.9684 21.2324 20.33C22.5931 19.6917 24.061 18.7675 24.8878 17.3167L24.9994 17.0934V16.8702C24.9994 14.2158 24.4619 11.314 23.7994 8.91844C23.5092 7.85643 23.1553 6.81287 22.7396 5.79344C22.3869 4.94523 22.1637 4.36666 21.6512 3.89612L21.6235 3.86755H21.5949C19.3119 2.03362 16.1824 1.69166 16.1824 1.69166L15.4851 1.60773L15.2333 2.24969C15.2333 2.24969 14.9753 2.90148 14.8155 3.64523C14.0479 3.53932 13.2742 3.48325 12.4994 3.47737C12.0217 3.47737 11.1958 3.50862 10.1833 3.64523C10.0226 2.90148 9.76457 2.24969 9.76457 2.24969L9.51368 1.60773ZM8.286 3.64523C8.32439 3.77023 8.36278 3.87826 8.3976 3.98005C7.24314 4.26576 6.01189 4.70148 4.88243 5.40237L5.83064 6.90951C8.14671 5.47201 11.4735 5.26308 12.4994 5.26308C13.5244 5.26308 16.8521 5.47201 19.1681 6.90951L20.1164 5.40237C18.9869 4.70148 17.7556 4.26576 16.6012 3.97916C16.636 3.87826 16.6744 3.77023 16.7128 3.64433C17.5458 3.81219 19.1369 4.19612 20.4512 5.23541C20.444 5.23898 20.786 5.75505 21.0931 6.49076C21.4074 7.24791 21.7556 8.25594 22.0699 9.39255C22.6735 11.572 23.1476 14.2265 23.186 16.5631C22.6235 17.4211 21.5815 18.1952 20.4789 18.7122C19.7873 19.039 19.0557 19.2731 18.303 19.4086L17.8565 18.6559C18.1217 18.5577 18.3833 18.4506 18.6101 18.3488C19.9842 17.7452 20.7306 17.0934 20.7306 17.0934L19.5583 15.7542C19.5583 15.7542 19.0565 16.2149 17.8842 16.7309C16.7137 17.247 14.9235 17.7631 12.4994 17.7631C10.0753 17.7631 8.286 17.247 7.11457 16.7309C5.94225 16.2149 5.44046 15.7542 5.44046 15.7542L4.26814 17.0934C4.26814 17.0934 5.01457 17.7452 6.38868 18.3488C6.61546 18.4506 6.87707 18.5586 7.14225 18.6559L6.69582 19.4095C5.94267 19.2735 5.21076 19.0388 4.51903 18.7113C3.41725 18.1952 2.37439 17.4211 1.81368 16.5631C1.85118 14.2265 2.32528 11.572 2.92975 9.39255C3.19685 8.40668 3.52273 7.43768 3.90564 6.49076C4.21278 5.75505 4.55475 5.23898 4.5476 5.23541C5.86189 4.19612 7.45296 3.81219 8.286 3.64523ZM9.37439 9.72737C8.68421 9.72737 8.0735 10.1211 7.70028 10.6202C7.32707 11.1193 7.14225 11.7327 7.14225 12.4059C7.14225 13.0792 7.32707 13.6925 7.70028 14.1917C8.0735 14.6908 8.68421 15.0845 9.37439 15.0845C10.0646 15.0845 10.6753 14.6908 11.0485 14.1917C11.4217 13.6925 11.6065 13.0792 11.6065 12.4059C11.6065 11.7327 11.4217 11.1193 11.0485 10.6202C10.6753 10.1211 10.0646 9.72737 9.37439 9.72737ZM15.6244 9.72737C14.9342 9.72737 14.3235 10.1211 13.9503 10.6202C13.5771 11.1193 13.3922 11.7327 13.3922 12.4059C13.3922 13.0792 13.5771 13.6925 13.9503 14.1917C14.3235 14.6908 14.9342 15.0845 15.6244 15.0845C16.3146 15.0845 16.9253 14.6908 17.2985 14.1917C17.6717 13.6925 17.8565 13.0792 17.8565 12.4059C17.8565 11.7327 17.6717 11.1193 17.2985 10.6202C16.9253 10.1211 16.3146 9.72737 15.6244 9.72737ZM9.37439 11.5131C9.4235 11.5131 9.486 11.5309 9.5976 11.6809C9.70921 11.83 9.82082 12.0917 9.82082 12.4059C9.82082 12.7202 9.70921 12.9818 9.5976 13.1318C9.486 13.2809 9.4235 13.2988 9.37439 13.2988C9.32528 13.2988 9.26278 13.2809 9.15118 13.1309C9.00352 12.9182 8.92553 12.6649 8.92796 12.4059C8.92796 12.0917 9.03957 11.83 9.15118 11.68C9.26278 11.5309 9.32528 11.5131 9.37439 11.5131ZM15.6244 11.5131C15.6735 11.5131 15.736 11.5309 15.8476 11.6809C15.9592 11.83 16.0708 12.0917 16.0708 12.4059C16.0708 12.7202 15.9592 12.9818 15.8476 13.1318C15.736 13.2809 15.6735 13.2988 15.6244 13.2988C15.5753 13.2988 15.5128 13.2809 15.4012 13.1309C15.2535 12.9182 15.1755 12.6649 15.178 12.4059C15.178 12.0917 15.2896 11.83 15.4012 11.68C15.5128 11.5309 15.5753 11.5131 15.6244 11.5131Z" stroke="white" stroke-width="0.7"/>
</g>
<defs>
<clipPath id="clip0">
<rect width="25" height="21.4286" fill="white" transform="translate(-0.000610352 0.798798)"/>
</clipPath>
</defs>
</svg>
