<svg width="71" height="91" viewBox="0 0 71 91" fill="none" xmlns="http://www.w3.org/2000/svg">
<path fill-rule="evenodd" clip-rule="evenodd" d="M51.7736 19.3874C47.8417 15.4556 42.636 13.0558 37.0928 12.6195C31.5495 12.1832 26.0324 13.7392 21.534 17.0075C17.0355 20.2759 13.8508 25.042 12.5528 30.4488C11.2547 35.8556 11.9285 41.5481 14.4529 46.5025C16.9772 51.4569 21.1866 55.3479 26.3237 57.4758C31.4609 59.6037 37.1887 59.8287 42.477 58.1105C47.7652 56.3922 52.2669 52.8434 55.1722 48.1024C58.0775 43.3613 59.1958 37.7392 58.326 32.2473L69.8295 30.4253C70.1371 32.3671 70.2788 34.3197 70.2586 36.2633C70.1933 42.5584 68.4299 48.7586 65.1029 54.1879C60.7486 61.2934 54.0018 66.6122 46.0761 69.1874C38.1504 71.7626 29.5659 71.4253 21.8666 68.2362C14.1674 65.0471 7.85871 59.2154 4.07534 51.7901C0.291969 44.3648 -0.717812 35.8332 1.22763 27.7299C3.17306 19.6266 7.94604 12.4833 14.6881 7.58493C21.4301 2.68656 29.6987 0.35458 38.0066 1.00842C44.3545 1.50802 50.4071 3.72577 55.5383 7.37309C57.1226 8.4992 58.619 9.7616 60.0092 11.1518L51.7736 19.3874Z" fill="url(#paint0_linear)"/>
<g filter="url(#filter0_bdii)">
<path d="M50.7604 35.9004C50.7604 45.5654 42.9254 53.4004 33.2605 53.4004C23.5955 53.4004 15.7605 45.5654 15.7605 35.9004C15.7605 26.2355 23.5955 18.4005 33.2605 18.4005C42.9254 18.4005 50.7604 26.2355 50.7604 35.9004Z" fill="white"/>
</g>
<path d="M30.7813 23.0671C29.5054 23.0685 28.2821 23.576 27.3799 24.4782C26.4777 25.3804 25.9702 26.6037 25.9688 27.8796C25.9688 29.3304 26.6163 30.6297 27.6348 31.5126C26.8674 31.924 26.2259 32.5357 25.7784 33.2827C25.331 34.0296 25.0944 34.8839 25.0938 35.7546C25.0938 37.3821 25.9093 38.8206 27.1501 39.6921C26.5158 40.1346 25.9977 40.7236 25.6398 41.4091C25.2818 42.0945 25.0945 42.8563 25.0938 43.6296C25.0938 46.2835 27.2524 48.4421 29.9063 48.4421C32.5602 48.4421 34.7188 46.2835 34.7188 43.6296V32.6921H37.7813C40.4352 32.6921 42.5938 30.5335 42.5938 27.8796C42.5938 25.2258 40.4352 23.0671 37.7813 23.0671H30.7813ZM30.7813 24.8171H37.7813C39.47 24.8171 40.8438 26.1909 40.8438 27.8796C40.8438 29.5684 39.47 30.9421 37.7813 30.9421H30.7813C29.0926 30.9421 27.7188 29.5684 27.7188 27.8796C27.7188 26.1909 29.0926 24.8171 30.7813 24.8171ZM29.9063 32.6921H32.9688V38.8171H29.9063C28.2176 38.8171 26.8438 37.4434 26.8438 35.7546C26.8438 34.0659 28.2176 32.6921 29.9063 32.6921ZM38.2188 32.6921C37.2905 32.6921 36.4003 33.0609 35.7439 33.7172C35.0875 34.3736 34.7188 35.2639 34.7188 36.1921C34.7188 37.1204 35.0875 38.0106 35.7439 38.667C36.4003 39.3234 37.2905 39.6921 38.2188 39.6921C39.147 39.6921 40.0373 39.3234 40.6937 38.667C41.35 38.0106 41.7188 37.1204 41.7188 36.1921C41.7188 35.2639 41.35 34.3736 40.6937 33.7172C40.0373 33.0609 39.147 32.6921 38.2188 32.6921ZM29.9063 40.5671H32.9688V43.6296C32.9688 45.3183 31.595 46.6921 29.9063 46.6921C28.2176 46.6921 26.8438 45.3183 26.8438 43.6296C26.8438 41.9409 28.2176 40.5671 29.9063 40.5671Z" fill="url(#paint1_linear)"/>
<path d="M22.824 88.3321C22.7654 88.3907 22.6938 88.42 22.6092 88.42C22.531 88.42 22.4627 88.3907 22.4041 88.3321C22.3455 88.2735 22.3162 88.2019 22.3162 88.1172V81.711C22.3162 81.5482 22.3715 81.4115 22.4822 81.3008C22.5929 81.1901 22.7296 81.1348 22.8924 81.1348H26.076C26.1476 81.1348 26.2062 81.1608 26.2517 81.2129C26.3038 81.2585 26.3299 81.3171 26.3299 81.3887C26.3299 81.4538 26.3038 81.5124 26.2517 81.5645C26.2062 81.6166 26.1476 81.6426 26.076 81.6426H22.9803C22.9347 81.6426 22.9119 81.6654 22.9119 81.711V84.377C22.9119 84.4226 22.9347 84.4453 22.9803 84.4453H25.5486C25.6202 84.4453 25.6788 84.4714 25.7244 84.5235C25.7765 84.5756 25.8025 84.6374 25.8025 84.709C25.8025 84.7741 25.7765 84.8327 25.7244 84.8848C25.6788 84.9369 25.6202 84.9629 25.5486 84.9629H22.9803C22.9347 84.9629 22.9119 84.9857 22.9119 85.0313V88.1172C22.9119 88.2019 22.8826 88.2735 22.824 88.3321Z" fill="#4D4945"/>
<path d="M28.0584 88.3418C27.9998 88.3939 27.9314 88.42 27.8533 88.42C27.7752 88.42 27.7068 88.3939 27.6482 88.3418C27.5896 88.2832 27.5603 88.2116 27.5603 88.127V83.3809C27.5603 83.3028 27.5896 83.2344 27.6482 83.1758C27.7068 83.1172 27.7752 83.0879 27.8533 83.0879C27.9314 83.0879 27.9998 83.1172 28.0584 83.1758C28.117 83.2344 28.1463 83.3028 28.1463 83.3809V88.127C28.1463 88.2116 28.117 88.2832 28.0584 88.3418ZM27.8631 81.8379C27.7263 81.8379 27.6092 81.7956 27.5115 81.711C27.4204 81.6263 27.3748 81.5157 27.3748 81.3789C27.3748 81.2357 27.4204 81.1218 27.5115 81.0371C27.6092 80.946 27.7263 80.9004 27.8631 80.9004C27.9998 80.9004 28.1137 80.946 28.2049 81.0371C28.3025 81.1218 28.3513 81.2357 28.3513 81.3789C28.3513 81.5091 28.3025 81.6198 28.2049 81.711C28.1137 81.7956 27.9998 81.8379 27.8631 81.8379Z" fill="#4D4945"/>
<path d="M31.8865 90.9883C31.2159 90.9883 30.6788 90.8581 30.2752 90.5977C29.878 90.3373 29.6795 89.9825 29.6795 89.5332C29.6795 89.3054 29.7478 89.0808 29.8846 88.8594C30.0278 88.6381 30.2198 88.4427 30.4607 88.2735C30.4737 88.267 30.4803 88.2539 30.4803 88.2344C30.4803 88.2279 30.477 88.2214 30.4705 88.2149C30.4705 88.2084 30.4672 88.2019 30.4607 88.1953C30.1547 88.0065 30.0017 87.7266 30.0017 87.3555C30.0017 86.9909 30.1938 86.6621 30.5779 86.3692C30.5909 86.3627 30.5974 86.3529 30.5974 86.3399C30.5974 86.3269 30.5909 86.3171 30.5779 86.3106C30.3891 86.1543 30.2296 85.9492 30.0994 85.6953C29.9757 85.4414 29.9138 85.168 29.9138 84.875C29.9138 84.3282 30.0994 83.8757 30.4705 83.5176C30.8416 83.1595 31.2908 82.9805 31.8181 82.9805C32.0395 82.9805 32.2543 83.0196 32.4627 83.0977C32.5148 83.1107 32.5636 83.1172 32.6092 83.1172H34.1131C34.1782 83.1172 34.2335 83.1433 34.2791 83.1953C34.3312 83.2409 34.3572 83.2963 34.3572 83.3614C34.3572 83.4265 34.3312 83.4851 34.2791 83.5371C34.2335 83.5827 34.1782 83.6055 34.1131 83.6055H33.2244C33.2114 83.6055 33.2016 83.612 33.1951 83.625C33.1951 83.6315 33.1984 83.6413 33.2049 83.6543C33.5369 83.9733 33.7029 84.3835 33.7029 84.8848C33.7029 85.4252 33.5206 85.8744 33.156 86.2325C32.798 86.584 32.352 86.7598 31.8181 86.7598C31.5317 86.7598 31.268 86.6979 31.0271 86.5742C30.9816 86.5547 30.9425 86.558 30.9099 86.584C30.6625 86.7923 30.5388 87.0235 30.5388 87.2774C30.5388 87.7266 30.8741 87.9512 31.5447 87.9512H32.658C33.27 87.9512 33.7192 88.0521 34.0056 88.2539C34.2986 88.4492 34.4451 88.7585 34.4451 89.1817C34.4451 89.67 34.2042 90.0931 33.7224 90.4512C33.2472 90.8093 32.6352 90.9883 31.8865 90.9883ZM31.8181 86.3203C32.1827 86.3203 32.4952 86.1869 32.7556 85.92C33.0161 85.6465 33.1463 85.2982 33.1463 84.875C33.1463 84.4453 33.0193 84.1003 32.7654 83.8399C32.5115 83.5795 32.1957 83.4492 31.8181 83.4492C31.4471 83.4492 31.1313 83.5795 30.8709 83.8399C30.617 84.1003 30.49 84.4453 30.49 84.875C30.49 85.2982 30.6202 85.6465 30.8806 85.92C31.1411 86.1869 31.4536 86.3203 31.8181 86.3203ZM31.9549 90.5489C32.5082 90.5489 32.964 90.4187 33.3221 90.1582C33.6801 89.8978 33.8592 89.5983 33.8592 89.2598C33.8592 88.9864 33.7582 88.7878 33.5564 88.6641C33.3611 88.5404 33.0584 88.4785 32.6482 88.4785H31.5642C31.408 88.4785 31.2094 88.4558 30.9685 88.4102C30.9555 88.4037 30.9425 88.4004 30.9295 88.4004C30.8904 88.4004 30.8579 88.4102 30.8318 88.4297C30.4347 88.7292 30.2361 89.0742 30.2361 89.4649C30.2361 89.7904 30.3859 90.0508 30.6853 90.2461C30.9913 90.4479 31.4145 90.5489 31.9549 90.5489Z" fill="#4D4945"/>
<path d="M36.0564 88.3418C35.9978 88.3939 35.9295 88.42 35.8513 88.42C35.7732 88.42 35.7049 88.3939 35.6463 88.3418C35.5877 88.2832 35.5584 88.2116 35.5584 88.127V83.3321C35.5584 83.267 35.5812 83.2116 35.6267 83.166C35.6788 83.114 35.7374 83.0879 35.8025 83.0879C35.8676 83.0879 35.9262 83.1107 35.9783 83.1563C36.0304 83.2019 36.0597 83.2604 36.0662 83.3321L36.115 83.8887C36.115 83.8952 36.1183 83.8985 36.1248 83.8985C36.1313 83.8985 36.1346 83.8952 36.1346 83.8887C36.7075 83.2637 37.2674 82.9512 37.8142 82.9512C38.5564 82.9512 39.0382 83.2865 39.2596 83.9571C39.2661 83.9766 39.2758 83.9896 39.2888 83.9961C39.3084 83.9961 39.3214 83.9896 39.3279 83.9766C39.9724 83.293 40.5584 82.9512 41.0857 82.9512C42.1469 82.9512 42.6775 83.6381 42.6775 85.0117V88.127C42.6775 88.2116 42.6482 88.2832 42.5896 88.3418C42.5375 88.3939 42.4692 88.42 42.3846 88.42C42.3064 88.42 42.2381 88.3939 42.1795 88.3418C42.1274 88.2832 42.1013 88.2116 42.1013 88.127V85.0899C42.1013 84.5365 42.0069 84.1296 41.8181 83.8692C41.6293 83.6022 41.3396 83.4688 40.949 83.4688C40.5063 83.4688 40.0115 83.7715 39.4646 84.377C39.4321 84.4095 39.4158 84.4519 39.4158 84.5039V88.127C39.4158 88.2116 39.3865 88.2832 39.3279 88.3418C39.2693 88.3939 39.201 88.42 39.1228 88.42C39.0447 88.42 38.9763 88.3939 38.9178 88.3418C38.8592 88.2832 38.8299 88.2116 38.8299 88.127V85.0899C38.8299 84.5365 38.7355 84.1296 38.5467 83.8692C38.3644 83.6022 38.0747 83.4688 37.6775 83.4688C37.2283 83.4688 36.7335 83.7715 36.1931 84.377C36.1606 84.4095 36.1443 84.4519 36.1443 84.5039V88.127C36.1443 88.2116 36.115 88.2832 36.0564 88.3418Z" fill="#4D4945"/>
<path d="M45.7732 88.5469C45.324 88.5469 44.9529 88.4232 44.6599 88.1758C44.3735 87.9219 44.2303 87.5573 44.2303 87.0821C44.2303 86.5026 44.4907 86.0599 45.0115 85.7539C45.5388 85.4414 46.3852 85.2168 47.5506 85.0801C47.6027 85.0736 47.6287 85.041 47.6287 84.9825C47.6287 84.7806 47.6092 84.5951 47.5701 84.4258C47.5375 84.2565 47.4757 84.097 47.3846 83.9473C47.2999 83.791 47.173 83.6706 47.0037 83.586C46.8409 83.5013 46.6424 83.459 46.408 83.459C45.9067 83.459 45.4119 83.6153 44.9236 83.9278C44.8715 83.9668 44.8129 83.9798 44.7478 83.9668C44.6827 83.9538 44.6306 83.918 44.5916 83.8594C44.559 83.8008 44.5493 83.739 44.5623 83.6739C44.5753 83.6022 44.6111 83.5502 44.6697 83.5176C45.2882 83.14 45.8937 82.9512 46.4861 82.9512C47.0851 82.9512 47.5213 83.14 47.7947 83.5176C48.0681 83.8952 48.2049 84.403 48.2049 85.041V88.1758C48.2049 88.2409 48.1788 88.2995 48.1267 88.3516C48.0812 88.3972 48.0258 88.42 47.9607 88.42C47.8891 88.42 47.8273 88.3972 47.7752 88.3516C47.7296 88.306 47.7036 88.2474 47.6971 88.1758L47.658 87.7461C47.658 87.7396 47.6547 87.7364 47.6482 87.7364C47.6417 87.7364 47.6352 87.7396 47.6287 87.7461C46.9711 88.28 46.3527 88.5469 45.7732 88.5469ZM45.9002 88.0586C46.1736 88.0586 46.4405 87.9968 46.701 87.8731C46.9679 87.7429 47.2576 87.5443 47.5701 87.2774C47.6092 87.2448 47.6287 87.2058 47.6287 87.1602V85.5684C47.6287 85.5293 47.6092 85.5098 47.5701 85.5098C47.5636 85.5098 47.5571 85.5098 47.5506 85.5098C46.5545 85.627 45.8481 85.8093 45.4314 86.0567C45.0148 86.3041 44.8064 86.6361 44.8064 87.0528C44.8064 87.3978 44.9073 87.6517 45.1092 87.8145C45.311 87.9772 45.5747 88.0586 45.9002 88.0586Z" fill="#4D4945"/>
<defs>
<filter id="filter0_bdii" x="-34.2395" y="-31.5995" width="135" height="135" filterUnits="userSpaceOnUse" color-interpolation-filters="sRGB">
<feFlood flood-opacity="0" result="BackgroundImageFix"/>
<feGaussianBlur in="BackgroundImage" stdDeviation="25"/>
<feComposite in2="SourceAlpha" operator="in" result="effect1_backgroundBlur"/>
<feColorMatrix in="SourceAlpha" type="matrix" values="0 0 0 0 0 0 0 0 0 0 0 0 0 0 0 0 0 0 127 0"/>
<feOffset/>
<feGaussianBlur stdDeviation="5"/>
<feColorMatrix type="matrix" values="0 0 0 0 0 0 0 0 0 0 0 0 0 0 0 0 0 0 0.25 0"/>
<feBlend mode="normal" in2="effect1_backgroundBlur" result="effect2_dropShadow"/>
<feBlend mode="normal" in="SourceGraphic" in2="effect2_dropShadow" result="shape"/>
<feColorMatrix in="SourceAlpha" type="matrix" values="0 0 0 0 0 0 0 0 0 0 0 0 0 0 0 0 0 0 127 0" result="hardAlpha"/>
<feOffset dx="4" dy="4"/>
<feGaussianBlur stdDeviation="5"/>
<feComposite in2="hardAlpha" operator="arithmetic" k2="-1" k3="1"/>
<feColorMatrix type="matrix" values="0 0 0 0 0 0 0 0 0 0 0 0 0 0 0 0 0 0 0.15 0"/>
<feBlend mode="normal" in2="shape" result="effect3_innerShadow"/>
<feColorMatrix in="SourceAlpha" type="matrix" values="0 0 0 0 0 0 0 0 0 0 0 0 0 0 0 0 0 0 127 0" result="hardAlpha"/>
<feOffset dx="-4" dy="-4"/>
<feGaussianBlur stdDeviation="5"/>
<feComposite in2="hardAlpha" operator="arithmetic" k2="-1" k3="1"/>
<feColorMatrix type="matrix" values="0 0 0 0 1 0 0 0 0 1 0 0 0 0 1 0 0 0 0.4 0"/>
<feBlend mode="normal" in2="effect3_innerShadow" result="effect4_innerShadow"/>
</filter>
<linearGradient id="paint0_linear" x1="8.42723" y1="10.2338" x2="60.3438" y2="67.4004" gradientUnits="userSpaceOnUse">
<stop stop-color="#6699FF"/>
<stop offset="1" stop-color="#FF3366"/>
</linearGradient>
<linearGradient id="paint1_linear" x1="27.4271" y1="23.0671" x2="42.0104" y2="44.6504" gradientUnits="userSpaceOnUse">
<stop stop-color="#F24E1E"/>
<stop offset="0.2282" stop-color="#FF7262"/>
<stop offset="0.461253" stop-color="#A259FF"/>
<stop offset="0.635584" stop-color="#1ABCFE"/>
<stop offset="1" stop-color="#0ACF83"/>
</linearGradient>
</defs>
</svg>
