<svg width="50" height="50" viewBox="0 0 50 50" fill="none" xmlns="http://www.w3.org/2000/svg">
<path fill-rule="evenodd" clip-rule="evenodd" d="M25 50C38.8071 50 50 38.8071 50 25C50 11.1929 38.8071 0 25 0C11.1929 0 0 11.1929 0 25C0 38.8071 11.1929 50 25 50ZM15 29C13.3431 29 12 30.3431 12 32V38C12 38.9319 12 39.3978 12.1522 39.7654C12.3552 40.2554 12.7446 40.6448 13.2346 40.8478C13.6022 41 14.0681 41 15 41C15.9319 41 16.3978 41 16.7654 40.8478C17.2554 40.6448 17.6448 40.2554 17.8478 39.7654C18 39.3978 18 38.9319 18 38V32C18 30.3431 16.6569 29 15 29ZM22 24C22 22.3431 23.3431 21 25 21C26.6569 21 28 22.3431 28 24V38C28 38.9319 28 39.3978 27.8478 39.7654C27.6448 40.2554 27.2554 40.6448 26.7654 40.8478C26.3978 41 25.9319 41 25 41C24.0681 41 23.6022 41 23.2346 40.8478C22.7446 40.6448 22.3552 40.2554 22.1522 39.7654C22 39.3978 22 38.9319 22 38V24ZM35 10C33.3431 10 32 11.3431 32 13V38C32 38.9319 32 39.3978 32.1522 39.7654C32.3552 40.2554 32.7446 40.6448 33.2346 40.8478C33.6022 41 34.0681 41 35 41C35.9319 41 36.3978 41 36.7654 40.8478C37.2554 40.6448 37.6448 40.2554 37.8478 39.7654C38 39.3978 38 38.9319 38 38V13C38 11.3431 36.6569 10 35 10Z" fill="white"/>
</svg>
