<svg width="50" height="50" viewBox="0 0 50 50" fill="none" xmlns="http://www.w3.org/2000/svg">
<path fill-rule="evenodd" clip-rule="evenodd" d="M25 50C38.8071 50 50 38.8071 50 25C50 11.1929 38.8071 0 25 0C11.1929 0 0 11.1929 0 25C0 38.8071 11.1929 50 25 50ZM23.4912 27.9905C23.4886 28.52 23.6262 29.0408 23.89 29.5C25.8791 29.4483 27.7662 28.6085 29.1362 27.1654C30.5061 25.7223 31.2467 23.7941 31.195 21.805C31.1433 19.8159 30.3035 17.9288 28.8604 16.5588C27.4173 15.1889 25.4891 14.4483 23.5 14.5H17.5C15.5109 14.5 13.6032 15.2902 12.1967 16.6967C10.7902 18.1032 10 20.0109 10 22C10 23.9891 10.7902 25.8968 12.1967 27.3033C13.6032 28.7098 15.5109 29.5 17.5 29.5H17.62C17.4538 28.5069 17.4538 27.4931 17.62 26.5H17.5C16.3065 26.5 15.1619 26.0259 14.318 25.182C13.4741 24.3381 13 23.1935 13 22C13 20.8065 13.4741 19.6619 14.318 18.818C15.1619 17.9741 16.3065 17.5 17.5 17.5H23.5C24.6653 17.4896 25.7891 17.9317 26.6351 18.7332C27.481 19.5347 27.983 20.633 28.0355 21.7972C28.088 22.9613 27.6868 24.1004 26.9164 24.9748C26.146 25.8491 25.0665 26.3905 23.905 26.485C23.6366 26.9415 23.4939 27.4609 23.4912 27.9905ZM26.5088 22.0095C26.5114 21.48 26.3738 20.9592 26.11 20.5C24.1209 20.5517 22.2338 21.3915 20.8638 22.8346C19.4939 24.2777 18.7533 26.2059 18.805 28.195C18.8567 30.1841 19.6965 32.0712 21.1396 33.4412C21.8541 34.1195 22.6953 34.6505 23.615 35.0037C24.5348 35.357 25.5151 35.5256 26.5 35.5H32.5C34.4891 35.5 36.3968 34.7098 37.8033 33.3033C39.2098 31.8968 40 29.9891 40 28C40 26.0109 39.2098 24.1032 37.8033 22.6967C36.3968 21.2902 34.4891 20.5 32.5 20.5H32.38C32.5462 21.4931 32.5462 22.5069 32.38 23.5H32.5C33.6935 23.5 34.8381 23.9741 35.682 24.818C36.5259 25.6619 37 26.8065 37 28C37 29.1935 36.5259 30.3381 35.682 31.182C34.8381 32.0259 33.6935 32.5 32.5 32.5H26.5C25.3347 32.5104 24.2109 32.0683 23.3649 31.2668C22.519 30.4653 22.017 29.367 21.9645 28.2028C21.912 27.0387 22.3132 25.8996 23.0836 25.0252C23.854 24.1509 24.9335 23.6095 26.095 23.515C26.3634 23.0585 26.5061 22.5391 26.5088 22.0095Z" fill="white"/>
</svg>
