<svg width="200" height="45" viewBox="0 0 200 45" fill="none" xmlns="http://www.w3.org/2000/svg">
<g filter="url(#filter0_bii)">
<path d="M-0.000610352 22.5C-0.000610352 10.0736 10.073 -3.05176e-05 22.4994 -3.05176e-05H177.499C189.926 -3.05176e-05 199.999 10.0736 199.999 22.5C199.999 34.9264 189.926 45 177.499 45H22.4994C10.073 45 -0.000610352 34.9264 -0.000610352 22.5Z" fill="white" fill-opacity="0.3"/>
</g>
<path fill-rule="evenodd" clip-rule="evenodd" d="M25 34C31.6274 34 37 28.6274 37 22C37 15.3726 31.6274 10 25 10C18.3726 10 13 15.3726 13 22C13 28.6274 18.3726 34 25 34ZM19.7506 16H30.2506C30.7146 16.0005 31.1594 16.2019 31.4875 16.5598C31.8156 16.9177 32.0001 17.4029 32.0006 17.9091V26.0909C32.0001 26.5971 31.8156 27.0823 31.4875 27.4402C31.1594 27.7981 30.7146 27.9995 30.2506 28H19.7506C19.2866 27.9995 18.8418 27.7981 18.5137 27.4402C18.1856 27.0823 18.0011 26.5971 18.0006 26.0909V17.9091C18.0011 17.4029 18.1856 16.9177 18.5137 16.5598C18.8418 16.2019 19.2866 16.0005 19.7506 16ZM25.3075 22.976L29.8075 19.1578C29.9101 19.0683 29.9762 18.9383 29.9916 18.7959C30.007 18.6536 29.9704 18.5103 29.8898 18.3972C29.8091 18.284 29.6909 18.21 29.5606 18.1912C29.4304 18.1724 29.2986 18.2103 29.1937 18.2967L25.0006 21.8544L20.8075 18.2967C20.7558 18.2515 20.6963 18.218 20.6326 18.1982C20.5689 18.1783 20.5022 18.1724 20.4364 18.1809C20.3707 18.1893 20.3071 18.212 20.2494 18.2475C20.1917 18.283 20.141 18.3307 20.1003 18.3878C20.0597 18.4448 20.0298 18.5101 20.0125 18.5799C19.9951 18.6496 19.9907 18.7225 19.9994 18.7941C20.0081 18.8658 20.0297 18.9348 20.0631 18.9973C20.0965 19.0597 20.1409 19.1143 20.1937 19.1578L24.6937 22.976C24.7815 23.0504 24.8895 23.0908 25.0006 23.0908C25.1118 23.0908 25.2197 23.0504 25.3075 22.976Z" fill="#4D4945"/>
<path d="M50.3545 29.8735C49.3389 29.8735 48.5234 29.6782 47.9082 29.2876C47.3027 28.9067 47 28.3745 47 27.6909C47 27.3491 47.1025 27.0171 47.3076 26.6948C47.5225 26.3726 47.8154 26.0894 48.1865 25.8452C48.1963 25.8354 48.2012 25.8208 48.2012 25.8013C48.2012 25.7817 48.1914 25.7671 48.1719 25.7573C47.7031 25.4546 47.4688 25.0103 47.4688 24.4243C47.4688 23.8872 47.7617 23.394 48.3477 22.9448C48.3574 22.9351 48.3623 22.9204 48.3623 22.9009C48.3623 22.8813 48.3574 22.8667 48.3477 22.8569C48.0547 22.6226 47.8105 22.3149 47.6152 21.9341C47.4199 21.5532 47.3223 21.1382 47.3223 20.689C47.3223 19.8394 47.6104 19.146 48.1865 18.6089C48.7725 18.0718 49.4854 17.8032 50.3252 17.8032C50.6572 17.8032 50.9941 17.8618 51.3359 17.979C51.4141 17.9985 51.4873 18.0083 51.5557 18.0083H53.7822C53.9092 18.0083 54.0166 18.0571 54.1045 18.1548C54.2021 18.2427 54.251 18.355 54.251 18.4917C54.251 18.6187 54.2021 18.731 54.1045 18.8286C54.0166 18.9165 53.9092 18.9604 53.7822 18.9604H52.6543C52.6348 18.9604 52.6201 18.9702 52.6104 18.9897C52.6006 19.0093 52.6006 19.0239 52.6104 19.0337C53.0303 19.4829 53.2402 20.0444 53.2402 20.7183C53.2402 21.5581 52.9619 22.2417 52.4053 22.769C51.8486 23.2866 51.1553 23.5454 50.3252 23.5454C49.9248 23.5454 49.5391 23.4624 49.168 23.2964C49.0996 23.2671 49.041 23.2769 48.9922 23.3257C48.6895 23.5991 48.5381 23.9116 48.5381 24.2632C48.5381 24.8784 49.0166 25.186 49.9736 25.186H51.5996C52.5371 25.186 53.2354 25.3423 53.6943 25.6548C54.1533 25.9575 54.3828 26.4409 54.3828 27.105C54.3828 27.8667 54.0068 28.5161 53.2549 29.0532C52.5127 29.6001 51.5459 29.8735 50.3545 29.8735ZM49.0361 22.1538C49.3877 22.5249 49.8125 22.7104 50.3105 22.7104C50.8184 22.7104 51.248 22.5249 51.5996 22.1538C51.9512 21.7729 52.127 21.2847 52.127 20.689C52.127 20.0933 51.9512 19.6147 51.5996 19.2534C51.2578 18.8921 50.833 18.7114 50.3252 18.7114C49.7979 18.7114 49.3633 18.8921 49.0215 19.2534C48.6797 19.605 48.5088 20.0835 48.5088 20.689C48.5088 21.2847 48.6846 21.7729 49.0361 22.1538ZM50.5156 29.0239C51.2969 29.0239 51.9365 28.8481 52.4346 28.4966C52.9326 28.145 53.1816 27.7397 53.1816 27.2808C53.1816 26.8999 53.04 26.6265 52.7568 26.4604C52.4834 26.2944 52.0586 26.2114 51.4824 26.2114H50.0029C49.7295 26.2114 49.4219 26.1772 49.0801 26.1089C49.0605 26.0991 49.041 26.0942 49.0215 26.0942C48.9727 26.0942 48.9238 26.1089 48.875 26.1382C48.3477 26.5483 48.084 27.0122 48.084 27.5298C48.084 27.9888 48.2988 28.3501 48.7285 28.6138C49.1582 28.8872 49.7539 29.0239 50.5156 29.0239Z" fill="#4D4945"/>
<path d="M58.4404 20.9673C59.2803 20.9673 60.0518 20.4937 60.7549 19.5464C60.7939 19.478 60.8135 19.4097 60.8135 19.3413C60.7354 18.2183 60.4814 17.3589 60.0518 16.7632C59.6318 16.1577 59.0605 15.855 58.3379 15.855C57.7812 15.855 57.3223 16.0942 56.9609 16.5728C56.5996 17.0513 56.4189 17.6714 56.4189 18.4331C56.4189 19.2144 56.5898 19.8345 56.9316 20.2935C57.2734 20.7427 57.7764 20.9673 58.4404 20.9673ZM55.833 25.5083C55.7256 25.4204 55.667 25.3032 55.6572 25.1567C55.6572 25.0103 55.7012 24.8833 55.7891 24.7759C55.8867 24.6782 56.0039 24.6294 56.1406 24.6294C56.2773 24.6196 56.3994 24.6587 56.5068 24.7466C56.9561 25.0786 57.4541 25.2446 58.001 25.2446C58.792 25.2446 59.4463 24.8735 59.9639 24.1313C60.4814 23.3892 60.7695 22.2124 60.8281 20.6011C60.8281 20.5815 60.8184 20.5669 60.7988 20.5571C60.7793 20.5474 60.7646 20.5522 60.7549 20.5718C60.4033 20.9819 60.0078 21.3042 59.5684 21.5386C59.1387 21.7632 58.6992 21.8755 58.25 21.8755C57.3125 21.8755 56.5752 21.5825 56.0381 20.9966C55.5107 20.4009 55.2471 19.5464 55.2471 18.4331C55.2471 17.3979 55.5449 16.5483 56.1406 15.8843C56.7461 15.2202 57.4785 14.8882 58.3379 14.8882C59.4316 14.8882 60.3105 15.3374 60.9746 16.2358C61.6484 17.1245 61.9854 18.3989 61.9854 20.0591C61.9854 21.1431 61.8779 22.0952 61.6631 22.9155C61.4482 23.7358 61.1504 24.3853 60.7695 24.8638C60.3984 25.3325 59.9834 25.6841 59.5244 25.9185C59.0654 26.1431 58.5723 26.2554 58.0449 26.2554C57.1953 26.2554 56.458 26.0063 55.833 25.5083Z" fill="#4D4945"/>
<path d="M66.6875 26.2554C65.4961 26.2554 64.4658 25.8892 63.5967 25.1567C63.4795 25.0493 63.4209 24.9126 63.4209 24.7466C63.4209 24.6196 63.46 24.5024 63.5381 24.395C63.6162 24.2876 63.7236 24.229 63.8604 24.2192C63.9971 24.2095 64.1143 24.2534 64.2119 24.3511C64.9053 24.9468 65.6963 25.2446 66.585 25.2446C67.2686 25.2446 67.8398 24.9956 68.2988 24.4976C68.7676 23.9995 69.002 23.3501 69.002 22.5493C69.002 21.7388 68.7871 21.104 68.3574 20.645C67.9375 20.1763 67.3662 19.9419 66.6436 19.9419C66.126 19.9419 65.6182 20.0933 65.1201 20.396C65.0029 20.4644 64.8857 20.4985 64.7686 20.4985C64.6611 20.4985 64.5537 20.4644 64.4463 20.396C64.2217 20.2593 64.1191 20.0591 64.1387 19.7954L64.4023 15.9429C64.4121 15.6987 64.5049 15.4937 64.6807 15.3276C64.8662 15.1616 65.0811 15.0786 65.3252 15.0786H69.1777C69.3242 15.0786 69.4463 15.1323 69.5439 15.2397C69.6514 15.3374 69.7051 15.4595 69.7051 15.606C69.7051 15.7524 69.6514 15.8794 69.5439 15.9868C69.4463 16.0845 69.3242 16.1333 69.1777 16.1333H65.6475C65.5693 16.1333 65.5303 16.1724 65.5303 16.2505L65.252 19.356C65.2422 19.3755 65.2471 19.395 65.2666 19.4146C65.2861 19.4243 65.3057 19.4243 65.3252 19.4146C65.8428 19.1411 66.3848 19.0044 66.9512 19.0044C67.918 19.0044 68.7041 19.3022 69.3096 19.8979C69.9248 20.4839 70.2324 21.353 70.2324 22.5054C70.2324 23.2769 70.0615 23.9556 69.7197 24.5415C69.3779 25.1177 68.9385 25.5474 68.4014 25.8306C67.874 26.1138 67.3027 26.2554 66.6875 26.2554Z" fill="#4D4945"/>
<path d="M75.1689 26.2554C74.1045 26.2554 73.2744 25.772 72.6787 24.8052C72.083 23.8384 71.7852 22.4126 71.7852 20.5278C71.7852 18.6626 72.083 17.2563 72.6787 16.3091C73.2744 15.3618 74.1045 14.8882 75.1689 14.8882C76.2139 14.8882 77.0293 15.3667 77.6152 16.3237C78.2109 17.271 78.5088 18.6724 78.5088 20.5278C78.5088 22.4126 78.2109 23.8384 77.6152 24.8052C77.0293 25.772 76.2139 26.2554 75.1689 26.2554ZM75.1689 25.2739C75.833 25.2739 76.3555 24.8784 76.7363 24.0874C77.127 23.2964 77.3223 22.1099 77.3223 20.5278C77.3223 18.9751 77.127 17.813 76.7363 17.0415C76.3555 16.27 75.833 15.8843 75.1689 15.8843C74.4854 15.8843 73.9482 16.27 73.5576 17.0415C73.167 17.813 72.9717 18.9751 72.9717 20.5278C72.9717 22.1099 73.167 23.2964 73.5576 24.0874C73.9482 24.8784 74.4854 25.2739 75.1689 25.2739Z" fill="#4D4945"/>
<path d="M83.4014 26.2554C82.3369 26.2554 81.5068 25.772 80.9111 24.8052C80.3154 23.8384 80.0176 22.4126 80.0176 20.5278C80.0176 18.6626 80.3154 17.2563 80.9111 16.3091C81.5068 15.3618 82.3369 14.8882 83.4014 14.8882C84.4463 14.8882 85.2617 15.3667 85.8477 16.3237C86.4434 17.271 86.7412 18.6724 86.7412 20.5278C86.7412 22.4126 86.4434 23.8384 85.8477 24.8052C85.2617 25.772 84.4463 26.2554 83.4014 26.2554ZM83.4014 25.2739C84.0654 25.2739 84.5879 24.8784 84.9688 24.0874C85.3594 23.2964 85.5547 22.1099 85.5547 20.5278C85.5547 18.9751 85.3594 17.813 84.9688 17.0415C84.5879 16.27 84.0654 15.8843 83.4014 15.8843C82.7178 15.8843 82.1807 16.27 81.79 17.0415C81.3994 17.813 81.2041 18.9751 81.2041 20.5278C81.2041 22.1099 81.3994 23.2964 81.79 24.0874C82.1807 24.8784 82.7178 25.2739 83.4014 25.2739Z" fill="#4D4945"/>
<path d="M88.543 26.0649C88.4453 26.0649 88.3574 26.0308 88.2793 25.9624C88.2109 25.8843 88.1768 25.7964 88.1768 25.6987C88.1768 25.4546 88.2695 25.2495 88.4551 25.0835C90.1055 23.6187 91.3164 22.3296 92.0879 21.2163C92.8594 20.0933 93.2451 19.0679 93.2451 18.1401C93.2451 17.4663 93.0645 16.9243 92.7031 16.5142C92.3516 16.0942 91.8389 15.8843 91.165 15.8843C90.4814 15.8843 89.8125 16.1968 89.1582 16.8218C89.0605 16.9194 88.9434 16.9731 88.8066 16.9829C88.6797 16.9829 88.5674 16.9341 88.4697 16.8364C88.3623 16.7388 88.3086 16.6216 88.3086 16.4849C88.3086 16.3481 88.3574 16.231 88.4551 16.1333C89.3145 15.3032 90.2617 14.8882 91.2969 14.8882C92.2637 14.8882 93.0303 15.1812 93.5967 15.7671C94.1631 16.3433 94.4463 17.1196 94.4463 18.0962C94.4463 19.1411 94.0752 20.2251 93.333 21.3481C92.6006 22.4614 91.5264 23.687 90.1104 25.0249C90.0908 25.0444 90.0859 25.064 90.0957 25.0835C90.1055 25.0933 90.1201 25.0981 90.1396 25.0981C90.6963 25.0396 91.2578 25.0103 91.8242 25.0103H94.4463C94.5928 25.0103 94.7148 25.064 94.8125 25.1714C94.9199 25.269 94.9736 25.3911 94.9736 25.5376C94.9736 25.6841 94.9199 25.811 94.8125 25.9185C94.7148 26.0161 94.5928 26.0649 94.4463 26.0649H88.543Z" fill="#4D4945"/>
<path d="M99.6172 26.2554C98.4258 26.2554 97.3955 25.8892 96.5264 25.1567C96.4092 25.0493 96.3506 24.9126 96.3506 24.7466C96.3506 24.6196 96.3896 24.5024 96.4678 24.395C96.5459 24.2876 96.6533 24.229 96.79 24.2192C96.9268 24.2095 97.0439 24.2534 97.1416 24.3511C97.835 24.9468 98.626 25.2446 99.5146 25.2446C100.198 25.2446 100.77 24.9956 101.229 24.4976C101.697 23.9995 101.932 23.3501 101.932 22.5493C101.932 21.7388 101.717 21.104 101.287 20.645C100.867 20.1763 100.296 19.9419 99.5732 19.9419C99.0557 19.9419 98.5479 20.0933 98.0498 20.396C97.9326 20.4644 97.8154 20.4985 97.6982 20.4985C97.5908 20.4985 97.4834 20.4644 97.376 20.396C97.1514 20.2593 97.0488 20.0591 97.0684 19.7954L97.332 15.9429C97.3418 15.6987 97.4346 15.4937 97.6104 15.3276C97.7959 15.1616 98.0107 15.0786 98.2549 15.0786H102.107C102.254 15.0786 102.376 15.1323 102.474 15.2397C102.581 15.3374 102.635 15.4595 102.635 15.606C102.635 15.7524 102.581 15.8794 102.474 15.9868C102.376 16.0845 102.254 16.1333 102.107 16.1333H98.5771C98.499 16.1333 98.46 16.1724 98.46 16.2505L98.1816 19.356C98.1719 19.3755 98.1768 19.395 98.1963 19.4146C98.2158 19.4243 98.2354 19.4243 98.2549 19.4146C98.7725 19.1411 99.3145 19.0044 99.8809 19.0044C100.848 19.0044 101.634 19.3022 102.239 19.8979C102.854 20.4839 103.162 21.353 103.162 22.5054C103.162 23.2769 102.991 23.9556 102.649 24.5415C102.308 25.1177 101.868 25.5474 101.331 25.8306C100.804 26.1138 100.232 26.2554 99.6172 26.2554Z" fill="#4D4945"/>
<path d="M110.647 28.6284C109.827 28.6284 109.061 28.4966 108.348 28.2329C107.645 27.979 107.029 27.603 106.502 27.105C105.975 26.6167 105.56 25.9966 105.257 25.2446C104.954 24.4829 104.803 23.6333 104.803 22.6958C104.803 21.6118 104.988 20.606 105.359 19.6782C105.74 18.7407 106.243 17.9595 106.868 17.3345C107.503 16.7095 108.24 16.2212 109.08 15.8696C109.92 15.5083 110.794 15.3276 111.702 15.3276C113.362 15.3276 114.681 15.8306 115.657 16.8364C116.644 17.8423 117.137 19.1704 117.137 20.8208C117.137 21.5142 117.034 22.1489 116.829 22.7251C116.634 23.3013 116.375 23.7651 116.053 24.1167C115.73 24.4683 115.379 24.7417 114.998 24.937C114.627 25.1323 114.251 25.23 113.87 25.23C113.392 25.23 113.001 25.1274 112.698 24.9224C112.396 24.7075 112.215 24.395 112.156 23.9849C112.156 23.9751 112.151 23.9702 112.142 23.9702C112.132 23.9702 112.122 23.9751 112.112 23.9849C111.458 24.7466 110.784 25.1274 110.091 25.1274C109.515 25.1274 109.041 24.9175 108.67 24.4976C108.299 24.0776 108.113 23.5015 108.113 22.769C108.113 22.1733 108.235 21.5874 108.479 21.0112C108.733 20.4253 109.109 19.9321 109.607 19.5317C110.115 19.1313 110.682 18.9312 111.307 18.9312C111.893 18.9312 112.337 19.1948 112.64 19.7222C112.649 19.7319 112.659 19.7368 112.669 19.7368C112.679 19.7368 112.684 19.7319 112.684 19.7222L112.742 19.4731C112.771 19.356 112.835 19.2583 112.933 19.1802C113.03 19.1021 113.143 19.063 113.27 19.063C113.377 19.063 113.465 19.1069 113.533 19.1948C113.602 19.2729 113.626 19.3657 113.606 19.4731L113.05 22.3442C112.962 22.6958 112.918 23.0034 112.918 23.2671C112.918 23.9995 113.27 24.3657 113.973 24.3657C114.549 24.3657 115.071 24.0435 115.54 23.3989C116.019 22.7544 116.258 21.9097 116.258 20.8647C116.258 19.4585 115.848 18.3257 115.027 17.4663C114.217 16.5972 113.079 16.1626 111.614 16.1626C110.862 16.1626 110.135 16.3188 109.432 16.6313C108.729 16.9438 108.104 17.3784 107.557 17.9351C107.01 18.4819 106.57 19.1655 106.238 19.9858C105.906 20.8062 105.74 21.6948 105.74 22.6519C105.74 24.2437 106.204 25.4985 107.132 26.4165C108.06 27.3345 109.261 27.7935 110.735 27.7935C111.546 27.7935 112.332 27.603 113.094 27.2222C113.201 27.1733 113.304 27.1636 113.401 27.1929C113.509 27.2319 113.587 27.3003 113.636 27.3979C113.685 27.5054 113.689 27.6128 113.65 27.7202C113.621 27.8374 113.553 27.9204 113.445 27.9692C112.576 28.4087 111.644 28.6284 110.647 28.6284ZM110.311 24.2485C110.809 24.2485 111.321 23.936 111.849 23.311C111.897 23.2622 111.927 23.1987 111.937 23.1206L112.391 20.6304C112.41 20.5522 112.396 20.4839 112.347 20.4253C112.2 20.1909 112.044 20.0298 111.878 19.9419C111.712 19.8442 111.517 19.7954 111.292 19.7954C110.862 19.7954 110.472 19.9517 110.12 20.2642C109.778 20.5669 109.52 20.938 109.344 21.3774C109.178 21.8071 109.095 22.2466 109.095 22.6958C109.095 23.2329 109.202 23.6284 109.417 23.8823C109.642 24.1265 109.939 24.2485 110.311 24.2485Z" fill="#4D4945"/>
<path d="M122.117 29.8735C121.102 29.8735 120.286 29.6782 119.671 29.2876C119.065 28.9067 118.763 28.3745 118.763 27.6909C118.763 27.3491 118.865 27.0171 119.07 26.6948C119.285 26.3726 119.578 26.0894 119.949 25.8452C119.959 25.8354 119.964 25.8208 119.964 25.8013C119.964 25.7817 119.954 25.7671 119.935 25.7573C119.466 25.4546 119.231 25.0103 119.231 24.4243C119.231 23.8872 119.524 23.394 120.11 22.9448C120.12 22.9351 120.125 22.9204 120.125 22.9009C120.125 22.8813 120.12 22.8667 120.11 22.8569C119.817 22.6226 119.573 22.3149 119.378 21.9341C119.183 21.5532 119.085 21.1382 119.085 20.689C119.085 19.8394 119.373 19.146 119.949 18.6089C120.535 18.0718 121.248 17.8032 122.088 17.8032C122.42 17.8032 122.757 17.8618 123.099 17.979C123.177 17.9985 123.25 18.0083 123.318 18.0083H125.545C125.672 18.0083 125.779 18.0571 125.867 18.1548C125.965 18.2427 126.014 18.355 126.014 18.4917C126.014 18.6187 125.965 18.731 125.867 18.8286C125.779 18.9165 125.672 18.9604 125.545 18.9604H124.417C124.397 18.9604 124.383 18.9702 124.373 18.9897C124.363 19.0093 124.363 19.0239 124.373 19.0337C124.793 19.4829 125.003 20.0444 125.003 20.7183C125.003 21.5581 124.725 22.2417 124.168 22.769C123.611 23.2866 122.918 23.5454 122.088 23.5454C121.688 23.5454 121.302 23.4624 120.931 23.2964C120.862 23.2671 120.804 23.2769 120.755 23.3257C120.452 23.5991 120.301 23.9116 120.301 24.2632C120.301 24.8784 120.779 25.186 121.736 25.186H123.362C124.3 25.186 124.998 25.3423 125.457 25.6548C125.916 25.9575 126.146 26.4409 126.146 27.105C126.146 27.8667 125.77 28.5161 125.018 29.0532C124.275 29.6001 123.309 29.8735 122.117 29.8735ZM120.799 22.1538C121.15 22.5249 121.575 22.7104 122.073 22.7104C122.581 22.7104 123.011 22.5249 123.362 22.1538C123.714 21.7729 123.89 21.2847 123.89 20.689C123.89 20.0933 123.714 19.6147 123.362 19.2534C123.021 18.8921 122.596 18.7114 122.088 18.7114C121.561 18.7114 121.126 18.8921 120.784 19.2534C120.442 19.605 120.271 20.0835 120.271 20.689C120.271 21.2847 120.447 21.7729 120.799 22.1538ZM122.278 29.0239C123.06 29.0239 123.699 28.8481 124.197 28.4966C124.695 28.145 124.944 27.7397 124.944 27.2808C124.944 26.8999 124.803 26.6265 124.52 26.4604C124.246 26.2944 123.821 26.2114 123.245 26.2114H121.766C121.492 26.2114 121.185 26.1772 120.843 26.1089C120.823 26.0991 120.804 26.0942 120.784 26.0942C120.735 26.0942 120.687 26.1089 120.638 26.1382C120.11 26.5483 119.847 27.0122 119.847 27.5298C119.847 27.9888 120.062 28.3501 120.491 28.6138C120.921 28.8872 121.517 29.0239 122.278 29.0239Z" fill="#4D4945"/>
<path d="M128.797 25.8892C128.68 26.0063 128.538 26.0649 128.372 26.0649C128.206 26.0649 128.06 26.0063 127.933 25.8892C127.815 25.772 127.757 25.6304 127.757 25.4644V18.4624C127.757 18.3257 127.806 18.2085 127.903 18.1108C128.001 18.0132 128.118 17.9644 128.255 17.9644C128.392 17.9644 128.514 18.0132 128.621 18.1108C128.729 18.1987 128.787 18.3159 128.797 18.4624L128.87 19.1362C128.87 19.1558 128.875 19.1655 128.885 19.1655C128.904 19.1655 128.919 19.1606 128.929 19.1509C129.778 18.2231 130.613 17.7593 131.434 17.7593C132.547 17.7593 133.279 18.2476 133.631 19.2241C133.66 19.2925 133.699 19.3022 133.748 19.2534C134.695 18.2573 135.569 17.7593 136.37 17.7593C138.011 17.7593 138.831 18.814 138.831 20.9233V25.4497C138.831 25.6157 138.768 25.7622 138.641 25.8892C138.523 26.0063 138.382 26.0649 138.216 26.0649C138.05 26.0649 137.903 26.0063 137.776 25.8892C137.659 25.7622 137.601 25.6157 137.601 25.4497V21.0698C137.601 20.2886 137.474 19.7173 137.22 19.356C136.966 18.9946 136.57 18.814 136.033 18.814C135.398 18.814 134.71 19.229 133.968 20.0591C133.919 20.1079 133.895 20.1714 133.895 20.2495V25.4644C133.895 25.6304 133.836 25.772 133.719 25.8892C133.602 26.0063 133.455 26.0649 133.279 26.0649C133.113 26.0649 132.972 26.0063 132.854 25.8892C132.737 25.772 132.679 25.6304 132.679 25.4644V21.0698C132.679 20.2886 132.552 19.7173 132.298 19.356C132.044 18.9946 131.644 18.814 131.097 18.814C130.462 18.814 129.778 19.229 129.046 20.0591C128.997 20.1079 128.973 20.1714 128.973 20.2495V25.4644C128.973 25.6304 128.914 25.772 128.797 25.8892Z" fill="#4D4945"/>
<path d="M143.372 26.2554C142.688 26.2554 142.122 26.0552 141.673 25.6548C141.233 25.2544 141.014 24.6978 141.014 23.9849C141.014 23.1157 141.404 22.4468 142.186 21.978C142.967 21.4995 144.217 21.1626 145.936 20.9673C146.014 20.9575 146.048 20.9136 146.038 20.8354C146.028 19.4585 145.457 18.77 144.324 18.77C143.66 18.77 142.977 18.98 142.273 19.3999C142.156 19.4683 142.034 19.4878 141.907 19.4585C141.78 19.4292 141.683 19.3608 141.614 19.2534C141.546 19.1265 141.526 18.9995 141.556 18.8726C141.595 18.7358 141.673 18.6333 141.79 18.5649C142.718 18.0278 143.626 17.7593 144.515 17.7593C145.462 17.7593 146.155 18.0522 146.595 18.6382C147.034 19.2144 147.254 20.0151 147.254 21.0405V25.5669C147.254 25.7036 147.205 25.8208 147.107 25.9185C147.01 26.0161 146.893 26.0649 146.756 26.0649C146.619 26.0649 146.497 26.0161 146.39 25.9185C146.282 25.8208 146.219 25.7036 146.199 25.5669L146.155 25.0981C146.155 25.0786 146.146 25.0688 146.126 25.0688C146.116 25.0688 146.102 25.0737 146.082 25.0835C145.154 25.8647 144.251 26.2554 143.372 26.2554ZM143.709 25.2739C144.09 25.2739 144.456 25.1909 144.808 25.0249C145.169 24.8491 145.555 24.5806 145.965 24.2192C146.014 24.1704 146.038 24.1069 146.038 24.0288V21.8901C146.038 21.8218 146.014 21.7876 145.965 21.7876C145.955 21.7876 145.945 21.7876 145.936 21.7876C144.588 21.9536 143.626 22.2075 143.05 22.5493C142.483 22.8813 142.2 23.3354 142.2 23.9116C142.2 24.3706 142.337 24.7124 142.61 24.937C142.894 25.1616 143.26 25.2739 143.709 25.2739Z" fill="#4D4945"/>
<path d="M150.96 25.8892C150.843 26.0063 150.701 26.0649 150.535 26.0649C150.369 26.0649 150.223 26.0063 150.096 25.8892C149.979 25.772 149.92 25.6304 149.92 25.4644V18.5796C149.92 18.4038 149.979 18.2573 150.096 18.1401C150.223 18.0229 150.369 17.9644 150.535 17.9644C150.701 17.9644 150.843 18.0229 150.96 18.1401C151.077 18.2573 151.136 18.4038 151.136 18.5796V25.4644C151.136 25.6304 151.077 25.772 150.96 25.8892ZM150.535 16.2212C150.281 16.2212 150.071 16.1431 149.905 15.9868C149.739 15.8306 149.656 15.6353 149.656 15.4009C149.656 15.147 149.739 14.9468 149.905 14.8003C150.071 14.644 150.281 14.5659 150.535 14.5659C150.789 14.5659 150.999 14.644 151.165 14.8003C151.341 14.9468 151.429 15.147 151.429 15.4009C151.429 15.6353 151.341 15.8306 151.165 15.9868C150.989 16.1431 150.779 16.2212 150.535 16.2212Z" fill="#4D4945"/>
<path d="M155.267 26.2554C154.388 26.2554 153.948 25.6987 153.948 24.5854V14.7271C153.948 14.561 154.007 14.4194 154.124 14.3022C154.251 14.1851 154.397 14.1265 154.563 14.1265C154.729 14.1265 154.871 14.1851 154.988 14.3022C155.105 14.4194 155.164 14.561 155.164 14.7271V24.6733C155.164 24.937 155.232 25.1128 155.369 25.2007C155.389 25.2104 155.442 25.2397 155.53 25.2886C155.618 25.3374 155.677 25.3716 155.706 25.3911C155.745 25.4106 155.784 25.4497 155.823 25.5083C155.872 25.5571 155.901 25.6108 155.911 25.6694V25.6841C155.921 25.7231 155.926 25.7573 155.926 25.7866C155.926 25.8843 155.901 25.9771 155.853 26.0649C155.774 26.1724 155.667 26.2358 155.53 26.2554C155.452 26.2554 155.364 26.2554 155.267 26.2554Z" fill="#4D4945"/>
<path d="M158.709 26.2554C158.455 26.2554 158.24 26.1675 158.064 25.9917C157.889 25.8062 157.801 25.5767 157.801 25.3032C157.801 25.0103 157.889 24.771 158.064 24.5854C158.24 24.3999 158.455 24.3071 158.709 24.3071C158.973 24.3071 159.192 24.3999 159.368 24.5854C159.554 24.771 159.646 25.0103 159.646 25.3032C159.646 25.5767 159.554 25.8062 159.368 25.9917C159.192 26.1675 158.973 26.2554 158.709 26.2554Z" fill="#4D4945"/>
<path d="M165.184 26.2554C164.09 26.2554 163.187 25.8794 162.474 25.1274C161.771 24.3657 161.419 23.3354 161.419 22.0366C161.419 20.728 161.79 19.688 162.532 18.9165C163.284 18.145 164.197 17.7593 165.271 17.7593C166.004 17.7593 166.663 17.9741 167.249 18.4038C167.366 18.4819 167.43 18.5942 167.439 18.7407C167.459 18.8872 167.42 19.019 167.322 19.1362C167.234 19.2437 167.117 19.3071 166.971 19.3267C166.834 19.3364 166.712 19.2974 166.604 19.2095C166.204 18.9263 165.779 18.7847 165.33 18.7847C164.559 18.7847 163.924 19.0874 163.426 19.6929C162.928 20.2886 162.679 21.0698 162.679 22.0366C162.679 22.9937 162.918 23.77 163.396 24.3657C163.885 24.9517 164.515 25.2446 165.286 25.2446C165.823 25.2446 166.351 25.0688 166.868 24.7173C166.976 24.6392 167.093 24.6099 167.22 24.6294C167.356 24.6489 167.459 24.7124 167.527 24.8198C167.586 24.9077 167.615 25.0054 167.615 25.1128C167.615 25.1421 167.615 25.1714 167.615 25.2007C167.596 25.3374 167.532 25.4448 167.425 25.5229C166.741 26.0112 165.994 26.2554 165.184 26.2554Z" fill="#4D4945"/>
<path d="M175.042 25.1128C174.319 25.8745 173.44 26.2554 172.405 26.2554C171.37 26.2554 170.491 25.8745 169.769 25.1128C169.046 24.3413 168.685 23.3159 168.685 22.0366C168.685 20.728 169.046 19.688 169.769 18.9165C170.491 18.145 171.37 17.7593 172.405 17.7593C173.45 17.7593 174.334 18.145 175.057 18.9165C175.779 19.688 176.141 20.728 176.141 22.0366C176.141 23.3159 175.774 24.3413 175.042 25.1128ZM170.633 24.3657C171.092 24.9517 171.683 25.2446 172.405 25.2446C173.138 25.2446 173.733 24.9468 174.192 24.3511C174.651 23.7554 174.881 22.9839 174.881 22.0366C174.881 21.0698 174.651 20.2886 174.192 19.6929C173.733 19.0874 173.138 18.7847 172.405 18.7847C171.683 18.7847 171.092 19.0874 170.633 19.6929C170.174 20.2886 169.944 21.0698 169.944 22.0366C169.944 22.9937 170.174 23.77 170.633 24.3657Z" fill="#4D4945"/>
<path d="M179.378 25.8892C179.261 26.0063 179.119 26.0649 178.953 26.0649C178.787 26.0649 178.641 26.0063 178.514 25.8892C178.396 25.772 178.338 25.6304 178.338 25.4644V18.4624C178.338 18.3257 178.387 18.2085 178.484 18.1108C178.582 18.0132 178.699 17.9644 178.836 17.9644C178.973 17.9644 179.095 18.0132 179.202 18.1108C179.31 18.1987 179.368 18.3159 179.378 18.4624L179.451 19.1362C179.451 19.1558 179.456 19.1655 179.466 19.1655C179.485 19.1655 179.5 19.1606 179.51 19.1509C180.359 18.2231 181.194 17.7593 182.015 17.7593C183.128 17.7593 183.86 18.2476 184.212 19.2241C184.241 19.2925 184.28 19.3022 184.329 19.2534C185.276 18.2573 186.15 17.7593 186.951 17.7593C188.592 17.7593 189.412 18.814 189.412 20.9233V25.4497C189.412 25.6157 189.349 25.7622 189.222 25.8892C189.104 26.0063 188.963 26.0649 188.797 26.0649C188.631 26.0649 188.484 26.0063 188.357 25.8892C188.24 25.7622 188.182 25.6157 188.182 25.4497V21.0698C188.182 20.2886 188.055 19.7173 187.801 19.356C187.547 18.9946 187.151 18.814 186.614 18.814C185.979 18.814 185.291 19.229 184.549 20.0591C184.5 20.1079 184.476 20.1714 184.476 20.2495V25.4644C184.476 25.6304 184.417 25.772 184.3 25.8892C184.183 26.0063 184.036 26.0649 183.86 26.0649C183.694 26.0649 183.553 26.0063 183.436 25.8892C183.318 25.772 183.26 25.6304 183.26 25.4644V21.0698C183.26 20.2886 183.133 19.7173 182.879 19.356C182.625 18.9946 182.225 18.814 181.678 18.814C181.043 18.814 180.359 19.229 179.627 20.0591C179.578 20.1079 179.554 20.1714 179.554 20.2495V25.4644C179.554 25.6304 179.495 25.772 179.378 25.8892Z" fill="#4D4945"/>
<defs>
<filter id="filter0_bii" x="-50.0006" y="-50" width="300" height="145" filterUnits="userSpaceOnUse" color-interpolation-filters="sRGB">
<feFlood flood-opacity="0" result="BackgroundImageFix"/>
<feGaussianBlur in="BackgroundImage" stdDeviation="25"/>
<feComposite in2="SourceAlpha" operator="in" result="effect1_backgroundBlur"/>
<feBlend mode="normal" in="SourceGraphic" in2="effect1_backgroundBlur" result="shape"/>
<feColorMatrix in="SourceAlpha" type="matrix" values="0 0 0 0 0 0 0 0 0 0 0 0 0 0 0 0 0 0 127 0" result="hardAlpha"/>
<feOffset dx="4" dy="4"/>
<feGaussianBlur stdDeviation="2.5"/>
<feComposite in2="hardAlpha" operator="arithmetic" k2="-1" k3="1"/>
<feColorMatrix type="matrix" values="0 0 0 0 0 0 0 0 0 0 0 0 0 0 0 0 0 0 0.1 0"/>
<feBlend mode="normal" in2="shape" result="effect2_innerShadow"/>
<feColorMatrix in="SourceAlpha" type="matrix" values="0 0 0 0 0 0 0 0 0 0 0 0 0 0 0 0 0 0 127 0" result="hardAlpha"/>
<feOffset dx="-4" dy="-4"/>
<feGaussianBlur stdDeviation="2.5"/>
<feComposite in2="hardAlpha" operator="arithmetic" k2="-1" k3="1"/>
<feColorMatrix type="matrix" values="0 0 0 0 1 0 0 0 0 1 0 0 0 0 1 0 0 0 0.4 0"/>
<feBlend mode="normal" in2="effect2_innerShadow" result="effect3_innerShadow"/>
</filter>
</defs>
</svg>
