<svg width="91" height="89" viewBox="0 0 91 89" fill="none" xmlns="http://www.w3.org/2000/svg">
<path fill-rule="evenodd" clip-rule="evenodd" d="M61.7735 19.3932C57.6183 15.2379 52.0492 12.802 46.1773 12.5713C40.3054 12.3406 34.5624 14.3321 30.0939 18.1485C25.6255 21.9649 22.7601 27.3257 22.0694 33.1614C21.3787 38.9971 22.9135 44.8787 26.3675 49.6328C29.8216 54.3869 34.941 57.6641 40.7045 58.8105C46.468 59.9569 52.4519 58.8883 57.4624 55.8179C62.4728 52.7475 66.1416 47.901 67.7367 42.2452C69.3318 36.5894 68.736 30.5401 66.0681 25.3042L76.4456 20.0166C76.4475 20.0203 76.4494 20.024 76.4513 20.0278C77.3417 21.7768 78.0779 23.5863 78.6578 25.4363C80.6791 31.8839 80.8031 38.8231 78.9463 45.4066C76.5557 53.8832 71.0573 61.1468 63.5479 65.7486C56.0385 70.3503 47.0703 71.9519 38.4323 70.2337C29.7944 68.5155 22.1217 63.6039 16.9449 56.4787C11.7682 49.3535 9.46798 40.5386 10.5032 31.7924C11.5383 23.0463 15.8328 15.0119 22.5298 9.29209C29.2269 3.57228 37.8342 0.587531 46.6346 0.933299C53.4696 1.20185 60.0309 3.46411 65.5383 7.37885C67.1219 8.50449 68.6184 9.76677 70.0092 11.1576L61.7735 19.3932Z" fill="url(#paint0_linear)"/>
<g filter="url(#filter0_bdii)">
<path d="M62.7604 35.9062C62.7604 45.5712 54.9254 53.4062 45.2605 53.4062C35.5955 53.4062 27.7605 45.5712 27.7605 35.9062C27.7605 26.2413 35.5955 18.4063 45.2605 18.4063C54.9254 18.4063 62.7604 26.2413 62.7604 35.9062Z" fill="white"/>
</g>
<path d="M27.7605 18.4063V52.9676H62.7604V18.8449L27.7605 18.4063ZM27.7605 18.4063L62.7604 18.8449V52.9676H27.7605V18.4063ZM36.9436 26.8314C36.9436 26.7341 36.9666 26.6608 37.0913 26.6608C38.34 26.6099 39.5898 26.5869 40.8395 26.5919C44.8842 26.5919 46.6386 28.8078 46.6386 31.645C46.6386 35.3473 43.9611 36.9376 40.6623 36.9376C40.11 36.9376 39.9164 36.9147 39.5292 36.9147V42.5201C39.5292 42.6394 39.4833 42.6853 39.3641 42.6853H37.1142C36.9884 42.6853 36.9436 42.6394 36.9436 42.5201V26.8314ZM39.5292 34.5784C39.8716 34.6014 40.133 34.6014 40.7138 34.6014C42.4167 34.6014 44.018 34.0031 44.018 31.6909C44.018 29.8392 42.8783 28.8997 40.9248 28.8997C40.3495 28.8997 39.7972 28.9281 39.5292 28.9511V34.5784ZM48.8665 33.2572C48.8665 33.0866 48.8665 32.6534 48.7922 31.8386C48.7922 31.7194 48.8097 31.6909 48.9059 31.645C50.6079 30.9902 52.4143 30.6485 54.2379 30.6366C54.3572 30.6366 54.4086 30.6595 54.4086 30.7788V32.8984C54.4086 33.0177 54.3692 33.0406 54.2489 33.0406C53.32 32.9826 52.3879 33.081 51.4915 33.3316V42.5201C51.4915 42.6394 51.4401 42.6853 51.3209 42.6853H49.0306C48.9114 42.6853 48.8655 42.6394 48.8655 42.5201L48.8665 33.2572Z" fill="url(#paint1_linear)"/>
<path d="M1.79596 85.8108C1.79596 85.8237 1.79924 85.8398 1.8058 85.8591C1.81893 85.872 1.83533 85.8785 1.85502 85.8785H4.24675C4.25987 85.8785 4.273 85.872 4.28612 85.8591C4.29924 85.8398 4.30252 85.8237 4.29596 85.8108L3.87273 84.5726C3.62339 83.8696 3.35764 83.0506 3.07549 82.1155C3.06893 82.1026 3.05908 82.0961 3.04596 82.0961C3.03284 82.0961 3.023 82.1026 3.01643 82.1155C2.81302 82.8378 2.55055 83.6568 2.22903 84.5726L1.79596 85.8108ZM5.61486 88.7805C5.523 88.7805 5.43769 88.7547 5.35895 88.7032C5.28021 88.6451 5.22444 88.5709 5.19163 88.4807L4.50265 86.4202C4.48297 86.3751 4.45016 86.3525 4.40423 86.3525H1.68769C1.64176 86.3525 1.60895 86.3751 1.58927 86.4202L0.870765 88.5C0.844518 88.5838 0.795305 88.6516 0.723127 88.7032C0.650949 88.7547 0.568928 88.7805 0.477064 88.7805C0.404886 88.7805 0.34583 88.7515 0.299899 88.6935C0.273652 88.6548 0.260529 88.6161 0.260529 88.5774C0.260529 88.5516 0.263809 88.5258 0.270371 88.5L2.64242 81.8446C2.67523 81.7608 2.72772 81.6931 2.7999 81.6415C2.87864 81.5899 2.96394 81.5641 3.0558 81.5641C3.14767 81.5641 3.23297 81.5899 3.31171 81.6415C3.39045 81.6931 3.44294 81.7608 3.46919 81.8446L5.83139 88.4807C5.84452 88.5065 5.85108 88.5323 5.85108 88.558C5.85108 88.6032 5.83468 88.6451 5.80187 88.6838C5.75594 88.7483 5.6936 88.7805 5.61486 88.7805Z" fill="#4D4945"/>
<path d="M8.80384 88.9063C8.11486 88.9063 7.57024 88.6645 7.16998 88.1808C6.76971 87.6971 6.56958 87.02 6.56958 86.1493C6.56958 85.3174 6.80252 84.6467 7.2684 84.1373C7.73428 83.6213 8.29531 83.3634 8.95147 83.3634C9.24675 83.3634 9.50922 83.4117 9.73887 83.5085C9.9751 83.6052 10.2277 83.7568 10.4967 83.9631C10.5099 83.9696 10.523 83.9696 10.5361 83.9631C10.5492 83.9567 10.5558 83.947 10.5558 83.9341L10.5164 83.0538V81.1965C10.5164 81.1127 10.5427 81.0449 10.5952 80.9934C10.6542 80.9353 10.7231 80.9063 10.8019 80.9063C10.8872 80.9063 10.9561 80.9353 11.0086 80.9934C11.0676 81.0449 11.0971 81.1127 11.0971 81.1965V88.5387C11.0971 88.6096 11.0742 88.6677 11.0282 88.7128C10.9823 88.758 10.9265 88.7805 10.8609 88.7805C10.7887 88.7805 10.7264 88.758 10.6739 88.7128C10.628 88.6677 10.5985 88.6129 10.5853 88.5484L10.546 88.1227C10.546 88.1163 10.5427 88.1131 10.5361 88.1131C10.5296 88.1131 10.523 88.1163 10.5164 88.1227C9.97838 88.6451 9.40751 88.9063 8.80384 88.9063ZM8.90226 88.4033C9.42063 88.4033 9.93901 88.1421 10.4574 87.6197C10.4967 87.5875 10.5164 87.5488 10.5164 87.5036V84.5919C10.5164 84.5468 10.4967 84.5081 10.4574 84.4758C9.97838 84.0695 9.49609 83.8664 9.01053 83.8664C8.49872 83.8664 8.06893 84.0857 7.72116 84.5242C7.37339 84.9563 7.1995 85.498 7.1995 86.1493C7.1995 86.8394 7.34714 87.3876 7.64242 87.7938C7.94426 88.2001 8.3642 88.4033 8.90226 88.4033Z" fill="#4D4945"/>
<path d="M16.8156 88.1614C16.3498 88.658 15.7756 88.9063 15.0932 88.9063C14.4174 88.9063 13.8432 88.658 13.3708 88.1614C12.8983 87.6649 12.6621 86.9942 12.6621 86.1493C12.6621 85.2981 12.8983 84.6209 13.3708 84.1179C13.8432 83.6149 14.4174 83.3634 15.0932 83.3634C15.7756 83.3634 16.3498 83.6149 16.8156 84.1179C17.2881 84.6209 17.5243 85.2981 17.5243 86.1493C17.5243 86.9942 17.2881 87.6649 16.8156 88.1614ZM13.794 87.7842C14.1352 88.2034 14.5683 88.4129 15.0932 88.4129C15.6247 88.4129 16.0611 88.2034 16.4023 87.7842C16.7435 87.3585 16.9141 86.8136 16.9141 86.1493C16.9141 85.4786 16.7435 84.9305 16.4023 84.5048C16.0611 84.0792 15.6247 83.8664 15.0932 83.8664C14.5683 83.8664 14.1352 84.0792 13.794 84.5048C13.4528 84.9305 13.2822 85.4786 13.2822 86.1493C13.2822 86.8136 13.4528 87.3585 13.794 87.7842Z" fill="#4D4945"/>
<path d="M21.2546 88.9063C20.7297 88.9063 20.1982 88.687 19.6601 88.2485C19.6601 88.2485 19.6569 88.2485 19.6503 88.2485C19.6437 88.2485 19.6404 88.2517 19.6404 88.2582L19.6011 88.5484C19.588 88.6129 19.5551 88.6677 19.5027 88.7128C19.4567 88.758 19.3977 88.7805 19.3255 88.7805C19.2599 88.7805 19.2041 88.758 19.1582 88.7128C19.1122 88.6677 19.0893 88.6129 19.0893 88.5484V81.1965C19.0893 81.1127 19.1188 81.0449 19.1779 80.9934C19.2369 80.9353 19.3058 80.9063 19.3845 80.9063C19.4633 80.9063 19.5322 80.9353 19.5912 80.9934C19.6503 81.0449 19.6798 81.1127 19.6798 81.1965V83.1602L19.6503 84.0986C19.6503 84.1179 19.6569 84.1308 19.67 84.1373C19.6831 84.1373 19.6929 84.134 19.6995 84.1276C20.3294 83.6181 20.9167 83.3634 21.4613 83.3634C22.1634 83.3634 22.6982 83.6052 23.0656 84.0889C23.4331 84.5661 23.6168 85.2207 23.6168 86.0526C23.6168 86.4911 23.5512 86.8942 23.42 87.2618C23.2953 87.6229 23.1247 87.9228 22.9082 88.1614C22.6916 88.4 22.439 88.5838 22.1503 88.7128C21.8681 88.8418 21.5696 88.9063 21.2546 88.9063ZM21.1956 88.4033C21.7271 88.4033 22.1601 88.1872 22.4948 87.7551C22.8294 87.3231 22.9967 86.7556 22.9967 86.0526C22.9967 85.3755 22.8655 84.8434 22.603 84.4565C22.3406 84.0631 21.9239 83.8664 21.353 83.8664C20.874 83.8664 20.3327 84.1308 19.729 84.6596C19.6962 84.6919 19.6798 84.7338 19.6798 84.7854V87.6874C19.6798 87.739 19.6995 87.7777 19.7389 87.8035C20.2244 88.2034 20.71 88.4033 21.1956 88.4033Z" fill="#4D4945"/>
<path d="M27.2192 88.9063C26.5105 88.9063 25.9167 88.658 25.4377 88.1614C24.9587 87.6584 24.7192 86.9877 24.7192 86.1493C24.7192 85.3239 24.9521 84.6532 25.418 84.1373C25.8904 83.6213 26.4449 83.3634 27.0814 83.3634C27.7113 83.3634 28.2067 83.5665 28.5676 83.9728C28.9613 84.4049 29.1582 84.9756 29.1582 85.685C29.1582 85.8333 29.0991 85.9623 28.981 86.072C28.8629 86.1816 28.7185 86.2364 28.5479 86.2364H25.3885C25.3425 86.2364 25.3196 86.259 25.3196 86.3041C25.3458 86.9361 25.5361 87.4488 25.8904 87.8422C26.2513 88.2291 26.7139 88.4226 27.2782 88.4226C27.7179 88.4226 28.128 88.313 28.5086 88.0937C28.5611 88.0615 28.6201 88.055 28.6857 88.0744C28.7513 88.0873 28.7973 88.1227 28.8235 88.1808C28.8563 88.2388 28.8629 88.3033 28.8432 88.3743C28.8235 88.4387 28.7842 88.4871 28.7251 88.5194C28.2527 88.7773 27.7507 88.9063 27.2192 88.9063ZM25.3196 85.7237C25.3196 85.7624 25.3425 85.7817 25.3885 85.7817H28.5479C28.6004 85.7817 28.6267 85.7592 28.6267 85.714C28.6267 85.7076 28.6267 85.7044 28.6267 85.7044C28.6135 85.1046 28.4725 84.6467 28.2034 84.3307C27.9344 84.0147 27.5637 83.8567 27.0912 83.8567C26.645 83.8567 26.2546 84.0244 25.92 84.3597C25.5197 84.7596 25.3196 85.2142 25.3196 85.7237Z" fill="#4D4945"/>
<path d="M33.3904 88.6935C33.3314 88.7515 33.2592 88.7805 33.1739 88.7805C33.0952 88.7805 33.0263 88.7515 32.9672 88.6935C32.9082 88.6354 32.8786 88.5645 32.8786 88.4807V82.1348C32.8786 81.9736 32.9344 81.8382 33.046 81.7285C33.1575 81.6189 33.2953 81.5641 33.4593 81.5641H34.7782C35.6509 81.5641 36.3137 81.7221 36.7664 82.0381C37.2258 82.3541 37.4554 82.87 37.4554 83.5859C37.4554 84.2953 37.2258 84.8305 36.7664 85.1917C36.3071 85.5528 35.6575 85.7334 34.8176 85.7334H33.5479C33.502 85.7334 33.479 85.756 33.479 85.8011V88.4807C33.479 88.5645 33.4495 88.6354 33.3904 88.6935ZM33.479 85.1626C33.479 85.2078 33.502 85.2304 33.5479 85.2304H34.6995C35.4344 85.2304 35.9758 85.1014 36.3235 84.8434C36.6713 84.579 36.8452 84.1598 36.8452 83.5859C36.8452 83.0248 36.668 82.6314 36.3137 82.4057C35.9659 82.1735 35.4147 82.0574 34.6601 82.0574H33.5479C33.502 82.0574 33.479 82.08 33.479 82.1252V85.1626Z" fill="#4D4945"/>
<path d="M39.4731 88.7032C39.4141 88.7547 39.3452 88.7805 39.2664 88.7805C39.1877 88.7805 39.1188 88.7547 39.0597 88.7032C39.0007 88.6451 38.9712 88.5742 38.9712 88.4903V83.7406C38.9712 83.6761 38.9941 83.6213 39.0401 83.5762C39.0925 83.5246 39.1516 83.4988 39.2172 83.4988C39.2828 83.4988 39.3419 83.5214 39.3944 83.5665C39.4469 83.6117 39.4731 83.6697 39.4731 83.7406L39.5322 84.4758C39.5322 84.4823 39.5355 84.4855 39.542 84.4855C39.5486 84.4855 39.5519 84.4823 39.5519 84.4758C39.7422 84.134 39.9685 83.8632 40.231 83.6632C40.4935 83.4633 40.7723 83.3634 41.0676 83.3634C41.1792 83.3634 41.2776 83.373 41.3629 83.3924C41.4416 83.4053 41.4974 83.4472 41.5302 83.5181C41.5565 83.5633 41.5696 83.6117 41.5696 83.6632C41.5696 83.689 41.5663 83.7148 41.5597 83.7406C41.5401 83.8051 41.4974 83.8567 41.4318 83.8954C41.3727 83.9277 41.3071 83.9373 41.2349 83.9244C41.1759 83.9115 41.0971 83.9051 40.9987 83.9051C40.7428 83.9051 40.4902 84.0083 40.2408 84.2146C39.9915 84.4146 39.775 84.7306 39.5912 85.1626C39.5716 85.2078 39.5617 85.2562 39.5617 85.3077V88.4903C39.5617 88.5742 39.5322 88.6451 39.4731 88.7032Z" fill="#4D4945"/>
<path d="M44.542 88.9063C43.8334 88.9063 43.2395 88.658 42.7605 88.1614C42.2815 87.6584 42.042 86.9877 42.042 86.1493C42.042 85.3239 42.275 84.6532 42.7408 84.1373C43.2133 83.6213 43.7677 83.3634 44.4042 83.3634C45.0342 83.3634 45.5296 83.5665 45.8904 83.9728C46.2842 84.4049 46.481 84.9756 46.481 85.685C46.481 85.8333 46.4219 85.9623 46.3038 86.072C46.1857 86.1816 46.0414 86.2364 45.8708 86.2364H42.7113C42.6654 86.2364 42.6424 86.259 42.6424 86.3041C42.6687 86.9361 42.859 87.4488 43.2133 87.8422C43.5742 88.2291 44.0368 88.4226 44.6011 88.4226C45.0407 88.4226 45.4508 88.313 45.8314 88.0937C45.8839 88.0615 45.9429 88.055 46.0086 88.0744C46.0742 88.0873 46.1201 88.1227 46.1464 88.1808C46.1792 88.2388 46.1857 88.3033 46.166 88.3743C46.1464 88.4387 46.107 88.4871 46.0479 88.5194C45.5755 88.7773 45.0735 88.9063 44.542 88.9063ZM42.6424 85.7237C42.6424 85.7624 42.6654 85.7817 42.7113 85.7817H45.8708C45.9233 85.7817 45.9495 85.7592 45.9495 85.714C45.9495 85.7076 45.9495 85.7044 45.9495 85.7044C45.9364 85.1046 45.7953 84.6467 45.5263 84.3307C45.2572 84.0147 44.8865 83.8567 44.4141 83.8567C43.9679 83.8567 43.5775 84.0244 43.2428 84.3597C42.8425 84.7596 42.6424 85.2142 42.6424 85.7237Z" fill="#4D4945"/>
<path d="M48.4003 88.7032C48.3412 88.7547 48.2723 88.7805 48.1936 88.7805C48.1149 88.7805 48.046 88.7547 47.9869 88.7032C47.9279 88.6451 47.8983 88.5742 47.8983 88.4903V83.7406C47.8983 83.6761 47.9213 83.6213 47.9672 83.5762C48.0197 83.5246 48.0788 83.4988 48.1444 83.4988C48.21 83.4988 48.2691 83.5214 48.3216 83.5665C48.374 83.6117 48.4036 83.6697 48.4101 83.7406L48.4593 84.292C48.4593 84.2985 48.4626 84.3017 48.4692 84.3017C48.4758 84.3017 48.479 84.2985 48.479 84.292C49.0565 83.6729 49.6208 83.3634 50.1719 83.3634C50.92 83.3634 51.4055 83.6955 51.6286 84.3597C51.6352 84.3791 51.645 84.392 51.6582 84.3984C51.6779 84.3984 51.691 84.392 51.6975 84.3791C52.3471 83.7019 52.9377 83.3634 53.4692 83.3634C54.5387 83.3634 55.0735 84.0437 55.0735 85.4045V88.4903C55.0735 88.5742 55.044 88.6451 54.9849 88.7032C54.9324 88.7547 54.8635 88.7805 54.7782 88.7805C54.6995 88.7805 54.6306 88.7547 54.5716 88.7032C54.5191 88.6451 54.4928 88.5742 54.4928 88.4903V85.4819C54.4928 84.9337 54.3977 84.5306 54.2074 84.2727C54.0171 84.0083 53.7251 83.8761 53.3314 83.8761C52.8852 83.8761 52.3865 84.1759 51.8353 84.7757C51.8025 84.8079 51.7861 84.8499 51.7861 84.9015V88.4903C51.7861 88.5742 51.7566 88.6451 51.6975 88.7032C51.6385 88.7547 51.5696 88.7805 51.4908 88.7805C51.4121 88.7805 51.3432 88.7547 51.2842 88.7032C51.2251 88.6451 51.1956 88.5742 51.1956 88.4903V85.4819C51.1956 84.9337 51.1004 84.5306 50.9101 84.2727C50.7264 84.0083 50.4344 83.8761 50.0342 83.8761C49.5814 83.8761 49.0827 84.1759 48.5381 84.7757C48.5053 84.8079 48.4889 84.8499 48.4889 84.9015V88.4903C48.4889 88.5742 48.4593 88.6451 48.4003 88.7032Z" fill="#4D4945"/>
<path d="M57.5046 88.7032C57.4456 88.7547 57.3767 88.7805 57.2979 88.7805C57.2192 88.7805 57.1503 88.7547 57.0912 88.7032C57.0322 88.6451 57.0027 88.5742 57.0027 88.4903V83.789C57.0027 83.7116 57.0322 83.6439 57.0912 83.5859C57.1503 83.5278 57.2192 83.4988 57.2979 83.4988C57.3767 83.4988 57.4456 83.5278 57.5046 83.5859C57.5637 83.6439 57.5932 83.7116 57.5932 83.789V88.4903C57.5932 88.5742 57.5637 88.6451 57.5046 88.7032ZM57.3078 82.2606C57.17 82.2606 57.0519 82.2187 56.9534 82.1348C56.8616 82.051 56.8156 81.9414 56.8156 81.8059C56.8156 81.6641 56.8616 81.5512 56.9534 81.4674C57.0519 81.3771 57.17 81.3319 57.3078 81.3319C57.4456 81.3319 57.5604 81.3771 57.6523 81.4674C57.7507 81.5512 57.7999 81.6641 57.7999 81.8059C57.7999 81.9349 57.7507 82.0445 57.6523 82.1348C57.5604 82.2187 57.4456 82.2606 57.3078 82.2606Z" fill="#4D4945"/>
<path d="M61.6483 88.9063C60.9397 88.9063 60.3458 88.658 59.8668 88.1614C59.3878 87.6584 59.1483 86.9877 59.1483 86.1493C59.1483 85.3239 59.3813 84.6532 59.8471 84.1373C60.3196 83.6213 60.874 83.3634 61.5105 83.3634C62.1404 83.3634 62.6359 83.5665 62.9967 83.9728C63.3904 84.4049 63.5873 84.9756 63.5873 85.685C63.5873 85.8333 63.5282 85.9623 63.4101 86.072C63.292 86.1816 63.1477 86.2364 62.9771 86.2364H59.8176C59.7717 86.2364 59.7487 86.259 59.7487 86.3041C59.775 86.9361 59.9653 87.4488 60.3196 87.8422C60.6805 88.2291 61.1431 88.4226 61.7074 88.4226C62.147 88.4226 62.5571 88.313 62.9377 88.0937C62.9902 88.0615 63.0492 88.055 63.1149 88.0744C63.1805 88.0873 63.2264 88.1227 63.2527 88.1808C63.2855 88.2388 63.292 88.3033 63.2723 88.3743C63.2527 88.4387 63.2133 88.4871 63.1542 88.5194C62.6818 88.7773 62.1798 88.9063 61.6483 88.9063ZM59.7487 85.7237C59.7487 85.7624 59.7717 85.7817 59.8176 85.7817H62.9771C63.0296 85.7817 63.0558 85.7592 63.0558 85.714C63.0558 85.7076 63.0558 85.7044 63.0558 85.7044C63.0427 85.1046 62.9016 84.6467 62.6326 84.3307C62.3635 84.0147 61.9928 83.8567 61.5204 83.8567C61.0742 83.8567 60.6838 84.0244 60.3491 84.3597C59.9488 84.7596 59.7487 85.2142 59.7487 85.7237Z" fill="#4D4945"/>
<path d="M65.5066 88.7032C65.4475 88.7547 65.3786 88.7805 65.2999 88.7805C65.2212 88.7805 65.1523 88.7547 65.0932 88.7032C65.0342 88.6451 65.0046 88.5742 65.0046 88.4903V83.7406C65.0046 83.6761 65.0276 83.6213 65.0735 83.5762C65.126 83.5246 65.1851 83.4988 65.2507 83.4988C65.3163 83.4988 65.3754 83.5214 65.4279 83.5665C65.4803 83.6117 65.5066 83.6697 65.5066 83.7406L65.5656 84.4758C65.5656 84.4823 65.5689 84.4855 65.5755 84.4855C65.5821 84.4855 65.5853 84.4823 65.5853 84.4758C65.7756 84.134 66.002 83.8632 66.2645 83.6632C66.5269 83.4633 66.8058 83.3634 67.1011 83.3634C67.2126 83.3634 67.3111 83.373 67.3964 83.3924C67.4751 83.4053 67.5309 83.4472 67.5637 83.5181C67.5899 83.5633 67.603 83.6117 67.603 83.6632C67.603 83.689 67.5998 83.7148 67.5932 83.7406C67.5735 83.8051 67.5309 83.8567 67.4653 83.8954C67.4062 83.9277 67.3406 83.9373 67.2684 83.9244C67.2093 83.9115 67.1306 83.9051 67.0322 83.9051C66.7763 83.9051 66.5237 84.0083 66.2743 84.2146C66.025 84.4146 65.8084 84.7306 65.6247 85.1626C65.605 85.2078 65.5952 85.2562 65.5952 85.3077V88.4903C65.5952 88.5742 65.5656 88.6451 65.5066 88.7032Z" fill="#4D4945"/>
<path d="M70.5755 88.9063C69.8668 88.9063 69.273 88.658 68.794 88.1614C68.315 87.6584 68.0755 86.9877 68.0755 86.1493C68.0755 85.3239 68.3084 84.6532 68.7743 84.1373C69.2467 83.6213 69.8012 83.3634 70.4377 83.3634C71.0676 83.3634 71.563 83.5665 71.9239 83.9728C72.3176 84.4049 72.5145 84.9756 72.5145 85.685C72.5145 85.8333 72.4554 85.9623 72.3373 86.072C72.2192 86.1816 72.0748 86.2364 71.9042 86.2364H68.7448C68.6988 86.2364 68.6759 86.259 68.6759 86.3041C68.7021 86.9361 68.8924 87.4488 69.2467 87.8422C69.6076 88.2291 70.0702 88.4226 70.6345 88.4226C71.0742 88.4226 71.4843 88.313 71.8649 88.0937C71.9174 88.0615 71.9764 88.055 72.042 88.0744C72.1076 88.0873 72.1536 88.1227 72.1798 88.1808C72.2126 88.2388 72.2192 88.3033 72.1995 88.3743C72.1798 88.4387 72.1404 88.4871 72.0814 88.5194C71.609 88.7773 71.107 88.9063 70.5755 88.9063ZM68.6759 85.7237C68.6759 85.7624 68.6988 85.7817 68.7448 85.7817H71.9042C71.9567 85.7817 71.983 85.7592 71.983 85.714C71.983 85.7076 71.983 85.7044 71.983 85.7044C71.9698 85.1046 71.8288 84.6467 71.5597 84.3307C71.2907 84.0147 70.92 83.8567 70.4475 83.8567C70.0013 83.8567 69.6109 84.0244 69.2763 84.3597C68.876 84.7596 68.6759 85.2142 68.6759 85.7237Z" fill="#4D4945"/>
<path d="M76.7467 88.6935C76.6877 88.7515 76.6155 88.7805 76.5302 88.7805C76.4515 88.7805 76.3826 88.7515 76.3235 88.6935C76.2645 88.6354 76.2349 88.5645 76.2349 88.4807V82.1348C76.2349 81.9736 76.2907 81.8382 76.4023 81.7285C76.5138 81.6189 76.6516 81.5641 76.8156 81.5641H78.1345C79.0072 81.5641 79.67 81.7221 80.1227 82.0381C80.5821 82.3541 80.8117 82.87 80.8117 83.5859C80.8117 84.2953 80.5821 84.8305 80.1227 85.1917C79.6634 85.5528 79.0138 85.7334 78.1739 85.7334H76.9042C76.8583 85.7334 76.8353 85.756 76.8353 85.8011V88.4807C76.8353 88.5645 76.8058 88.6354 76.7467 88.6935ZM76.8353 85.1626C76.8353 85.2078 76.8583 85.2304 76.9042 85.2304H78.0558C78.7907 85.2304 79.3321 85.1014 79.6798 84.8434C80.0276 84.579 80.2015 84.1598 80.2015 83.5859C80.2015 83.0248 80.0243 82.6314 79.67 82.4057C79.3222 82.1735 78.771 82.0574 78.0164 82.0574H76.9042C76.8583 82.0574 76.8353 82.08 76.8353 82.1252V85.1626Z" fill="#4D4945"/>
<path d="M82.8294 88.7032C82.7704 88.7547 82.7015 88.7805 82.6227 88.7805C82.544 88.7805 82.4751 88.7547 82.416 88.7032C82.357 88.6451 82.3275 88.5742 82.3275 88.4903V83.7406C82.3275 83.6761 82.3504 83.6213 82.3964 83.5762C82.4488 83.5246 82.5079 83.4988 82.5735 83.4988C82.6391 83.4988 82.6982 83.5214 82.7507 83.5665C82.8032 83.6117 82.8294 83.6697 82.8294 83.7406L82.8885 84.4758C82.8885 84.4823 82.8918 84.4855 82.8983 84.4855C82.9049 84.4855 82.9082 84.4823 82.9082 84.4758C83.0985 84.134 83.3248 83.8632 83.5873 83.6632C83.8498 83.4633 84.1286 83.3634 84.4239 83.3634C84.5355 83.3634 84.6339 83.373 84.7192 83.3924C84.7979 83.4053 84.8537 83.4472 84.8865 83.5181C84.9128 83.5633 84.9259 83.6117 84.9259 83.6632C84.9259 83.689 84.9226 83.7148 84.916 83.7406C84.8964 83.8051 84.8537 83.8567 84.7881 83.8954C84.729 83.9277 84.6634 83.9373 84.5912 83.9244C84.5322 83.9115 84.4534 83.9051 84.355 83.9051C84.0991 83.9051 83.8465 84.0083 83.5971 84.2146C83.3478 84.4146 83.1313 84.7306 82.9475 85.1626C82.9279 85.2078 82.918 85.2562 82.918 85.3077V88.4903C82.918 88.5742 82.8885 88.6451 82.8294 88.7032Z" fill="#4D4945"/>
<path d="M89.5519 88.1614C89.086 88.658 88.5118 88.9063 87.8294 88.9063C87.1536 88.9063 86.5794 88.658 86.107 88.1614C85.6345 87.6649 85.3983 86.9942 85.3983 86.1493C85.3983 85.2981 85.6345 84.6209 86.107 84.1179C86.5794 83.6149 87.1536 83.3634 87.8294 83.3634C88.5118 83.3634 89.086 83.6149 89.5519 84.1179C90.0243 84.6209 90.2605 85.2981 90.2605 86.1493C90.2605 86.9942 90.0243 87.6649 89.5519 88.1614ZM86.5302 87.7842C86.8714 88.2034 87.3045 88.4129 87.8294 88.4129C88.3609 88.4129 88.7973 88.2034 89.1385 87.7842C89.4797 87.3585 89.6503 86.8136 89.6503 86.1493C89.6503 85.4786 89.4797 84.9305 89.1385 84.5048C88.7973 84.0792 88.3609 83.8664 87.8294 83.8664C87.3045 83.8664 86.8714 84.0792 86.5302 84.5048C86.189 84.9305 86.0184 85.4786 86.0184 86.1493C86.0184 86.8136 86.189 87.3585 86.5302 87.7842Z" fill="#4D4945"/>
<defs>
<filter id="filter0_bdii" x="-22.2395" y="-31.5937" width="135" height="135" filterUnits="userSpaceOnUse" color-interpolation-filters="sRGB">
<feFlood flood-opacity="0" result="BackgroundImageFix"/>
<feGaussianBlur in="BackgroundImage" stdDeviation="25"/>
<feComposite in2="SourceAlpha" operator="in" result="effect1_backgroundBlur"/>
<feColorMatrix in="SourceAlpha" type="matrix" values="0 0 0 0 0 0 0 0 0 0 0 0 0 0 0 0 0 0 127 0"/>
<feOffset/>
<feGaussianBlur stdDeviation="5"/>
<feColorMatrix type="matrix" values="0 0 0 0 0 0 0 0 0 0 0 0 0 0 0 0 0 0 0.25 0"/>
<feBlend mode="normal" in2="effect1_backgroundBlur" result="effect2_dropShadow"/>
<feBlend mode="normal" in="SourceGraphic" in2="effect2_dropShadow" result="shape"/>
<feColorMatrix in="SourceAlpha" type="matrix" values="0 0 0 0 0 0 0 0 0 0 0 0 0 0 0 0 0 0 127 0" result="hardAlpha"/>
<feOffset dx="4" dy="4"/>
<feGaussianBlur stdDeviation="5"/>
<feComposite in2="hardAlpha" operator="arithmetic" k2="-1" k3="1"/>
<feColorMatrix type="matrix" values="0 0 0 0 0 0 0 0 0 0 0 0 0 0 0 0 0 0 0.15 0"/>
<feBlend mode="normal" in2="shape" result="effect3_innerShadow"/>
<feColorMatrix in="SourceAlpha" type="matrix" values="0 0 0 0 0 0 0 0 0 0 0 0 0 0 0 0 0 0 127 0" result="hardAlpha"/>
<feOffset dx="-4" dy="-4"/>
<feGaussianBlur stdDeviation="5"/>
<feComposite in2="hardAlpha" operator="arithmetic" k2="-1" k3="1"/>
<feColorMatrix type="matrix" values="0 0 0 0 1 0 0 0 0 1 0 0 0 0 1 0 0 0 0.4 0"/>
<feBlend mode="normal" in2="effect3_innerShadow" result="effect4_innerShadow"/>
</filter>
<linearGradient id="paint0_linear" x1="18.4272" y1="10.2396" x2="70.3438" y2="67.4062" gradientUnits="userSpaceOnUse">
<stop stop-color="#6699FF"/>
<stop offset="1" stop-color="#FF3366"/>
</linearGradient>
<linearGradient id="paint1_linear" x1="35.3438" y1="27.7396" x2="66.1686" y2="57.0333" gradientUnits="userSpaceOnUse">
<stop stop-color="#E977FF"/>
<stop offset="1" stop-color="#2B0035"/>
</linearGradient>
</defs>
</svg>
