<svg width="81" height="91" viewBox="0 0 81 91" fill="none" xmlns="http://www.w3.org/2000/svg">
<path fill-rule="evenodd" clip-rule="evenodd" d="M57.0927 19.3874C53.3605 15.6782 48.4806 13.3259 43.2392 12.7093C37.9977 12.0928 32.7001 13.248 28.1998 15.9888C23.6996 18.7295 20.2588 22.8963 18.432 27.8176C16.6052 32.7389 16.4987 38.1281 18.1297 43.1169C19.7607 48.1057 23.0342 52.4035 27.4227 55.3177C31.8112 58.232 37.0592 59.593 42.3209 59.1814C47.5827 58.7699 52.5518 56.6097 56.4275 53.0491C60.3033 49.4884 62.86 44.7346 63.6857 39.5537L75.2605 41.3756C74.9512 43.3166 74.4798 45.2176 73.8559 47.0606C71.9839 52.5906 68.7393 57.5991 64.3825 61.6017C58.5737 66.9382 51.1264 70.1757 43.2404 70.7925C35.3544 71.4093 27.4891 69.3695 20.9119 65.0018C14.3347 60.6341 9.4286 54.1929 6.98416 46.716C4.53973 39.2391 4.69932 31.1621 7.43723 23.7864C10.1751 16.4106 15.3319 10.1658 22.0766 6.05808C28.8213 1.95038 36.7611 0.219056 44.6166 1.14309C50.5085 1.83615 56.0956 3.99271 60.8807 7.37307C62.4755 8.49965 63.9812 9.76216 65.3793 11.1517L57.0927 19.3874Z" fill="url(#paint0_linear)"/>
<g filter="url(#filter0_bdii)">
<path d="M58.0857 35.9004C58.0857 45.5654 50.2022 53.4004 40.4773 53.4004C30.7525 53.4004 22.8689 45.5654 22.8689 35.9004C22.8689 26.2355 30.7525 18.4005 40.4773 18.4005C50.2022 18.4005 58.0857 26.2355 58.0857 35.9004Z" fill="white"/>
</g>
<path d="M21.695 18.4005V54.7981H59.2596V18.4005H21.695ZM21.695 18.4005H59.2596V54.7981H21.695V18.4005ZM30.7739 26.9253C30.7739 26.8214 30.9946 26.7433 31.1225 26.7433C32.4671 26.6868 33.8127 26.6603 35.1584 26.6639C39.4994 26.6639 41.1863 29.0276 41.1863 32.0539C41.1863 36.0101 38.3009 37.7053 34.7663 37.7053C34.1676 37.7053 33.9657 37.6749 33.5502 37.6749V43.6541C33.5502 43.7813 33.5008 43.8361 33.3729 43.8361H30.9512C30.8232 43.8361 30.7739 43.7871 30.7739 43.6599V26.9253ZM33.5502 35.1899C33.9105 35.2144 34.1981 35.2144 34.8215 35.2144C36.6492 35.2144 38.3737 34.5704 38.3737 32.1099C38.3737 30.1348 37.1387 29.1326 35.048 29.1326C34.4306 29.1326 33.8378 29.1571 33.5502 29.1816V35.1899ZM47.0253 33.3361C45.7845 33.3361 45.3689 33.9556 45.3689 34.4666C45.3689 35.0313 45.6506 35.4151 47.307 36.2656C49.7593 37.4509 50.5352 38.5744 50.5352 40.2451C50.5352 42.7301 48.6218 44.0671 46.0415 44.0671C44.6716 44.0671 43.5048 43.7813 42.8321 43.3986C42.7347 43.3496 42.71 43.2714 42.71 43.1431V40.8588C42.71 40.7071 42.784 40.6523 42.8873 40.7316C43.8242 41.337 44.9182 41.6581 46.0357 41.6556C47.2765 41.6556 47.7906 41.1446 47.7906 40.4469C47.7906 39.8823 47.4303 39.3958 45.8584 38.5756C43.6327 37.5186 42.703 36.4429 42.703 34.6439C42.703 32.6384 44.2807 30.9736 47.0135 30.9736C48.3588 30.9736 49.3061 31.1801 49.8262 31.4053C49.9541 31.4846 49.9788 31.6118 49.9788 31.7156V33.8483C49.9788 33.9754 49.899 34.0548 49.7464 33.9999C49.0491 33.5928 48.0219 33.3314 47.0194 33.3314L47.0253 33.3361Z" fill="url(#paint1_linear)"/>
<path d="M1.77601 85.679C1.77601 85.6916 1.77925 85.7073 1.78573 85.7261C1.79868 85.7387 1.81487 85.745 1.8343 85.745H4.19495C4.20791 85.745 4.22086 85.7387 4.23381 85.7261C4.24677 85.7073 4.25 85.6916 4.24353 85.679L3.8258 84.4726C3.57969 83.7877 3.3174 82.9897 3.03891 82.0786C3.03244 82.066 3.02272 82.0598 3.00977 82.0598C2.99682 82.0598 2.9871 82.066 2.98063 82.0786C2.77986 82.7824 2.5208 83.5803 2.20346 84.4726L1.77601 85.679ZM5.54529 88.5725C5.45462 88.5725 5.37043 88.5474 5.29271 88.4971C5.21499 88.4405 5.15994 88.3683 5.12756 88.2803L4.44754 86.2728C4.42811 86.2288 4.39572 86.2068 4.35039 86.2068H1.66915C1.62382 86.2068 1.59143 86.2288 1.572 86.2728L0.862836 88.2992C0.83693 88.3808 0.788357 88.4468 0.717116 88.4971C0.645876 88.5474 0.56492 88.5725 0.47425 88.5725C0.40301 88.5725 0.344722 88.5442 0.299387 88.4877C0.273481 88.45 0.260529 88.4123 0.260529 88.3746C0.260529 88.3494 0.263767 88.3243 0.270243 88.2992L2.61147 81.8147C2.64385 81.733 2.69566 81.6671 2.7669 81.6168C2.84462 81.5665 2.92881 81.5414 3.01948 81.5414C3.11015 81.5414 3.19435 81.5665 3.27206 81.6168C3.34978 81.6671 3.40159 81.733 3.4275 81.8147L5.75901 88.2803C5.77196 88.3054 5.77844 88.3306 5.77844 88.3557C5.77844 88.3997 5.76225 88.4405 5.72987 88.4782C5.68453 88.5411 5.62301 88.5725 5.54529 88.5725Z" fill="#4D4945"/>
<path d="M8.69283 88.695C8.01281 88.695 7.47526 88.4594 7.0802 87.9881C6.68514 87.5169 6.48761 86.8571 6.48761 86.0089C6.48761 85.1983 6.71752 84.5448 7.17735 84.0485C7.63717 83.5458 8.19091 83.2945 8.83855 83.2945C9.12999 83.2945 9.38905 83.3416 9.61572 83.4358C9.84887 83.5301 10.0982 83.6777 10.3637 83.8788C10.3767 83.8851 10.3897 83.8851 10.4026 83.8788C10.4156 83.8725 10.422 83.8631 10.422 83.8505L10.3832 82.9928V81.1832C10.3832 81.1016 10.4091 81.0356 10.4609 80.9853C10.5192 80.9288 10.5872 80.9005 10.6649 80.9005C10.7491 80.9005 10.8171 80.9288 10.8689 80.9853C10.9272 81.0356 10.9563 81.1016 10.9563 81.1832V88.3369C10.9563 88.406 10.9337 88.4625 10.8883 88.5065C10.843 88.5505 10.788 88.5725 10.7232 88.5725C10.6519 88.5725 10.5904 88.5505 10.5386 88.5065C10.4933 88.4625 10.4641 88.4091 10.4512 88.3463L10.4123 87.9316C10.4123 87.9253 10.4091 87.9222 10.4026 87.9222C10.3961 87.9222 10.3897 87.9253 10.3832 87.9316C9.85211 88.4405 9.28866 88.695 8.69283 88.695ZM8.78998 88.2049C9.30161 88.2049 9.81325 87.9504 10.3249 87.4415C10.3637 87.4101 10.3832 87.3724 10.3832 87.3284V84.4914C10.3832 84.4475 10.3637 84.4098 10.3249 84.3783C9.85211 83.9825 9.37609 83.7846 8.89684 83.7846C8.39168 83.7846 7.96747 83.9982 7.62422 84.4255C7.28097 84.8464 7.10934 85.3742 7.10934 86.0089C7.10934 86.6812 7.25506 87.2153 7.5465 87.6111C7.84442 88.007 8.25891 88.2049 8.78998 88.2049Z" fill="#4D4945"/>
<path d="M16.6005 87.9693C16.1407 88.4531 15.574 88.695 14.9005 88.695C14.2334 88.695 13.6667 88.4531 13.2004 87.9693C12.7341 87.4855 12.501 86.832 12.501 86.0089C12.501 85.1795 12.7341 84.5197 13.2004 84.0296C13.6667 83.5395 14.2334 83.2945 14.9005 83.2945C15.574 83.2945 16.1407 83.5395 16.6005 84.0296C17.0668 84.5197 17.3 85.1795 17.3 86.0089C17.3 86.832 17.0668 87.4855 16.6005 87.9693ZM13.6181 87.6017C13.9549 88.0101 14.3824 88.2143 14.9005 88.2143C15.4251 88.2143 15.8558 88.0101 16.1925 87.6017C16.5293 87.187 16.6977 86.6561 16.6977 86.0089C16.6977 85.3554 16.5293 84.8213 16.1925 84.4066C15.8558 83.9919 15.4251 83.7846 14.9005 83.7846C14.3824 83.7846 13.9549 83.9919 13.6181 84.4066C13.2814 84.8213 13.113 85.3554 13.113 86.0089C13.113 86.6561 13.2814 87.187 13.6181 87.6017Z" fill="#4D4945"/>
<path d="M20.9818 88.695C20.4637 88.695 19.9391 88.4814 19.4081 88.0541C19.4081 88.0541 19.4048 88.0541 19.3984 88.0541C19.3919 88.0541 19.3886 88.0573 19.3886 88.0635L19.3498 88.3463C19.3368 88.4091 19.3044 88.4625 19.2526 88.5065C19.2073 88.5505 19.149 88.5725 19.0778 88.5725C19.013 88.5725 18.958 88.5505 18.9126 88.5065C18.8673 88.4625 18.8446 88.4091 18.8446 88.3463V81.1832C18.8446 81.1016 18.8738 81.0356 18.9321 80.9853C18.9903 80.9288 19.0583 80.9005 19.1361 80.9005C19.2138 80.9005 19.2818 80.9288 19.3401 80.9853C19.3984 81.0356 19.4275 81.1016 19.4275 81.1832V83.0965L19.3984 84.0108C19.3984 84.0296 19.4048 84.0422 19.4178 84.0485C19.4307 84.0485 19.4405 84.0453 19.4469 84.039C20.0687 83.5426 20.6483 83.2945 21.1858 83.2945C21.8788 83.2945 22.4067 83.5301 22.7693 84.0013C23.132 84.4663 23.3134 85.1041 23.3134 85.9146C23.3134 86.3419 23.2486 86.7346 23.1191 87.0928C22.996 87.4446 22.8276 87.7368 22.6139 87.9693C22.4002 88.2018 22.1508 88.3808 21.8659 88.5065C21.5874 88.6322 21.2927 88.695 20.9818 88.695ZM20.9236 88.2049C21.4481 88.2049 21.8756 87.9944 22.2059 87.5734C22.5362 87.1524 22.7013 86.5995 22.7013 85.9146C22.7013 85.2549 22.5718 84.7365 22.3127 84.3595C22.0537 83.9762 21.6424 83.7846 21.079 83.7846C20.6062 83.7846 20.0719 84.0422 19.4761 84.5574C19.4437 84.5888 19.4275 84.6297 19.4275 84.6799V87.5075C19.4275 87.5577 19.4469 87.5954 19.4858 87.6206C19.965 88.0101 20.4443 88.2049 20.9236 88.2049Z" fill="#4D4945"/>
<path d="M26.8689 88.695C26.1695 88.695 25.5833 88.4531 25.1106 87.9693C24.6378 87.4792 24.4014 86.8257 24.4014 86.0089C24.4014 85.2046 24.6313 84.5511 25.0911 84.0485C25.5574 83.5458 26.1047 83.2945 26.7329 83.2945C27.3546 83.2945 27.8436 83.4924 28.1998 83.8882C28.5884 84.3092 28.7827 84.8653 28.7827 85.5565C28.7827 85.701 28.7244 85.8267 28.6078 85.9335C28.4913 86.0403 28.3488 86.0937 28.1804 86.0937H25.062C25.0167 86.0937 24.994 86.1157 24.994 86.1597C25.0199 86.7754 25.2077 87.275 25.5574 87.6583C25.9136 88.0353 26.3702 88.2238 26.9272 88.2238C27.3611 88.2238 27.7659 88.1169 28.1415 87.9033C28.1933 87.8719 28.2516 87.8656 28.3164 87.8845C28.3812 87.897 28.4265 87.9316 28.4524 87.9881C28.4848 88.0447 28.4913 88.1075 28.4718 88.1766C28.4524 88.2395 28.4135 88.2866 28.3552 88.318C27.8889 88.5693 27.3935 88.695 26.8689 88.695ZM24.994 85.5942C24.994 85.6319 25.0167 85.6507 25.062 85.6507H28.1804C28.2322 85.6507 28.2581 85.6287 28.2581 85.5847C28.2581 85.5785 28.2581 85.5753 28.2581 85.5753C28.2451 84.991 28.1059 84.5448 27.8404 84.237C27.5748 83.9291 27.2089 83.7751 26.7426 83.7751C26.3022 83.7751 25.9169 83.9385 25.5866 84.2652C25.1915 84.6548 24.994 85.0978 24.994 85.5942Z" fill="#4D4945"/>
<path d="M32.96 88.4877C32.9017 88.5442 32.8305 88.5725 32.7463 88.5725C32.6685 88.5725 32.6005 88.5442 32.5423 88.4877C32.484 88.4311 32.4548 88.362 32.4548 88.2803V82.0975C32.4548 81.9404 32.5099 81.8084 32.62 81.7016C32.7301 81.5948 32.8661 81.5414 33.028 81.5414H34.3297C35.1911 81.5414 35.8452 81.6953 36.2921 82.0032C36.7455 82.3111 36.9721 82.8138 36.9721 83.5112C36.9721 84.2024 36.7455 84.7239 36.2921 85.0758C35.8388 85.4277 35.1976 85.6036 34.3686 85.6036H33.1154C33.0701 85.6036 33.0474 85.6256 33.0474 85.6696V88.2803C33.0474 88.362 33.0183 88.4311 32.96 88.4877ZM33.0474 85.0475C33.0474 85.0915 33.0701 85.1135 33.1154 85.1135H34.252C34.9774 85.1135 35.5117 84.9878 35.8549 84.7365C36.1982 84.4789 36.3698 84.0704 36.3698 83.5112C36.3698 82.9646 36.195 82.5813 35.8452 82.3614C35.502 82.1352 34.958 82.0221 34.2132 82.0221H33.1154C33.0701 82.0221 33.0474 82.0441 33.0474 82.088V85.0475Z" fill="#4D4945"/>
<path d="M38.9636 88.4971C38.9053 88.5474 38.8373 88.5725 38.7596 88.5725C38.6819 88.5725 38.6139 88.5474 38.5556 88.4971C38.4973 88.4405 38.4682 88.3714 38.4682 88.2897V81.1832C38.4682 81.1016 38.4973 81.0356 38.5556 80.9853C38.6139 80.9288 38.6819 80.9005 38.7596 80.9005C38.8373 80.9005 38.9053 80.9288 38.9636 80.9853C39.0219 81.0356 39.0511 81.1016 39.0511 81.1832V83.0965L39.0413 84.1521C39.0413 84.1647 39.0478 84.1741 39.0608 84.1804C39.0737 84.1804 39.0834 84.1773 39.0899 84.171C39.3878 83.8882 39.6728 83.6715 39.9448 83.5207C40.2233 83.3699 40.5244 83.2945 40.8483 83.2945C41.3988 83.2945 41.8035 83.461 42.0626 83.794C42.3281 84.1207 42.4609 84.6171 42.4609 85.2831V88.2897C42.4609 88.3714 42.4318 88.4405 42.3735 88.4971C42.3217 88.5474 42.2536 88.5725 42.1695 88.5725C42.0917 88.5725 42.0237 88.5474 41.9654 88.4971C41.9136 88.4405 41.8877 88.3714 41.8877 88.2897V85.3585C41.8877 84.8182 41.7938 84.4223 41.606 84.171C41.4182 83.9196 41.1235 83.794 40.722 83.794C40.437 83.794 40.1715 83.8631 39.9254 84.0013C39.6857 84.1396 39.4105 84.3626 39.0996 84.6705C39.0672 84.7019 39.0511 84.7428 39.0511 84.793V88.2897C39.0511 88.3714 39.0219 88.4405 38.9636 88.4971Z" fill="#4D4945"/>
<path d="M47.9885 87.9693C47.5287 88.4531 46.962 88.695 46.2885 88.695C45.6214 88.695 45.0547 88.4531 44.5884 87.9693C44.1221 87.4855 43.8889 86.832 43.8889 86.0089C43.8889 85.1795 44.1221 84.5197 44.5884 84.0296C45.0547 83.5395 45.6214 83.2945 46.2885 83.2945C46.962 83.2945 47.5287 83.5395 47.9885 84.0296C48.4548 84.5197 48.688 85.1795 48.688 86.0089C48.688 86.832 48.4548 87.4855 47.9885 87.9693ZM45.0061 87.6017C45.3429 88.0101 45.7703 88.2143 46.2885 88.2143C46.813 88.2143 47.2437 88.0101 47.5805 87.6017C47.9173 87.187 48.0857 86.6561 48.0857 86.0089C48.0857 85.3554 47.9173 84.8213 47.5805 84.4066C47.2437 83.9919 46.813 83.7846 46.2885 83.7846C45.7703 83.7846 45.3429 83.9919 45.0061 84.4066C44.6694 84.8213 44.501 85.3554 44.501 86.0089C44.501 86.6561 44.6694 87.187 45.0061 87.6017Z" fill="#4D4945"/>
<path d="M51.7287 88.695C51.2364 88.695 50.8867 88.5599 50.6795 88.2897C50.4722 88.0133 50.3686 87.6174 50.3686 87.1022V83.9731C50.3686 83.9228 50.3427 83.8977 50.2909 83.8977H49.7566C49.6983 83.8977 49.6465 83.8788 49.6011 83.8411C49.5623 83.7971 49.5429 83.7469 49.5429 83.6903C49.5429 83.6275 49.5623 83.5772 49.6011 83.5395C49.6465 83.4955 49.6983 83.4704 49.7566 83.4641L50.3103 83.4358C50.3621 83.4295 50.388 83.4044 50.388 83.3604L50.4463 82.1823C50.4463 82.1132 50.469 82.0566 50.5143 82.0126C50.5661 81.9687 50.6244 81.9467 50.6892 81.9467C50.7604 81.9467 50.8187 81.9687 50.8641 82.0126C50.9159 82.0566 50.9418 82.1132 50.9418 82.1823V83.3604C50.9418 83.4044 50.9677 83.4264 51.0195 83.4264H52.2241C52.2889 83.4264 52.3439 83.4515 52.3892 83.5018C52.4411 83.5458 52.467 83.6023 52.467 83.6715C52.467 83.7343 52.4411 83.7877 52.3892 83.8317C52.3439 83.8757 52.2889 83.8977 52.2241 83.8977H51.0195C50.9677 83.8977 50.9418 83.9228 50.9418 83.9731V87.1399C50.9418 87.4917 51.0065 87.7588 51.1361 87.941C51.2656 88.1232 51.4955 88.2143 51.8258 88.2143C51.9489 88.2143 52.0913 88.1923 52.2532 88.1484C52.318 88.1295 52.3763 88.1358 52.4281 88.1672C52.4864 88.1923 52.5253 88.2332 52.5447 88.2897C52.5512 88.3149 52.5544 88.3369 52.5544 88.3557C52.5544 88.3934 52.5447 88.428 52.5253 88.4594C52.4993 88.5159 52.454 88.5536 52.3892 88.5725C52.1172 88.6542 51.897 88.695 51.7287 88.695Z" fill="#4D4945"/>
<path d="M57.2951 87.9693C56.8353 88.4531 56.2686 88.695 55.5951 88.695C54.928 88.695 54.3613 88.4531 53.895 87.9693C53.4287 87.4855 53.1956 86.832 53.1956 86.0089C53.1956 85.1795 53.4287 84.5197 53.895 84.0296C54.3613 83.5395 54.928 83.2945 55.5951 83.2945C56.2686 83.2945 56.8353 83.5395 57.2951 84.0296C57.7614 84.5197 57.9946 85.1795 57.9946 86.0089C57.9946 86.832 57.7614 87.4855 57.2951 87.9693ZM54.3127 87.6017C54.6495 88.0101 55.077 88.2143 55.5951 88.2143C56.1197 88.2143 56.5504 88.0101 56.8871 87.6017C57.2239 87.187 57.3923 86.6561 57.3923 86.0089C57.3923 85.3554 57.2239 84.8213 56.8871 84.4066C56.5504 83.9919 56.1197 83.7846 55.5951 83.7846C55.077 83.7846 54.6495 83.9919 54.3127 84.4066C53.976 84.8213 53.8076 85.3554 53.8076 86.0089C53.8076 86.6561 53.976 87.187 54.3127 87.6017Z" fill="#4D4945"/>
<path d="M60.8507 88.695C60.229 88.695 59.6461 88.5128 59.1021 88.1484C59.0308 88.0981 58.9952 88.029 58.9952 87.941C58.9952 87.8845 59.0146 87.8342 59.0535 87.7902C59.0923 87.7337 59.1474 87.7022 59.2186 87.696C59.2899 87.6897 59.3514 87.7054 59.4032 87.7431C59.8566 88.0698 60.3488 88.2332 60.8798 88.2332C61.2619 88.2332 61.5599 88.1421 61.7736 87.9599C61.9873 87.7714 62.0942 87.5389 62.0942 87.2624C62.0942 87.1179 62.0585 86.9859 61.9873 86.8666C61.9161 86.7472 61.8092 86.6435 61.6667 86.5555C61.5307 86.4676 61.398 86.3953 61.2684 86.3387C61.1454 86.2822 60.9899 86.2225 60.8021 86.1597C60.6014 86.0906 60.4394 86.034 60.3164 85.99C60.1998 85.9398 60.0573 85.8706 59.8889 85.7827C59.7206 85.6884 59.5878 85.5973 59.4906 85.5093C59.4 85.4151 59.319 85.2957 59.2478 85.1512C59.1765 85.0067 59.1409 84.8496 59.1409 84.6799C59.1409 84.2904 59.2964 83.9636 59.6072 83.6997C59.9246 83.4295 60.352 83.2945 60.8896 83.2945C61.3494 83.2945 61.7963 83.4295 62.2302 83.6997C62.282 83.7374 62.3111 83.7908 62.3176 83.86C62.3306 83.9228 62.3176 83.9825 62.2787 84.039C62.2399 84.0893 62.1848 84.1207 62.1136 84.1333C62.0488 84.1396 61.9873 84.127 61.929 84.0956C61.5793 83.8757 61.2263 83.7657 60.8701 83.7657C60.4945 83.7657 60.2095 83.8505 60.0152 84.0202C59.8209 84.1898 59.7238 84.4003 59.7238 84.6517C59.7238 84.7648 59.7497 84.8684 59.8015 84.9627C59.8533 85.0507 59.9084 85.1261 59.9667 85.1889C60.0314 85.2454 60.1286 85.3083 60.2581 85.3774C60.3941 85.4402 60.501 85.4874 60.5787 85.5188C60.6564 85.5502 60.7827 85.5973 60.9576 85.6601C60.9835 85.6664 61.0191 85.679 61.0644 85.6978C61.2717 85.7732 61.4303 85.8329 61.5404 85.8769C61.6505 85.9209 61.7898 85.99 61.9582 86.0843C62.1265 86.1785 62.2528 86.2728 62.337 86.367C62.4212 86.4613 62.4957 86.5838 62.5605 86.7346C62.6317 86.8854 62.6673 87.0519 62.6673 87.2341C62.6673 87.6488 62.5054 87.9976 62.1816 88.2803C61.8578 88.5568 61.4141 88.695 60.8507 88.695Z" fill="#4D4945"/>
<path d="M64.5228 88.4971C64.4645 88.5474 64.3965 88.5725 64.3188 88.5725C64.2411 88.5725 64.1731 88.5474 64.1148 88.4971C64.0565 88.4405 64.0274 88.3714 64.0274 88.2897V81.1832C64.0274 81.1016 64.0565 81.0356 64.1148 80.9853C64.1731 80.9288 64.2411 80.9005 64.3188 80.9005C64.3965 80.9005 64.4645 80.9288 64.5228 80.9853C64.5811 81.0356 64.6103 81.1016 64.6103 81.1832V83.0965L64.6005 84.1521C64.6005 84.1647 64.607 84.1741 64.62 84.1804C64.6329 84.1804 64.6426 84.1773 64.6491 84.171C64.947 83.8882 65.232 83.6715 65.504 83.5207C65.7825 83.3699 66.0836 83.2945 66.4075 83.2945C66.958 83.2945 67.3627 83.461 67.6218 83.794C67.8873 84.1207 68.0201 84.6171 68.0201 85.2831V88.2897C68.0201 88.3714 67.9909 88.4405 67.9327 88.4971C67.8809 88.5474 67.8128 88.5725 67.7287 88.5725C67.6509 88.5725 67.5829 88.5474 67.5246 88.4971C67.4728 88.4405 67.4469 88.3714 67.4469 88.2897V85.3585C67.4469 84.8182 67.353 84.4223 67.1652 84.171C66.9774 83.9196 66.6827 83.794 66.2812 83.794C65.9962 83.794 65.7307 83.8631 65.4846 84.0013C65.2449 84.1396 64.9697 84.3626 64.6588 84.6705C64.6264 84.7019 64.6103 84.7428 64.6103 84.793V88.2897C64.6103 88.3714 64.5811 88.4405 64.5228 88.4971Z" fill="#4D4945"/>
<path d="M73.5477 87.9693C73.0879 88.4531 72.5212 88.695 71.8477 88.695C71.1806 88.695 70.6139 88.4531 70.1476 87.9693C69.6813 87.4855 69.4481 86.832 69.4481 86.0089C69.4481 85.1795 69.6813 84.5197 70.1476 84.0296C70.6139 83.5395 71.1806 83.2945 71.8477 83.2945C72.5212 83.2945 73.0879 83.5395 73.5477 84.0296C74.014 84.5197 74.2472 85.1795 74.2472 86.0089C74.2472 86.832 74.014 87.4855 73.5477 87.9693ZM70.5653 87.6017C70.9021 88.0101 71.3295 88.2143 71.8477 88.2143C72.3723 88.2143 72.8029 88.0101 73.1397 87.6017C73.4765 87.187 73.6449 86.6561 73.6449 86.0089C73.6449 85.3554 73.4765 84.8213 73.1397 84.4066C72.8029 83.9919 72.3723 83.7846 71.8477 83.7846C71.3295 83.7846 70.9021 83.9919 70.5653 84.4066C70.2286 84.8213 70.0602 85.3554 70.0602 86.0089C70.0602 86.6561 70.2286 87.187 70.5653 87.6017Z" fill="#4D4945"/>
<path d="M76.2872 90.8157C76.229 90.8722 76.161 90.9005 76.0832 90.9005C76.0055 90.9005 75.9375 90.8722 75.8792 90.8157C75.8209 90.7591 75.7918 90.6931 75.7918 90.6177V83.6903C75.7918 83.6212 75.8145 83.5646 75.8598 83.5207C75.9116 83.4767 75.9699 83.4547 76.0347 83.4547C76.0994 83.4547 76.1577 83.4767 76.2095 83.5207C76.2613 83.5646 76.2905 83.618 76.297 83.6809L76.3455 84.0767C76.3455 84.083 76.3488 84.0862 76.3552 84.0862C76.3617 84.0862 76.3682 84.083 76.3747 84.0767C77.0482 83.5741 77.6343 83.3227 78.133 83.3227C78.826 83.3227 79.3538 83.5584 79.7165 84.0296C80.0792 84.4946 80.2605 85.1323 80.2605 85.9429C80.2605 86.7912 80.0339 87.4666 79.5805 87.9693C79.1272 88.472 78.5767 88.7233 77.929 88.7233C77.4562 88.7233 76.9543 88.5285 76.4232 88.1389C76.4103 88.1327 76.3973 88.1327 76.3844 88.1389C76.3714 88.1452 76.365 88.1546 76.365 88.1672L76.3747 89.0437V90.6177C76.3747 90.6931 76.3455 90.7591 76.2872 90.8157ZM77.8707 88.2332C78.3953 88.2332 78.8228 88.0227 79.1531 87.6017C79.4834 87.1807 79.6485 86.6278 79.6485 85.9429C79.6485 85.2831 79.519 84.7648 79.2599 84.3878C79.0009 84.0045 78.5896 83.8128 78.0262 83.8128C77.5728 83.8128 77.0385 84.0704 76.4232 84.5857C76.3909 84.6171 76.3747 84.6548 76.3747 84.6988V87.5357C76.3747 87.5797 76.3941 87.6174 76.433 87.6488C76.9252 88.0384 77.4044 88.2332 77.8707 88.2332Z" fill="#4D4945"/>
<defs>
<filter id="filter0_bdii" x="-27.1311" y="-31.5995" width="135.217" height="135" filterUnits="userSpaceOnUse" color-interpolation-filters="sRGB">
<feFlood flood-opacity="0" result="BackgroundImageFix"/>
<feGaussianBlur in="BackgroundImage" stdDeviation="25"/>
<feComposite in2="SourceAlpha" operator="in" result="effect1_backgroundBlur"/>
<feColorMatrix in="SourceAlpha" type="matrix" values="0 0 0 0 0 0 0 0 0 0 0 0 0 0 0 0 0 0 127 0"/>
<feOffset/>
<feGaussianBlur stdDeviation="5"/>
<feColorMatrix type="matrix" values="0 0 0 0 0 0 0 0 0 0 0 0 0 0 0 0 0 0 0.25 0"/>
<feBlend mode="normal" in2="effect1_backgroundBlur" result="effect2_dropShadow"/>
<feBlend mode="normal" in="SourceGraphic" in2="effect2_dropShadow" result="shape"/>
<feColorMatrix in="SourceAlpha" type="matrix" values="0 0 0 0 0 0 0 0 0 0 0 0 0 0 0 0 0 0 127 0" result="hardAlpha"/>
<feOffset dx="4" dy="4"/>
<feGaussianBlur stdDeviation="5"/>
<feComposite in2="hardAlpha" operator="arithmetic" k2="-1" k3="1"/>
<feColorMatrix type="matrix" values="0 0 0 0 0 0 0 0 0 0 0 0 0 0 0 0 0 0 0.15 0"/>
<feBlend mode="normal" in2="shape" result="effect3_innerShadow"/>
<feColorMatrix in="SourceAlpha" type="matrix" values="0 0 0 0 0 0 0 0 0 0 0 0 0 0 0 0 0 0 127 0" result="hardAlpha"/>
<feOffset dx="-4" dy="-4"/>
<feGaussianBlur stdDeviation="5"/>
<feComposite in2="hardAlpha" operator="arithmetic" k2="-1" k3="1"/>
<feColorMatrix type="matrix" values="0 0 0 0 1 0 0 0 0 1 0 0 0 0 1 0 0 0 0.4 0"/>
<feBlend mode="normal" in2="effect3_innerShadow" result="effect4_innerShadow"/>
</filter>
<linearGradient id="paint0_linear" x1="13.4778" y1="10.2338" x2="65.3626" y2="67.7194" gradientUnits="userSpaceOnUse">
<stop stop-color="#6699FF"/>
<stop offset="1" stop-color="#FF3366"/>
</linearGradient>
<linearGradient id="paint1_linear" x1="30.4992" y1="27.1504" x2="63.814" y2="51.2622" gradientUnits="userSpaceOnUse">
<stop offset="0.0134346" stop-color="#31A8FF"/>
<stop offset="1" stop-color="#001E36"/>
</linearGradient>
</defs>
</svg>
