<svg width="50" height="50" viewBox="0 0 50 50" fill="none" xmlns="http://www.w3.org/2000/svg">
<path fill-rule="evenodd" clip-rule="evenodd" d="M25 50C38.8071 50 50 38.8071 50 25C50 11.1929 38.8071 0 25 0C11.1929 0 0 11.1929 0 25C0 38.8071 11.1929 50 25 50ZM11.2672 18.3783C11.5806 18.065 12.0057 17.8889 12.4489 17.8889H37.5511C37.9943 17.8889 38.4194 18.065 38.7328 18.3783C39.0462 18.6917 39.2222 19.1168 39.2222 19.56V35.7733C39.2222 36.2165 39.0462 36.6416 38.7328 36.955C38.4194 37.2684 37.9943 37.4444 37.5511 37.4444H12.4489C12.0057 37.4444 11.5806 37.2684 11.2672 36.955C10.9538 36.6416 10.7778 36.2165 10.7778 35.7733V19.56C10.7778 19.1168 10.9538 18.6917 11.2672 18.3783ZM21.8089 32.28L30.4933 28.4044C30.6511 28.3349 30.7852 28.221 30.8793 28.0766C30.9735 27.9322 31.0236 27.7635 31.0236 27.5911C31.0236 27.4187 30.9735 27.2501 30.8793 27.1056C30.7852 26.9612 30.6511 26.8473 30.4933 26.7778L21.8089 22.9111C21.6737 22.8503 21.5254 22.8243 21.3775 22.8355C21.2297 22.8466 21.087 22.8946 20.9624 22.975C20.8379 23.0554 20.7354 23.1657 20.6643 23.2958C20.5933 23.4259 20.5559 23.5717 20.5556 23.72V31.4711C20.5559 31.6194 20.5933 31.7652 20.6643 31.8953C20.7354 32.0254 20.8379 32.1357 20.9624 32.2161C21.087 32.2965 21.2297 32.3445 21.3775 32.3556C21.5254 32.3668 21.6737 32.3408 21.8089 32.28ZM35.7911 11.6667C35.7911 11.4309 35.6975 11.2048 35.5308 11.0381C35.3641 10.8714 35.138 10.7778 34.9022 10.7778H15.3467C15.1109 10.7778 14.8848 10.8714 14.7181 11.0381C14.5514 11.2048 14.4578 11.4309 14.4578 11.6667V12.5556H35.7911V11.6667ZM37.2908 14.5937C37.4575 14.7604 37.5511 14.9865 37.5511 15.2222V16.1111H12.6622V15.2222C12.6622 14.9865 12.7559 14.7604 12.9226 14.5937C13.0893 14.427 13.3154 14.3333 13.5511 14.3333H36.6622C36.898 14.3333 37.1241 14.427 37.2908 14.5937Z" fill="white"/>
</svg>
