<svg width="71" height="89" viewBox="0 0 71 89" fill="none" xmlns="http://www.w3.org/2000/svg">
<path fill-rule="evenodd" clip-rule="evenodd" d="M54.7427 19.3932C51.0545 15.906 46.2933 13.6123 41.1416 12.8408C35.9899 12.0693 30.7121 12.8597 26.0647 15.0986C21.4173 17.3375 17.6388 20.9101 15.2709 25.3042C12.9029 29.6984 12.067 34.6885 12.8829 39.5595C13.6989 44.4304 16.1248 48.9321 19.813 52.4193C23.5012 55.9066 28.2624 58.2003 33.4141 58.9718C38.5658 59.7432 43.8435 58.9529 48.491 56.7139C53.1384 54.475 56.9169 50.9025 59.2848 46.5083L70.2605 51.7959C69.3173 53.5461 68.2248 55.2094 66.9983 56.7712C63.6096 61.0863 59.1975 64.6277 54.0833 67.0915C47.1181 70.447 39.2081 71.6316 31.4871 70.4753C23.766 69.3191 16.6303 65.8814 11.1027 60.655C5.575 55.4286 1.93918 48.6818 0.716283 41.3815C-0.506612 34.0812 0.746206 26.6023 4.29518 20.0166C7.84415 13.431 13.5071 8.07665 20.4723 4.72109C27.4376 1.36552 35.3476 0.180977 43.0686 1.33722C48.7377 2.18619 54.0913 4.26509 58.7244 7.37891C60.4014 8.50596 61.984 9.7686 63.453 11.1576L54.7427 19.3932Z" fill="url(#paint0_linear)"/>
<g filter="url(#filter0_bdii)">
<path d="M55.7865 35.9063C55.7865 45.5712 47.4999 53.4062 37.2778 53.4062C27.0558 53.4062 18.7692 45.5712 18.7692 35.9063C18.7692 26.2413 27.0558 18.4063 37.2778 18.4063C47.4999 18.4063 55.7865 26.2413 55.7865 35.9063Z" fill="white"/>
</g>
<path fill-rule="evenodd" clip-rule="evenodd" d="M38.0042 43.6715L33.3256 34.9537L37.7368 26.8137C37.8203 26.6693 37.7703 26.5729 37.6366 26.5729H34.9464C34.7813 26.5729 34.7304 26.6512 34.6487 26.7769L34.6456 26.7816C34.369 27.3525 34.0887 27.9256 33.8077 28.5003C33.0532 30.0427 32.294 31.5953 31.5879 33.1394H31.5544C30.8172 31.5574 30.0438 30.0014 29.2676 28.4395C28.9882 27.8774 28.7084 27.3146 28.4299 26.7495C28.3797 26.605 28.2962 26.5729 28.1291 26.5729H25.2551C25.1382 26.5729 25.038 26.6853 25.1382 26.8137L29.5661 35.2265L24.9878 43.6876C24.9043 43.7839 24.9209 43.9124 25.088 43.9124H27.8618C27.9954 43.9124 28.0789 43.8642 28.1625 43.7357C29.2319 41.6165 30.3347 39.2725 31.3373 37.1211H31.3707C32.4902 39.4009 33.5762 41.6004 34.6456 43.7197C34.7292 43.8803 34.8127 43.9284 34.9965 43.9284H37.9039C38.0376 43.9284 38.0877 43.7999 38.0042 43.6715ZM39.0234 37.5546C39.0234 33.8137 41.5298 30.8917 45.6401 30.8917C45.9911 30.8917 46.1748 30.8917 46.509 30.9239V26.7495C46.509 26.6532 46.5926 26.5889 46.6761 26.5889H49.3664C49.5 26.5889 49.5334 26.6372 49.5334 26.7174V41.3918C49.5334 41.8252 49.5334 42.3711 49.6169 42.9652C49.6169 43.0775 49.6169 43.0936 49.5167 43.1417C48.1131 43.7839 46.6427 44.0729 45.2391 44.0729C41.6133 44.0729 39.0234 41.9215 39.0234 37.5546ZM46.509 33.4445C46.2584 33.332 45.9409 33.2839 45.5399 33.2839C43.4346 33.2839 42.0311 34.8412 42.0311 37.4262C42.0311 40.3802 43.4681 41.5683 45.3394 41.5683C45.7404 41.5683 46.1748 41.5202 46.4924 41.3918V33.4445H46.509Z" fill="url(#paint1_linear)"/>
<path d="M15.9099 85.8575C15.9099 85.8705 15.9132 85.8868 15.9197 85.9063C15.9327 85.9193 15.949 85.9258 15.9685 85.9258H18.3416C18.3546 85.9258 18.3676 85.9193 18.3806 85.9063C18.3937 85.8868 18.3969 85.8705 18.3904 85.8575L17.9705 84.6075C17.7231 83.8978 17.4594 83.071 17.1795 82.127C17.173 82.114 17.1632 82.1075 17.1502 82.1075C17.1372 82.1075 17.1274 82.114 17.1209 82.127C16.9191 82.8562 16.6586 83.683 16.3396 84.6075L15.9099 85.8575ZM19.699 88.8555C19.6079 88.8555 19.5232 88.8295 19.4451 88.7774C19.367 88.7188 19.3116 88.6439 19.2791 88.5528L18.5955 86.4727C18.576 86.4271 18.5434 86.4044 18.4978 86.4044H15.8025C15.7569 86.4044 15.7244 86.4271 15.7049 86.4727L14.992 88.5723C14.9659 88.657 14.9171 88.7253 14.8455 88.7774C14.7739 88.8295 14.6925 88.8555 14.6013 88.8555C14.5297 88.8555 14.4711 88.8262 14.4256 88.7676C14.3995 88.7286 14.3865 88.6895 14.3865 88.6505C14.3865 88.6244 14.3898 88.5984 14.3963 88.5723L16.7498 81.8536C16.7823 81.7689 16.8344 81.7006 16.906 81.6485C16.9842 81.5964 17.0688 81.5704 17.1599 81.5704C17.2511 81.5704 17.3357 81.5964 17.4138 81.6485C17.492 81.7006 17.5441 81.7689 17.5701 81.8536L19.9138 88.5528C19.9269 88.5788 19.9334 88.6049 19.9334 88.6309C19.9334 88.6765 19.9171 88.7188 19.8846 88.7579C19.839 88.823 19.7771 88.8555 19.699 88.8555Z" fill="#4D4945"/>
<path d="M22.8631 88.9825C22.1795 88.9825 21.6391 88.7383 21.242 88.2501C20.8448 87.7618 20.6463 87.0782 20.6463 86.1993C20.6463 85.3594 20.8774 84.6824 21.3396 84.168C21.8019 83.6472 22.3585 83.3868 23.0096 83.3868C23.3025 83.3868 23.5629 83.4356 23.7908 83.5333C24.0252 83.6309 24.2758 83.7839 24.5428 83.9922C24.5558 83.9988 24.5688 83.9988 24.5818 83.9922C24.5948 83.9857 24.6013 83.976 24.6013 83.963L24.5623 83.0743V81.1993C24.5623 81.1146 24.5883 81.0463 24.6404 80.9942C24.699 80.9356 24.7674 80.9063 24.8455 80.9063C24.9301 80.9063 24.9985 80.9356 25.0506 80.9942C25.1092 81.0463 25.1385 81.1146 25.1385 81.1993V88.6114C25.1385 88.683 25.1157 88.7416 25.0701 88.7872C25.0245 88.8327 24.9692 88.8555 24.9041 88.8555C24.8325 88.8555 24.7706 88.8327 24.7185 88.7872C24.673 88.7416 24.6437 88.6863 24.6306 88.6212L24.5916 88.1915C24.5916 88.185 24.5883 88.1817 24.5818 88.1817C24.5753 88.1817 24.5688 88.185 24.5623 88.1915C24.0284 88.7188 23.462 88.9825 22.8631 88.9825ZM22.9607 88.4747C23.475 88.4747 23.9894 88.211 24.5037 87.6837C24.5428 87.6511 24.5623 87.612 24.5623 87.5665V84.627C24.5623 84.5814 24.5428 84.5424 24.5037 84.5098C24.0284 84.0997 23.5499 83.8946 23.0681 83.8946C22.5603 83.8946 22.1339 84.1159 21.7888 84.5587C21.4438 84.9949 21.2713 85.5417 21.2713 86.1993C21.2713 86.8959 21.4178 87.4493 21.7107 87.8594C22.0102 88.2696 22.4269 88.4747 22.9607 88.4747Z" fill="#4D4945"/>
<path d="M30.8123 88.2305C30.35 88.7318 29.7804 88.9825 29.1033 88.9825C28.4327 88.9825 27.8631 88.7318 27.3943 88.2305C26.9256 87.7292 26.6912 87.0521 26.6912 86.1993C26.6912 85.3399 26.9256 84.6563 27.3943 84.1485C27.8631 83.6407 28.4327 83.3868 29.1033 83.3868C29.7804 83.3868 30.35 83.6407 30.8123 84.1485C31.281 84.6563 31.5154 85.3399 31.5154 86.1993C31.5154 87.0521 31.281 87.7292 30.8123 88.2305ZM27.8142 87.8497C28.1528 88.2728 28.5825 88.4844 29.1033 88.4844C29.6306 88.4844 30.0636 88.2728 30.4021 87.8497C30.7407 87.42 30.9099 86.8699 30.9099 86.1993C30.9099 85.5222 30.7407 84.9688 30.4021 84.5391C30.0636 84.1094 29.6306 83.8946 29.1033 83.8946C28.5825 83.8946 28.1528 84.1094 27.8142 84.5391C27.4757 84.9688 27.3064 85.5222 27.3064 86.1993C27.3064 86.8699 27.4757 87.42 27.8142 87.8497Z" fill="#4D4945"/>
<path d="M35.2166 88.9825C34.6957 88.9825 34.1684 88.7611 33.6346 88.3184C33.6346 88.3184 33.6313 88.3184 33.6248 88.3184C33.6183 88.3184 33.615 88.3217 33.615 88.3282L33.576 88.6212C33.5629 88.6863 33.5304 88.7416 33.4783 88.7872C33.4327 88.8327 33.3741 88.8555 33.3025 88.8555C33.2374 88.8555 33.1821 88.8327 33.1365 88.7872C33.0909 88.7416 33.0681 88.6863 33.0681 88.6212V81.1993C33.0681 81.1146 33.0974 81.0463 33.156 80.9942C33.2146 80.9356 33.283 80.9063 33.3611 80.9063C33.4392 80.9063 33.5076 80.9356 33.5662 80.9942C33.6248 81.0463 33.6541 81.1146 33.6541 81.1993V83.1817L33.6248 84.129C33.6248 84.1485 33.6313 84.1615 33.6443 84.168C33.6573 84.168 33.6671 84.1648 33.6736 84.1583C34.2986 83.6439 34.8813 83.3868 35.4217 83.3868C36.1183 83.3868 36.6489 83.6309 37.0135 84.1192C37.378 84.601 37.5603 85.2618 37.5603 86.1016C37.5603 86.5443 37.4952 86.9512 37.365 87.3223C37.2413 87.6869 37.0721 87.9896 36.8572 88.2305C36.6424 88.4714 36.3917 88.657 36.1053 88.7872C35.8253 88.9174 35.5291 88.9825 35.2166 88.9825ZM35.158 88.4747C35.6853 88.4747 36.115 88.2566 36.4471 87.8204C36.7791 87.3842 36.9451 86.8113 36.9451 86.1016C36.9451 85.418 36.8149 84.8809 36.5545 84.4903C36.2941 84.0932 35.8806 83.8946 35.3142 83.8946C34.839 83.8946 34.3019 84.1615 33.7029 84.6954C33.6704 84.7279 33.6541 84.7702 33.6541 84.8223V87.752C33.6541 87.8041 33.6736 87.8432 33.7127 87.8692C34.1944 88.2728 34.6762 88.4747 35.158 88.4747Z" fill="#4D4945"/>
<path d="M41.1346 88.9825C40.4314 88.9825 39.8422 88.7318 39.367 88.2305C38.8917 87.7227 38.6541 87.0456 38.6541 86.1993C38.6541 85.3659 38.8852 84.6889 39.3474 84.168C39.8162 83.6472 40.3663 83.3868 40.9978 83.3868C41.6228 83.3868 42.1144 83.5919 42.4724 84.002C42.8631 84.4382 43.0584 85.0144 43.0584 85.7305C43.0584 85.8803 42.9998 86.0105 42.8826 86.1212C42.7654 86.2318 42.6222 86.2872 42.4529 86.2872H39.3181C39.2726 86.2872 39.2498 86.31 39.2498 86.3555C39.2758 86.9936 39.4646 87.5111 39.8162 87.9083C40.1743 88.2989 40.6332 88.4942 41.1931 88.4942C41.6293 88.4942 42.0362 88.3835 42.4138 88.1622C42.4659 88.1296 42.5245 88.1231 42.5896 88.1426C42.6547 88.1557 42.7003 88.1915 42.7263 88.2501C42.7589 88.3087 42.7654 88.3738 42.7459 88.4454C42.7263 88.5105 42.6873 88.5593 42.6287 88.5919C42.1599 88.8523 41.6619 88.9825 41.1346 88.9825ZM39.2498 85.7696C39.2498 85.8087 39.2726 85.8282 39.3181 85.8282H42.4529C42.505 85.8282 42.531 85.8054 42.531 85.7598C42.531 85.7533 42.531 85.7501 42.531 85.7501C42.518 85.1446 42.378 84.6824 42.1111 84.3633C41.8442 84.0443 41.4763 83.8848 41.0076 83.8848C40.5649 83.8848 40.1775 84.0541 39.8455 84.3926C39.4484 84.7963 39.2498 85.2553 39.2498 85.7696Z" fill="#4D4945"/>
<path d="M46.1834 88.8555C46.1183 88.8555 46.0662 88.8262 46.0271 88.7676C46.0141 88.7351 46.0076 88.7058 46.0076 88.6797C46.0076 88.6472 46.0141 88.6146 46.0271 88.5821L48.0096 85.1446C48.0356 85.1055 48.0356 85.0632 48.0096 85.0176L46.1834 81.8536C46.1443 81.7885 46.1411 81.7266 46.1736 81.668C46.2127 81.6029 46.2713 81.5704 46.3494 81.5704C46.5642 81.5704 46.727 81.6648 46.8377 81.8536L47.824 83.6407C47.8891 83.7514 47.9835 83.9141 48.1072 84.129C48.2309 84.3438 48.3318 84.5131 48.4099 84.6368C48.4165 84.6498 48.4262 84.6563 48.4392 84.6563C48.4523 84.6563 48.462 84.6498 48.4685 84.6368C48.5271 84.5261 48.6118 84.3633 48.7224 84.1485C48.8331 83.9337 48.9243 83.7644 48.9959 83.6407L49.992 81.834C50.0961 81.6583 50.2491 81.5704 50.451 81.5704C50.5226 81.5704 50.5747 81.5997 50.6072 81.6583C50.6463 81.7169 50.6463 81.7755 50.6072 81.834L48.7713 85.0567C48.7452 85.0958 48.7452 85.1381 48.7713 85.1837L50.7537 88.5723C50.7732 88.6049 50.783 88.6374 50.783 88.67C50.783 88.7025 50.7732 88.7318 50.7537 88.7579C50.7146 88.823 50.6593 88.8555 50.5877 88.8555C50.3728 88.8555 50.2133 88.7611 50.1092 88.5723L49.0349 86.6778C48.7355 86.1505 48.5174 85.7696 48.3806 85.5352C48.3676 85.5222 48.3546 85.5157 48.3416 85.5157C48.3286 85.5157 48.3188 85.5222 48.3123 85.5352C47.9803 86.1667 47.7817 86.5476 47.7166 86.6778L46.6424 88.5821C46.5447 88.7644 46.3917 88.8555 46.1834 88.8555Z" fill="#4D4945"/>
<path d="M53.8592 88.9825C53.1756 88.9825 52.6352 88.7383 52.2381 88.2501C51.8409 87.7618 51.6424 87.0782 51.6424 86.1993C51.6424 85.3594 51.8735 84.6824 52.3357 84.168C52.798 83.6472 53.3546 83.3868 54.0056 83.3868C54.2986 83.3868 54.559 83.4356 54.7869 83.5333C55.0213 83.6309 55.2719 83.7839 55.5388 83.9922C55.5519 83.9988 55.5649 83.9988 55.5779 83.9922C55.5909 83.9857 55.5974 83.976 55.5974 83.963L55.5584 83.0743V81.1993C55.5584 81.1146 55.5844 81.0463 55.6365 80.9942C55.6951 80.9356 55.7635 80.9063 55.8416 80.9063C55.9262 80.9063 55.9946 80.9356 56.0467 80.9942C56.1053 81.0463 56.1346 81.1146 56.1346 81.1993V88.6114C56.1346 88.683 56.1118 88.7416 56.0662 88.7872C56.0206 88.8327 55.9653 88.8555 55.9002 88.8555C55.8286 88.8555 55.7667 88.8327 55.7146 88.7872C55.6691 88.7416 55.6398 88.6863 55.6267 88.6212L55.5877 88.1915C55.5877 88.185 55.5844 88.1817 55.5779 88.1817C55.5714 88.1817 55.5649 88.185 55.5584 88.1915C55.0245 88.7188 54.4581 88.9825 53.8592 88.9825ZM53.9568 88.4747C54.4711 88.4747 54.9855 88.211 55.4998 87.6837C55.5388 87.6511 55.5584 87.612 55.5584 87.5665V84.627C55.5584 84.5814 55.5388 84.5424 55.4998 84.5098C55.0245 84.0997 54.546 83.8946 54.0642 83.8946C53.5564 83.8946 53.13 84.1159 52.7849 84.5587C52.4399 84.9949 52.2674 85.5417 52.2674 86.1993C52.2674 86.8959 52.4138 87.4493 52.7068 87.8594C53.0063 88.2696 53.423 88.4747 53.9568 88.4747Z" fill="#4D4945"/>
<defs>
<filter id="filter0_bdii" x="-31.2308" y="-31.5937" width="137.017" height="135" filterUnits="userSpaceOnUse" color-interpolation-filters="sRGB">
<feFlood flood-opacity="0" result="BackgroundImageFix"/>
<feGaussianBlur in="BackgroundImage" stdDeviation="25"/>
<feComposite in2="SourceAlpha" operator="in" result="effect1_backgroundBlur"/>
<feColorMatrix in="SourceAlpha" type="matrix" values="0 0 0 0 0 0 0 0 0 0 0 0 0 0 0 0 0 0 127 0"/>
<feOffset/>
<feGaussianBlur stdDeviation="5"/>
<feColorMatrix type="matrix" values="0 0 0 0 0 0 0 0 0 0 0 0 0 0 0 0 0 0 0.25 0"/>
<feBlend mode="normal" in2="effect1_backgroundBlur" result="effect2_dropShadow"/>
<feBlend mode="normal" in="SourceGraphic" in2="effect2_dropShadow" result="shape"/>
<feColorMatrix in="SourceAlpha" type="matrix" values="0 0 0 0 0 0 0 0 0 0 0 0 0 0 0 0 0 0 127 0" result="hardAlpha"/>
<feOffset dx="4" dy="4"/>
<feGaussianBlur stdDeviation="5"/>
<feComposite in2="hardAlpha" operator="arithmetic" k2="-1" k3="1"/>
<feColorMatrix type="matrix" values="0 0 0 0 0 0 0 0 0 0 0 0 0 0 0 0 0 0 0.15 0"/>
<feBlend mode="normal" in2="shape" result="effect3_innerShadow"/>
<feColorMatrix in="SourceAlpha" type="matrix" values="0 0 0 0 0 0 0 0 0 0 0 0 0 0 0 0 0 0 127 0" result="hardAlpha"/>
<feOffset dx="-4" dy="-4"/>
<feGaussianBlur stdDeviation="5"/>
<feComposite in2="hardAlpha" operator="arithmetic" k2="-1" k3="1"/>
<feColorMatrix type="matrix" values="0 0 0 0 1 0 0 0 0 1 0 0 0 0 1 0 0 0 0.4 0"/>
<feBlend mode="normal" in2="effect3_innerShadow" result="effect4_innerShadow"/>
</filter>
<linearGradient id="paint0_linear" x1="8.89791" y1="10.2396" x2="60.4559" y2="70.2836" gradientUnits="userSpaceOnUse">
<stop stop-color="#6699FF"/>
<stop offset="1" stop-color="#FF3366"/>
</linearGradient>
<linearGradient id="paint1_linear" x1="24.3218" y1="26.5729" x2="64.4981" y2="50.6729" gradientUnits="userSpaceOnUse">
<stop stop-color="#FF61F6"/>
<stop offset="0.9999" stop-color="#470137"/>
<stop offset="1" stop-color="#470137"/>
</linearGradient>
</defs>
</svg>
