<svg width="200" height="45" viewBox="0 0 200 45" fill="none" xmlns="http://www.w3.org/2000/svg">
<g filter="url(#filter0_bii)">
<path d="M-0.000610352 22.5C-0.000610352 10.0736 10.073 -3.05176e-05 22.4994 -3.05176e-05H177.499C189.926 -3.05176e-05 199.999 10.0736 199.999 22.5C199.999 34.9264 189.926 45 177.499 45H22.4994C10.073 45 -0.000610352 34.9264 -0.000610352 22.5Z" fill="white" fill-opacity="0.3"/>
</g>
<g clip-path="url(#clip0)">
<path fill-rule="evenodd" clip-rule="evenodd" d="M22 34C28.6274 34 34 28.6274 34 22C34 15.3726 28.6274 10 22 10C15.3726 10 10 15.3726 10 22C10 28.6274 15.3726 34 22 34ZM28.3006 17.9631C28.7206 18.3917 28.8606 19.3917 28.8606 19.3917C28.8606 19.3917 29.0006 20.5345 29.0006 21.6774V22.725C29.0006 23.8679 28.8606 25.0107 28.8606 25.0107C28.8606 25.0107 28.7206 26.0107 28.3006 26.4393C27.8554 26.9348 27.3401 27.0006 27.0285 27.0404C26.9807 27.0465 26.9378 27.052 26.9006 27.0583C24.9406 27.2012 22.0006 27.2012 22.0006 27.2012C22.0006 27.2012 18.3606 27.1536 17.2406 27.106C17.198 27.0998 17.149 27.0944 17.095 27.0884C16.7345 27.0486 16.147 26.9838 15.7006 26.4869C15.2806 26.0583 15.1406 25.0583 15.1406 25.0583C15.1406 25.0583 15.0006 23.8679 15.0006 22.725V21.6774C15.0006 20.5345 15.1406 19.3917 15.1406 19.3917C15.1406 19.3917 15.2806 18.3917 15.7006 17.9631C16.1458 17.4676 16.6611 17.4018 16.9728 17.362C17.0205 17.3559 17.0634 17.3504 17.1006 17.3441C19.0606 17.2012 22.0006 17.2012 22.0006 17.2012C22.0006 17.2012 24.9406 17.2012 26.9006 17.3441C26.9378 17.3504 26.9807 17.3559 27.0285 17.362C27.3401 17.4018 27.8554 17.4676 28.3006 17.9631ZM20.5539 20.0583V24.0583L24.3339 22.0583L20.5539 20.0583Z" fill="#4D4945"/>
<path d="M56.2168 17.5908C56.2656 17.4541 56.3486 17.3564 56.4658 17.2979C56.5928 17.2295 56.7246 17.2148 56.8613 17.2539C56.998 17.293 57.0957 17.376 57.1543 17.5029C57.2129 17.6201 57.2178 17.7422 57.1689 17.8691C56.6416 19.168 56.1875 20.1934 55.8066 20.9453C55.748 21.0527 55.6602 21.1309 55.543 21.1797C55.4258 21.2188 55.3037 21.2188 55.1768 21.1797C55.0693 21.1406 54.9961 21.0723 54.957 20.9746C54.918 20.8672 54.9229 20.7598 54.9717 20.6523C55.4307 19.7246 55.8457 18.7041 56.2168 17.5908ZM50.8555 20.96C50.7969 21.0771 50.6992 21.1553 50.5625 21.1943C50.4355 21.2334 50.3135 21.2236 50.1963 21.165C50.0889 21.1162 50.0156 21.0381 49.9766 20.9307C49.9473 20.8135 49.9619 20.7012 50.0205 20.5938C50.4307 19.8613 50.7285 18.8555 50.9141 17.5762C50.9238 17.459 50.9727 17.3662 51.0605 17.2979C51.1582 17.2197 51.2656 17.1904 51.3828 17.21C51.5098 17.2295 51.6074 17.2881 51.6758 17.3857C51.7539 17.4834 51.7881 17.5908 51.7783 17.708C51.6221 19.0654 51.3145 20.1494 50.8555 20.96ZM49.2734 21.3262C49.3613 21.4434 49.4053 21.5801 49.4053 21.7363C49.4053 21.8828 49.3564 22.0146 49.2588 22.1318C49.1904 22.2197 49.0977 22.2588 48.9805 22.249C48.873 22.2393 48.79 22.1855 48.7314 22.0879C48.5166 21.7168 48.2041 21.2139 47.7939 20.5791C47.7842 20.5596 47.7695 20.5547 47.75 20.5645C47.7402 20.5645 47.7354 20.5742 47.7354 20.5938V27.0098C47.7354 27.1367 47.6865 27.249 47.5889 27.3467C47.501 27.4443 47.3887 27.4932 47.252 27.4932C47.1152 27.4932 46.998 27.4443 46.9004 27.3467C46.8027 27.249 46.7539 27.1367 46.7539 27.0098V20.7842C46.7539 20.7744 46.749 20.7695 46.7393 20.7695C46.7295 20.7695 46.7246 20.7744 46.7246 20.7842C46.0801 22.2881 45.4014 23.5137 44.6885 24.4609C44.6104 24.5586 44.5078 24.6025 44.3809 24.5928C44.2637 24.5732 44.1709 24.5098 44.1025 24.4023C44.0342 24.2656 44 24.1338 44 24.0068C44 23.8408 44.0586 23.6846 44.1758 23.5381C44.625 22.9814 45.0645 22.3076 45.4941 21.5166C45.9336 20.7158 46.29 19.9248 46.5635 19.1436C46.5732 19.124 46.5684 19.1045 46.5488 19.085C46.5293 19.0557 46.5098 19.041 46.4902 19.041H44.6006C44.4736 19.041 44.3613 18.9971 44.2637 18.9092C44.1758 18.8213 44.1318 18.7139 44.1318 18.5869C44.1318 18.4502 44.1758 18.3379 44.2637 18.25C44.3613 18.1621 44.4736 18.1182 44.6006 18.1182H46.6514C46.7197 18.1182 46.7539 18.0791 46.7539 18.001V15.6572C46.7539 15.5889 46.7197 15.5596 46.6514 15.5693C46.0752 15.6865 45.499 15.7891 44.9229 15.877C44.8057 15.8965 44.6934 15.877 44.5859 15.8184C44.4883 15.75 44.415 15.6621 44.3662 15.5547C44.3271 15.457 44.332 15.3643 44.3809 15.2764C44.4297 15.1787 44.5029 15.1201 44.6006 15.1006C46.2705 14.8174 47.584 14.5049 48.541 14.1631C48.6484 14.124 48.751 14.1045 48.8486 14.1045C49.0537 14.1045 49.2344 14.1875 49.3906 14.3535C49.4688 14.4414 49.4932 14.5488 49.4639 14.6758C49.4346 14.793 49.3613 14.8711 49.2441 14.9102C48.7949 15.0566 48.3262 15.1934 47.8379 15.3203C47.7695 15.3301 47.7354 15.374 47.7354 15.4521V18.001C47.7354 18.0791 47.7744 18.1182 47.8525 18.1182H49.5664C49.6934 18.1182 49.8008 18.1621 49.8887 18.25C49.9863 18.3379 50.0352 18.4502 50.0352 18.5869C50.0352 18.7139 49.9863 18.8213 49.8887 18.9092C49.8008 18.9971 49.6934 19.041 49.5664 19.041H47.8525C47.7744 19.041 47.7354 19.0801 47.7354 19.1582V19.2607C47.7354 19.3389 47.7598 19.4023 47.8086 19.4512C48.1406 19.832 48.6289 20.457 49.2734 21.3262ZM53.1406 14.3096C53.1406 14.1826 53.1846 14.0752 53.2725 13.9873C53.3604 13.8896 53.4678 13.8408 53.5947 13.8408C53.7314 13.8408 53.8438 13.8896 53.9316 13.9873C54.0195 14.0752 54.0635 14.1826 54.0635 14.3096C54.0635 16.3896 54.0146 18.0254 53.917 19.2168C53.9072 19.2949 53.9072 19.3682 53.917 19.4365C54.1709 21.126 54.5713 22.5566 55.1182 23.7285C55.6748 24.9004 56.4316 25.7988 57.3887 26.4238C57.5156 26.502 57.5791 26.6191 57.5791 26.7754C57.5791 26.873 57.5449 26.9658 57.4766 27.0537C57.3887 27.1709 57.2764 27.2441 57.1396 27.2734C57.0029 27.3027 56.876 27.2783 56.7588 27.2002C55.2744 26.165 54.21 24.4219 53.5654 21.9707C53.5654 21.9609 53.5557 21.9561 53.5361 21.9561C53.5264 21.9561 53.5215 21.9609 53.5215 21.9707C53.248 23.1328 52.8428 24.1533 52.3057 25.0322C51.7783 25.9014 51.0654 26.6387 50.167 27.2441C50.0693 27.3027 49.9717 27.332 49.874 27.332C49.8447 27.332 49.8154 27.3271 49.7861 27.3174C49.6494 27.2979 49.5322 27.2344 49.4346 27.127C49.3564 27.0488 49.3174 26.9609 49.3174 26.8633C49.3174 26.7266 49.376 26.6191 49.4932 26.541C49.9912 26.209 50.4355 25.8184 50.8262 25.3691C51.2168 24.9199 51.5391 24.4756 51.793 24.0361C52.0469 23.5967 52.2617 23.04 52.4375 22.3662C52.6133 21.6924 52.7451 21.1113 52.833 20.623C52.9209 20.1348 52.9893 19.4609 53.0381 18.6016C53.0869 17.7422 53.1113 17.0586 53.1113 16.5508C53.1211 16.043 53.1309 15.2959 53.1406 14.3096Z" fill="#4D4945"/>
<path d="M71.9492 15.54C72.0762 15.54 72.1836 15.584 72.2715 15.6719C72.3691 15.7598 72.418 15.8721 72.418 16.0088C72.418 16.1357 72.3691 16.2432 72.2715 16.3311C72.1836 16.4189 72.0762 16.4629 71.9492 16.4629H59.7764C59.6494 16.4629 59.542 16.4189 59.4541 16.3311C59.3662 16.2432 59.3223 16.1357 59.3223 16.0088C59.3223 15.8721 59.3662 15.7598 59.4541 15.6719C59.542 15.584 59.6494 15.54 59.7764 15.54H65.2109C65.2793 15.54 65.3135 15.501 65.3135 15.4229V14.3242C65.3135 14.1875 65.3623 14.0703 65.46 13.9727C65.5576 13.875 65.6748 13.8262 65.8115 13.8262C65.958 13.8262 66.0801 13.875 66.1777 13.9727C66.2754 14.0703 66.3242 14.1875 66.3242 14.3242V15.4229C66.3242 15.501 66.3584 15.54 66.4268 15.54H71.9492ZM62.5303 16.9609C62.5889 16.8242 62.6865 16.7266 62.8232 16.668C62.9014 16.6289 62.9795 16.6094 63.0576 16.6094C63.1064 16.6094 63.1602 16.6191 63.2188 16.6387C63.3457 16.6777 63.4336 16.7607 63.4824 16.8877C63.541 17.0049 63.5459 17.1221 63.4971 17.2393C63.165 17.9424 62.7842 18.6406 62.3545 19.334C62.3154 19.4023 62.2959 19.4707 62.2959 19.5391V26.9658C62.2959 27.1123 62.2471 27.2344 62.1494 27.332C62.0518 27.4297 61.9346 27.4785 61.7979 27.4785C61.6611 27.4785 61.5439 27.4297 61.4463 27.332C61.3486 27.2344 61.2998 27.1123 61.2998 26.9658V20.9746C61.2998 20.9551 61.29 20.9453 61.2705 20.9453C61.251 20.9355 61.2363 20.9355 61.2266 20.9453C60.8164 21.4727 60.3818 21.9561 59.9229 22.3955C59.8252 22.5029 59.7031 22.5518 59.5566 22.542C59.4102 22.5322 59.2832 22.4736 59.1758 22.3662C59.0781 22.2783 59.0293 22.166 59.0293 22.0293C59.0293 21.8828 59.083 21.7607 59.1904 21.6631C59.8545 21.0674 60.4746 20.3594 61.0508 19.5391C61.6367 18.7188 62.1299 17.8594 62.5303 16.9609ZM68.9023 21.0918C68.9805 21.1797 69.0098 21.2871 68.9902 21.4141C68.9805 21.5312 68.9268 21.6289 68.8291 21.707C68.7412 21.7852 68.6387 21.8145 68.5215 21.7949C68.4043 21.7754 68.3066 21.7217 68.2285 21.6338C67.9258 21.2529 67.5303 20.8477 67.042 20.418C66.9639 20.3496 66.9248 20.2666 66.9248 20.1689C66.9346 20.0615 66.9785 19.9785 67.0566 19.9199C67.1445 19.8418 67.2471 19.8076 67.3643 19.8174C67.4814 19.8174 67.5889 19.8516 67.6865 19.9199C68.1553 20.3105 68.5605 20.7012 68.9023 21.0918ZM70.7773 19.2021C70.7871 19.1729 70.7822 19.1484 70.7627 19.1289C70.7432 19.0996 70.7188 19.085 70.6895 19.085H66.749C66.6709 19.085 66.6123 19.1191 66.5732 19.1875C66.3096 19.6074 66.0459 19.9932 65.7822 20.3447C65.7432 20.4131 65.7383 20.4766 65.7676 20.5352C66.3047 21.668 67.0225 22.6982 67.9209 23.626C67.9697 23.6846 68.0234 23.6895 68.082 23.6406C69.3223 22.3906 70.2207 20.9111 70.7773 19.2021ZM71.2168 18.25C71.3145 18.2207 71.4072 18.2256 71.4951 18.2646L71.6855 18.3525C71.7734 18.4014 71.8369 18.4746 71.876 18.5723C71.9248 18.6602 71.9346 18.7529 71.9053 18.8506C71.2607 21.0186 70.2158 22.8301 68.7705 24.2852C68.7217 24.3438 68.7217 24.3975 68.7705 24.4463C69.835 25.3447 71.0166 26.0234 72.3154 26.4824C72.4424 26.5215 72.5205 26.6045 72.5498 26.7314C72.5596 26.7705 72.5645 26.8096 72.5645 26.8486C72.5645 26.9268 72.54 27 72.4912 27.0684C72.3936 27.2051 72.2666 27.2979 72.1104 27.3467C72.042 27.3662 71.9736 27.376 71.9053 27.376C71.8174 27.376 71.7344 27.3613 71.6562 27.332C70.3379 26.8047 69.1416 26.0527 68.0674 25.0762C68.0088 25.0273 67.9551 25.0273 67.9062 25.0762C66.793 26.0039 65.499 26.751 64.0244 27.3174C63.9561 27.3467 63.8828 27.3613 63.8047 27.3613C63.7363 27.3613 63.668 27.3516 63.5996 27.332C63.4531 27.2832 63.3311 27.1953 63.2334 27.0684C63.1846 27 63.1602 26.9219 63.1602 26.834C63.1602 26.8047 63.165 26.7705 63.1748 26.7314C63.2041 26.6143 63.2773 26.5361 63.3945 26.4971C64.8594 25.9795 66.1387 25.2764 67.2324 24.3877C67.2812 24.3486 67.2812 24.2998 67.2324 24.2412C66.4219 23.3721 65.7383 22.3809 65.1816 21.2676C65.1523 21.209 65.1133 21.2041 65.0645 21.2529C64.7031 21.6826 64.3467 22.0537 63.9951 22.3662C63.8877 22.4639 63.7656 22.5078 63.6289 22.498C63.502 22.4883 63.3896 22.4346 63.292 22.3369C63.2041 22.249 63.1602 22.1416 63.1602 22.0146C63.1602 21.8779 63.209 21.7705 63.3066 21.6924C64 21.0771 64.6348 20.3545 65.2109 19.5244C65.7969 18.6846 66.2754 17.8301 66.6465 16.9609C66.6953 16.834 66.7881 16.7363 66.9248 16.668C67.0029 16.6289 67.0811 16.6094 67.1592 16.6094C67.208 16.6094 67.2617 16.6191 67.3203 16.6387C67.4473 16.6777 67.54 16.7607 67.5986 16.8877C67.6572 17.0049 67.6572 17.1221 67.5986 17.2393C67.4814 17.5127 67.335 17.8154 67.1592 18.1475C67.1494 18.1768 67.1494 18.2012 67.1592 18.2207C67.1787 18.2402 67.2031 18.25 67.2324 18.25H71.1729C71.1924 18.25 71.207 18.25 71.2168 18.25Z" fill="#4D4945"/>
<path d="M76.1387 21.8242C76.1289 21.8438 76.1289 21.8682 76.1387 21.8975C76.1582 21.917 76.1826 21.9268 76.2119 21.9268H79.4492C79.4785 21.9268 79.5029 21.917 79.5225 21.8975C79.542 21.8682 79.5469 21.8438 79.5371 21.8242L78.9951 20.1396C78.7119 19.2998 78.3359 18.0693 77.8672 16.4482C77.8574 16.4287 77.8428 16.4189 77.8232 16.4189C77.8037 16.4189 77.7939 16.4287 77.7939 16.4482C77.4717 17.5908 77.0957 18.8213 76.666 20.1396L76.1387 21.8242ZM81.6318 26.3652C81.4365 26.3652 81.2607 26.3066 81.1045 26.1895C80.9482 26.0723 80.8408 25.9209 80.7822 25.7354L79.918 23.0107C79.8887 22.9326 79.8398 22.8936 79.7715 22.8936H75.8896C75.8213 22.8936 75.7773 22.9326 75.7578 23.0107L74.8496 25.7793C74.791 25.9551 74.6885 26.0967 74.542 26.2041C74.3955 26.3115 74.2295 26.3652 74.0439 26.3652C73.8877 26.3652 73.7656 26.3018 73.6777 26.1748C73.6191 26.0967 73.5898 26.0137 73.5898 25.9258C73.5898 25.877 73.5996 25.8281 73.6191 25.7793L76.9443 16.0381C77.0127 15.8428 77.1299 15.6865 77.2959 15.5693C77.4619 15.4424 77.6475 15.3789 77.8525 15.3789C78.0576 15.3789 78.2432 15.4424 78.4092 15.5693C78.5752 15.6865 78.6875 15.8428 78.7461 16.0381L82.0859 25.7354C82.1055 25.7939 82.1152 25.8477 82.1152 25.8965C82.1152 25.9941 82.0811 26.0869 82.0127 26.1748C81.9248 26.3018 81.7979 26.3652 81.6318 26.3652Z" fill="#4D4945"/>
<path d="M86.1143 26.5557C84.4736 26.5557 83.6533 25.5059 83.6533 23.4062V18.8799C83.6533 18.7041 83.7119 18.5576 83.8291 18.4404C83.9463 18.3232 84.0879 18.2646 84.2539 18.2646C84.4297 18.2646 84.5762 18.3232 84.6934 18.4404C84.8105 18.5576 84.8691 18.7041 84.8691 18.8799V23.2598C84.8691 24.041 84.9912 24.6123 85.2354 24.9736C85.4893 25.3252 85.9043 25.501 86.4805 25.501C86.8809 25.501 87.2471 25.3984 87.5791 25.1934C87.9209 24.9785 88.2871 24.6318 88.6777 24.1533C88.7266 24.0947 88.751 24.0312 88.751 23.9629V18.8799C88.751 18.7041 88.8096 18.5576 88.9268 18.4404C89.0537 18.3232 89.2002 18.2646 89.3662 18.2646C89.5322 18.2646 89.6738 18.3232 89.791 18.4404C89.9082 18.5576 89.9668 18.7041 89.9668 18.8799V25.8672C89.9668 26.0039 89.918 26.1211 89.8203 26.2188C89.7227 26.3164 89.6055 26.3652 89.4688 26.3652C89.3223 26.3652 89.1953 26.3164 89.0879 26.2188C88.9902 26.1211 88.9365 26.0039 88.9268 25.8672L88.8682 25.0908C88.8584 25.0811 88.8438 25.0762 88.8242 25.0762C88.8145 25.0762 88.8047 25.0811 88.7949 25.0908C88.3848 25.5693 87.9648 25.9355 87.5352 26.1895C87.1152 26.4336 86.6416 26.5557 86.1143 26.5557Z" fill="#4D4945"/>
<path d="M93.8926 26.2041C93.7852 26.3115 93.6484 26.3652 93.4824 26.3652C93.3262 26.3652 93.1895 26.3115 93.0723 26.2041C92.9551 26.0869 92.8965 25.9453 92.8965 25.7793V16.0234C92.8965 15.8477 92.96 15.6963 93.0869 15.5693C93.2139 15.4424 93.3652 15.3789 93.541 15.3789C93.9609 15.3789 94.2783 15.5645 94.4932 15.9355L98.3311 22.498L99.5029 24.71C99.5127 24.7295 99.5273 24.7393 99.5469 24.7393C99.5762 24.7393 99.5908 24.7295 99.5908 24.71C99.4834 23.1279 99.4297 22 99.4297 21.3262V15.9795C99.4297 15.8135 99.4883 15.6719 99.6055 15.5547C99.7227 15.4375 99.8594 15.3789 100.016 15.3789C100.182 15.3789 100.323 15.4375 100.44 15.5547C100.558 15.6719 100.616 15.8135 100.616 15.9795V25.7207C100.616 25.8965 100.553 26.0479 100.426 26.1748C100.299 26.3018 100.147 26.3652 99.9717 26.3652C99.542 26.3652 99.2197 26.1797 99.0049 25.8086L95.1963 19.2607L94.0098 17.0342C94 17.0146 93.9805 17.0049 93.9512 17.0049C93.9316 17.0049 93.9219 17.0195 93.9219 17.0488C94.0195 18.8262 94.0684 19.9248 94.0684 20.3447V25.7793C94.0684 25.9453 94.0098 26.0869 93.8926 26.2041Z" fill="#4D4945"/>
<path d="M104.601 26.1895C104.483 26.3066 104.342 26.3652 104.176 26.3652C104.01 26.3652 103.863 26.3066 103.736 26.1895C103.619 26.0723 103.561 25.9307 103.561 25.7646V18.8799C103.561 18.7041 103.619 18.5576 103.736 18.4404C103.863 18.3232 104.01 18.2646 104.176 18.2646C104.342 18.2646 104.483 18.3232 104.601 18.4404C104.718 18.5576 104.776 18.7041 104.776 18.8799V25.7646C104.776 25.9307 104.718 26.0723 104.601 26.1895ZM104.176 16.5215C103.922 16.5215 103.712 16.4434 103.546 16.2871C103.38 16.1309 103.297 15.9355 103.297 15.7012C103.297 15.4473 103.38 15.2471 103.546 15.1006C103.712 14.9443 103.922 14.8662 104.176 14.8662C104.43 14.8662 104.64 14.9443 104.806 15.1006C104.981 15.2471 105.069 15.4473 105.069 15.7012C105.069 15.9355 104.981 16.1309 104.806 16.2871C104.63 16.4434 104.42 16.5215 104.176 16.5215Z" fill="#4D4945"/>
<path d="M110.299 30.1738C109.283 30.1738 108.468 29.9785 107.853 29.5879C107.247 29.207 106.944 28.6748 106.944 27.9912C106.944 27.6494 107.047 27.3174 107.252 26.9951C107.467 26.6729 107.76 26.3896 108.131 26.1455C108.141 26.1357 108.146 26.1211 108.146 26.1016C108.146 26.082 108.136 26.0674 108.116 26.0576C107.647 25.7549 107.413 25.3105 107.413 24.7246C107.413 24.1875 107.706 23.6943 108.292 23.2451C108.302 23.2354 108.307 23.2207 108.307 23.2012C108.307 23.1816 108.302 23.167 108.292 23.1572C107.999 22.9229 107.755 22.6152 107.56 22.2344C107.364 21.8535 107.267 21.4385 107.267 20.9893C107.267 20.1396 107.555 19.4463 108.131 18.9092C108.717 18.3721 109.43 18.1035 110.27 18.1035C110.602 18.1035 110.938 18.1621 111.28 18.2793C111.358 18.2988 111.432 18.3086 111.5 18.3086H113.727C113.854 18.3086 113.961 18.3574 114.049 18.4551C114.146 18.543 114.195 18.6553 114.195 18.792C114.195 18.9189 114.146 19.0312 114.049 19.1289C113.961 19.2168 113.854 19.2607 113.727 19.2607H112.599C112.579 19.2607 112.564 19.2705 112.555 19.29C112.545 19.3096 112.545 19.3242 112.555 19.334C112.975 19.7832 113.185 20.3447 113.185 21.0186C113.185 21.8584 112.906 22.542 112.35 23.0693C111.793 23.5869 111.1 23.8457 110.27 23.8457C109.869 23.8457 109.483 23.7627 109.112 23.5967C109.044 23.5674 108.985 23.5771 108.937 23.626C108.634 23.8994 108.482 24.2119 108.482 24.5635C108.482 25.1787 108.961 25.4863 109.918 25.4863H111.544C112.481 25.4863 113.18 25.6426 113.639 25.9551C114.098 26.2578 114.327 26.7412 114.327 27.4053C114.327 28.167 113.951 28.8164 113.199 29.3535C112.457 29.9004 111.49 30.1738 110.299 30.1738ZM108.98 22.4541C109.332 22.8252 109.757 23.0107 110.255 23.0107C110.763 23.0107 111.192 22.8252 111.544 22.4541C111.896 22.0732 112.071 21.585 112.071 20.9893C112.071 20.3936 111.896 19.915 111.544 19.5537C111.202 19.1924 110.777 19.0117 110.27 19.0117C109.742 19.0117 109.308 19.1924 108.966 19.5537C108.624 19.9053 108.453 20.3838 108.453 20.9893C108.453 21.585 108.629 22.0732 108.98 22.4541ZM110.46 29.3242C111.241 29.3242 111.881 29.1484 112.379 28.7969C112.877 28.4453 113.126 28.04 113.126 27.5811C113.126 27.2002 112.984 26.9268 112.701 26.7607C112.428 26.5947 112.003 26.5117 111.427 26.5117H109.947C109.674 26.5117 109.366 26.4775 109.024 26.4092C109.005 26.3994 108.985 26.3945 108.966 26.3945C108.917 26.3945 108.868 26.4092 108.819 26.4385C108.292 26.8486 108.028 27.3125 108.028 27.8301C108.028 28.2891 108.243 28.6504 108.673 28.9141C109.103 29.1875 109.698 29.3242 110.46 29.3242Z" fill="#4D4945"/>
<path d="M116.979 26.1895C116.861 26.3066 116.72 26.3652 116.554 26.3652C116.388 26.3652 116.241 26.3066 116.114 26.1895C115.997 26.0723 115.938 25.9307 115.938 25.7646V15.0273C115.938 14.8613 115.997 14.7197 116.114 14.6025C116.241 14.4854 116.388 14.4268 116.554 14.4268C116.72 14.4268 116.861 14.4854 116.979 14.6025C117.096 14.7197 117.154 14.8613 117.154 15.0273V17.7373L117.11 19.3193C117.11 19.3389 117.12 19.3535 117.14 19.3633C117.159 19.373 117.179 19.373 117.198 19.3633C117.638 18.9434 118.062 18.6211 118.473 18.3965C118.883 18.1719 119.332 18.0596 119.82 18.0596C121.471 18.0596 122.296 19.1143 122.296 21.2236V25.75C122.296 25.916 122.237 26.0625 122.12 26.1895C122.003 26.3066 121.856 26.3652 121.681 26.3652C121.515 26.3652 121.368 26.3066 121.241 26.1895C121.124 26.0625 121.065 25.916 121.065 25.75V21.3701C121.065 20.5889 120.938 20.0176 120.685 19.6562C120.431 19.2949 120.025 19.1143 119.469 19.1143C119.068 19.1143 118.702 19.2168 118.37 19.4219C118.038 19.6172 117.657 19.9297 117.228 20.3594C117.179 20.4082 117.154 20.4717 117.154 20.5498V25.7646C117.154 25.9307 117.096 26.0723 116.979 26.1895Z" fill="#4D4945"/>
<path d="M127.423 26.5557C126.622 26.5557 126.051 26.3311 125.709 25.8818C125.367 25.4229 125.196 24.7686 125.196 23.9189V19.3779C125.196 19.3096 125.157 19.2754 125.079 19.2754H124.42C124.293 19.2754 124.186 19.2314 124.098 19.1436C124.01 19.0459 123.966 18.9336 123.966 18.8066C123.966 18.6797 124.01 18.5674 124.098 18.4697C124.186 18.3721 124.293 18.3184 124.42 18.3086L125.123 18.2646C125.201 18.2646 125.24 18.2305 125.24 18.1621L125.343 16.4922C125.353 16.3457 125.406 16.2236 125.504 16.126C125.611 16.0186 125.738 15.9648 125.885 15.9648C126.031 15.9648 126.153 16.0186 126.251 16.126C126.358 16.2236 126.412 16.3457 126.412 16.4922V18.1621C126.412 18.2305 126.446 18.2646 126.515 18.2646H128.141C128.277 18.2646 128.395 18.3135 128.492 18.4111C128.59 18.5088 128.639 18.6309 128.639 18.7773C128.639 18.9141 128.59 19.0312 128.492 19.1289C128.395 19.2266 128.277 19.2754 128.141 19.2754H126.515C126.446 19.2754 126.412 19.3096 126.412 19.3779V23.9629C126.412 24.4902 126.505 24.8906 126.69 25.1641C126.886 25.4277 127.218 25.5596 127.687 25.5596C127.823 25.5596 127.984 25.5352 128.17 25.4863C128.297 25.457 128.414 25.4717 128.521 25.5303C128.639 25.5889 128.712 25.6816 128.741 25.8086C128.761 25.8477 128.771 25.8916 128.771 25.9404C128.771 26.0186 128.746 26.0967 128.697 26.1748C128.639 26.292 128.546 26.3652 128.419 26.3945C128.028 26.502 127.696 26.5557 127.423 26.5557Z" fill="#4D4945"/>
</g>
<defs>
<filter id="filter0_bii" x="-50.0006" y="-50" width="300" height="145" filterUnits="userSpaceOnUse" color-interpolation-filters="sRGB">
<feFlood flood-opacity="0" result="BackgroundImageFix"/>
<feGaussianBlur in="BackgroundImage" stdDeviation="25"/>
<feComposite in2="SourceAlpha" operator="in" result="effect1_backgroundBlur"/>
<feBlend mode="normal" in="SourceGraphic" in2="effect1_backgroundBlur" result="shape"/>
<feColorMatrix in="SourceAlpha" type="matrix" values="0 0 0 0 0 0 0 0 0 0 0 0 0 0 0 0 0 0 127 0" result="hardAlpha"/>
<feOffset dx="4" dy="4"/>
<feGaussianBlur stdDeviation="2.5"/>
<feComposite in2="hardAlpha" operator="arithmetic" k2="-1" k3="1"/>
<feColorMatrix type="matrix" values="0 0 0 0 0 0 0 0 0 0 0 0 0 0 0 0 0 0 0.1 0"/>
<feBlend mode="normal" in2="shape" result="effect2_innerShadow"/>
<feColorMatrix in="SourceAlpha" type="matrix" values="0 0 0 0 0 0 0 0 0 0 0 0 0 0 0 0 0 0 127 0" result="hardAlpha"/>
<feOffset dx="-4" dy="-4"/>
<feGaussianBlur stdDeviation="2.5"/>
<feComposite in2="hardAlpha" operator="arithmetic" k2="-1" k3="1"/>
<feColorMatrix type="matrix" values="0 0 0 0 1 0 0 0 0 1 0 0 0 0 1 0 0 0 0.4 0"/>
<feBlend mode="normal" in2="effect2_innerShadow" result="effect3_innerShadow"/>
</filter>
<clipPath id="clip0">
<rect width="118.771" height="24" fill="white" transform="translate(10 10)"/>
</clipPath>
</defs>
</svg>
